<svg version="1.1" id="Ebene_1" xmlns="http://www.w3.org/2000/svg" xmlns:xlink="http://www.w3.org/1999/xlink" x="0px" y="0px"
	 viewBox="0 0 20 20" enable-background="new 0 0 20 20" xml:space="preserve">
<path d="M8.8,10.3L3.8,5.4C3.3,4.9,2.5,4.9,2,5.4C1.6,5.9,1.6,6.6,2,7.1l7.1,7.1c0.2,0.2,0.6,0.4,0.9,0.4
	c0.3,0,0.6-0.1,0.9-0.4L18,7.1c0.5-0.5,0.5-1.3,0-1.8c-0.5-0.5-1.3-0.5-1.8,0l-4.9,4.9V1.2C11.2,0.6,10.7,0,10,0
	C9.3,0,8.8,0.6,8.8,1.2V10.3z M1.2,18.8c0-0.7,0.6-1.2,1.3-1.2h15c0.7,0,1.3,0.6,1.3,1.2c0,0.7-0.6,1.2-1.3,1.2h-15
	C1.8,20,1.3,19.4,1.2,18.8z"/>
</svg>
