<svg version="1.1" id="Ebene_1" xmlns="http://www.w3.org/2000/svg" xmlns:xlink="http://www.w3.org/1999/xlink" x="0px" y="0px"
	 viewBox="0 0 20 20" enable-background="new 0 0 20 20" xml:space="preserve">
<path d="M18,3.4V9c0,0.5,0.4,1,1,1c0.6,0,1-0.4,1-1V1c0-0.3-0.1-0.5-0.3-0.7C19.5,0.1,19.3,0,19,0h-8
	c-0.5,0-1,0.4-1,1c0,0.6,0.4,1,1,1h5.6l-5.1,5.1c-0.4,0.4-0.4,1,0,1.4c0.4,0.4,1,0.4,1.4,0L18,3.4L18,3.4z M2,16.6V11
	c0-0.5-0.4-1-1-1c-0.6,0-1,0.4-1,1v8c0,0.3,0.1,0.5,0.3,0.7C0.5,19.9,0.7,20,1,20h8c0.5,0,1-0.4,1-1c0-0.6-0.4-1-1-1H3.4l5.1-5.1
	c0.4-0.4,0.4-1,0-1.4c-0.4-0.4-1-0.4-1.4,0L2,16.6L2,16.6z"/>
</svg>
