<svg version="1.1" id="Ebene_1" xmlns="http://www.w3.org/2000/svg" xmlns:xlink="http://www.w3.org/1999/xlink" x="0px" y="0px"
	 viewBox="0 0 20 20" enable-background="new 0 0 20 20" xml:space="preserve">
<g>
	<path fill-rule="evenodd" clip-rule="evenodd" fill="#6E6E6E" d="M4,6h12c0.6,0,1-0.4,1-1c0-0.6-0.5-1-1-1H4C3.4,4,3,4.4,3,5
		C3,5.6,3.5,6,4,6z"/>
	<path fill-rule="evenodd" clip-rule="evenodd" fill="#6E6E6E" d="M4,11h12c0.6,0,1-0.4,1-1c0-0.6-0.5-1-1-1H4c-0.6,0-1,0.4-1,1
		C3,10.6,3.5,11,4,11z"/>
	<path fill-rule="evenodd" clip-rule="evenodd" fill="#6E6E6E" d="M4,16h12c0.6,0,1-0.4,1-1c0-0.6-0.5-1-1-1H4c-0.6,0-1,0.4-1,1
		C3,15.6,3.5,16,4,16z"/>
</g>
</svg>
