<svg version="1.1" id="Ebene_1" xmlns="http://www.w3.org/2000/svg" xmlns:xlink="http://www.w3.org/1999/xlink" x="0px" y="0px"
	 viewBox="0 0 20 20" enable-background="new 0 0 20 20" xml:space="preserve">
<path d="M20,3.3c0-0.6-0.5-1.1-1.1-1.1H1.1C0.5,2.2,0,2.7,0,3.3C0,3.3,20,3.3,20,3.3z M17.8,15.6H2.2V6.7
	c0-0.6-0.5-1.1-1.1-1.1C0.5,5.6,0,6.1,0,6.7v10c0,0.3,0.1,0.6,0.3,0.8c0.2,0.2,0.5,0.3,0.8,0.3h17.8c0.3,0,0.6-0.1,0.8-0.3
	c0.2-0.2,0.3-0.5,0.3-0.8v-10c0-0.6-0.5-1.1-1.1-1.1c-0.6,0-1.1,0.5-1.1,1.1C17.8,6.7,17.8,15.6,17.8,15.6z M10,10l10-6.7H0L10,10z"
	/>
</svg>
