<svg version="1.1" id="Ebene_1" xmlns="http://www.w3.org/2000/svg" xmlns:xlink="http://www.w3.org/1999/xlink" x="0px" y="0px"
	 viewBox="0 0 20 20" enable-background="new 0 0 20 20" xml:space="preserve">
<path d="M10,0.7C9.2,0.7,8.4,0.8,7.6,1l0.1,0.1L8,1.3l0.7,0l0.8,0L10,1.2l1.2,0.1l0.2,0.5l-0.8-0.1L9.8,2l0.3,0.7
	L10.8,3l0.4-0.5h0.6l1.6,1.7l-2.2,0.7l-0.1,0.6l-0.8,0.7l-0.2,0.9l-0.2,0L9.8,6.4L9.2,6.2L7.8,6.4L7.2,7.5L7.7,8l0.7-0.4l0.1,0.7
	l0.3,0.3l0.6,0.2v1.3l1,0.2l0.6-0.3l0.5-0.2l1.2,0.4l1.1,0.4l1.1,0.4l0.2,0.7l0.3,0.3l1,0.5l0.2,0.2l0.1,0.5l0.2,0.6L15,16l-0.7,0.3
	l-1.4,0.9l-1.5,1l-0.9,1l-0.2-0.6l-0.3,0l0.6-1.9v-1.6l-1-1.4v-1.2L9.9,12l0.4-1.1l-1-0.6l-0.6-1L6.2,8.2L5.6,6.5L5.2,7.3L4.7,6
	l0.2-2.2l0.8-0.7L5.5,2.6l0.4-0.4c0,0,1.1-0.1-0.8-0.1C2.4,3.7,0.7,6.7,0.7,10c0,5.2,4.2,9.3,9.3,9.3s9.3-4.2,9.3-9.3
	C19.3,4.8,15.2,0.7,10,0.7z"/>
</svg>
