<svg version="1.1" id="Ebene_1" xmlns="http://www.w3.org/2000/svg" xmlns:xlink="http://www.w3.org/1999/xlink" x="0px" y="0px"
	 viewBox="0 0 20 20" enable-background="new 0 0 20 20" xml:space="preserve">
<path d="M19,9.8c0-0.9-0.5-1.7-1.4-2V3.6c0-0.6-0.3-1.1-0.9-1.1S15.7,3,15.7,3.6V4L7.6,6.6h-6C1.2,6.6,1,7,1,7.4v5.1
	c0,0.4,0.2,0.6,0.6,0.6h2.5l0.9,3.2c0.2,0.6,0.8,0.9,1.4,0.8c0.6-0.2,0.9-0.8,0.7-1.4l-0.7-2.5h1.5c0,0,0.4,0.1,0.4,0.1l7.4,2.8v0.7
	c0,0.6,0.3,1.1,0.9,1.1s0.9-0.5,0.9-1.1v-4.8C18.5,11.6,19,10.8,19,9.8z"/>
</svg>
