<svg version="1.1" id="Ebene_1" xmlns="http://www.w3.org/2000/svg" xmlns:xlink="http://www.w3.org/1999/xlink" x="0px" y="0px"
	 viewBox="0 0 20 20" enable-background="new 0 0 20 20" xml:space="preserve">
<path d="M17.8,16.1H2.2V7.2c0-0.6-0.5-1.1-1.1-1.1C0.5,6.1,0,6.6,0,7.2v10c0,0.3,0.1,0.6,0.3,0.8
	c0.2,0.2,0.5,0.3,0.8,0.3h17.8c0.3,0,0.6-0.1,0.8-0.3c0.2-0.2,0.3-0.5,0.3-0.8v-10c0-0.6-0.5-1.1-1.1-1.1c-0.6,0-1.1,0.5-1.1,1.1
	C17.8,7.2,17.8,16.1,17.8,16.1z M4.4,2.8c0-0.6,0.5-1.1,1.1-1.1h8.9c0.6,0,1.1,0.5,1.1,1.1v6.7c0,0.6-0.5,1.1-1.1,1.1H5.5
	c-0.6,0-1.1-0.5-1.1-1.1C4.4,9.4,4.4,2.8,4.4,2.8z M4.4,13.9c0-0.6,0.5-1.1,1.1-1.1c0.6,0,1.1,0.5,1.1,1.1c0,0.6-0.5,1.1-1.1,1.1
	C4.9,15,4.4,14.5,4.4,13.9z"/>
</svg>
