<svg version="1.1" id="Layer_1" xmlns="http://www.w3.org/2000/svg" xmlns:xlink="http://www.w3.org/1999/xlink" x="0px" y="0px"
	 viewBox="0 0 20 20" enable-background="new 0 0 20 20" xml:space="preserve">
<g>
	<path d="M9,13.1l-1-1.4l0,0l-1.6-2C6.2,9.4,6.2,9,6.6,8.7c0.3-0.2,0.9-0.2,1.1,0.1l0.7,0.9l1.2,1.7l5-6H5.4
		c-0.7,0-1.3,0.2-1.3,1v9.2c0,0.8,0.5,1.8,1.3,1.8h9.2c0.8,0,1.5-1,1.5-1.8V6.4c0-0.1-0.1-0.2-0.1-0.3c-2.2,2.6-5.8,7.1-5.8,7.2
		C9.8,13.5,9.4,13.5,9,13.1z"/>
	<path d="M17.4,2.8c-0.4-0.3-1-0.1-1.3,0.3l-1.7,2.2h0.1c0.6,0,1.2,0.2,1.4,0.9c1-1.1,1.7-2.1,1.7-2.1
		C17.9,3.8,17.8,3.1,17.4,2.8z"/>
</g>
</svg>
