<svg version="1.1" id="Ebene_1" xmlns="http://www.w3.org/2000/svg" xmlns:xlink="http://www.w3.org/1999/xlink" x="0px" y="0px"
	 viewBox="0 0 20 20" enable-background="new 0 0 20 20" xml:space="preserve">
<path d="M16.9,15.1l-2.6-3.2c0.9-1,1.4-2.3,1.4-3.8c0-3.2-2.6-5.9-5.9-5.9c-3.2,0-5.9,2.6-5.9,5.9
	c0,3.2,2.6,5.9,5.9,5.9c1.1,0,2.1-0.3,3-0.8l2.6,3.2c0.4,0.4,1,0.5,1.4,0.1C17.1,16.1,17.2,15.5,16.9,15.1z M6,8.1
	C6,6,7.7,4.3,9.8,4.3c2.1,0,3.8,1.7,3.8,3.8c0,2.1-1.7,3.8-3.8,3.8C7.7,11.9,6,10.2,6,8.1z"/>
</svg>
