<svg version="1.1" id="Layer_1" xmlns="http://www.w3.org/2000/svg" xmlns:xlink="http://www.w3.org/1999/xlink" x="0px" y="0px"
	 viewBox="0 0 20 20" enable-background="new 0 0 20 20" xml:space="preserve">
<g>
	<path d="M9.7,4.7c0.2-0.4,0.5-0.4,0.7,0l1.1,2.5c0.2,0.4,0.7,0.8,1.1,0.9l2.6,0.4c0.4,0.1,0.6,0.4,0.2,0.7l-1.9,1.9
		c-0.3,0.3-0.5,1-0.4,1.4l0.5,2.7c0.1,0.4-0.2,0.6-0.6,0.4l-2.3-1.3c-0.4-0.2-1-0.2-1.4,0L7,15.5c-0.4,0.2-0.6,0-0.6-0.4l0.5-2.8
		c0.1-0.4-0.2-1-0.4-1.4L4.6,9.1C4.3,8.8,4.3,8.5,4.8,8.4L7.4,8c0.4-0.1,1-0.5,1.1-0.9L9.7,4.7z"/>
</g>
</svg>
