<svg version="1.1" id="Ebene_1" xmlns="http://www.w3.org/2000/svg" xmlns:xlink="http://www.w3.org/1999/xlink" x="0px" y="0px"
	 viewBox="0 0 20 20" enable-background="new 0 0 20 20" xml:space="preserve">
<path d="M8.7,10.5V2.8c-4.2,0.3-7.5,3.7-7.5,8c0,4.4,3.6,8,8,8c4.2,0,7.7-3.3,8-7.5H9.5C9.1,11.3,8.7,10.9,8.7,10.5z
	"/>
<g>
	<path d="M11.2,1.3c-0.2,0-0.2,0-0.2,0c-0.2,0-0.3,0-0.3,0.5v5.7c0,0.5,0.1,1.2,0.2,1.4s1,0.4,1.6,0.4h5.7
		c0.5,0,0.5-0.1,0.5-0.3c0,0,0,0,0-0.2C18.7,4.3,15.7,1.3,11.2,1.3z"/>
</g>
</svg>
