<svg version="1.1" id="Ebene_1" xmlns="http://www.w3.org/2000/svg" xmlns:xlink="http://www.w3.org/1999/xlink" x="0px" y="0px"
	 viewBox="0 0 20 20" enable-background="new 0 0 20 20" xml:space="preserve">
<path d="M20,3.9c-0.7,0.3-1.5,0.5-2.4,0.6c0.8-0.5,1.5-1.3,1.8-2.2c-0.8,0.5-1.7,0.8-2.6,1C16.1,2.5,15,2,13.8,2
	c-2.3,0-4.1,1.8-4.1,4c0,0.3,0,0.6,0.1,0.9C6.4,6.8,3.4,5.2,1.4,2.7C1,3.3,0.8,4,0.8,4.7c0,1.4,0.7,2.6,1.8,3.3
	C2,8.1,1.4,7.9,0.8,7.6c0,0,0,0,0,0.1c0,1.9,1.4,3.6,3.3,3.9c-0.3,0.1-0.7,0.1-1.1,0.1c-0.3,0-0.5,0-0.8-0.1c0.5,1.6,2,2.8,3.8,2.8
	c-1.4,1.1-3.2,1.7-5.1,1.7c-0.3,0-0.7,0-1-0.1c1.8,1.1,4,1.8,6.3,1.8c7.5,0,11.6-6.1,11.6-11.4c0-0.2,0-0.3,0-0.5
	C18.7,5.4,19.4,4.7,20,3.9L20,3.9z"/>
</svg>
