<svg version="1.1" xmlns="http://www.w3.org/2000/svg" xmlns:xlink="http://www.w3.org/1999/xlink" x="0px" y="0px"
	 viewBox="0 0 20 20" enable-background="new 0 0 20 20" xml:space="preserve">
<g>
	<path d="M18.059,9.007c0,0-2.615-5.977-8.021-6.305C4.68,3.03,1.929,9.007,1.929,9.007c-0.395,0.74,0,1.352,0,1.352
		s3.183,6.018,8.109,6.23c4.505-0.213,8.066-6.23,8.066-6.23S18.453,9.747,18.059,9.007z M10,14.331
		c-2.588,0-4.686-2.098-4.686-4.686S7.412,4.96,10,4.96c2.588,0,4.686,2.098,4.686,4.686S12.588,14.331,10,14.331z"/>
	<circle cx="10" cy="9.645" r="2.703"/>
</g>
</svg>
