<svg version="1.1" id="Ebene_1" xmlns:sketch="http://www.bohemiancoding.com/sketch/ns"
     xmlns="http://www.w3.org/2000/svg" xmlns:xlink="http://www.w3.org/1999/xlink" x="0px" y="0px" viewBox="0 0 20 20"
     enable-background="new 0 0 20 20" xml:space="preserve">
<path fill="#6E6E6E" d="M11,9.6V5c0-0.6-0.4-1-1-1C9.4,4,9,4.4,9,5v5c0,0.3,0.1,0.5,0.3,0.7l3.2,3.8c0.4,0.4,1,0.5,1.4,0.1
    c0.4-0.4,0.5-1,0.1-1.4L11,9.6z"/>
<path fill="#6E6E6E" d="M10,1c-5,0-9,4-9,9s4,9,9,9s9-4,9-9S15,1,10,1z M10,17c-3.9,0-7-3.1-7-7s3.1-7,7-7s7,3.1,7,7
    S13.9,17,10,17z"/>
</svg>
