<svg version="1.1" id="Ebene_1" xmlns="http://www.w3.org/2000/svg" xmlns:xlink="http://www.w3.org/1999/xlink" x="0px" y="0px"
	 viewBox="0 0 20 20" enable-background="new 0 0 20 20" xml:space="preserve">
<path d="M10,0.6c-5.2,0-9.4,4.2-9.4,9.4c0,1.9,0.6,3.7,1.5,5.2l-1.4,4.3L5.2,18c1.4,0.9,3.1,1.3,4.8,1.3
	c5.2,0,9.4-4.2,9.4-9.4S15.2,0.6,10,0.6z M15.1,13.8c-0.2,0.6-1.3,1.2-1.8,1.2c-0.5,0-0.5,0.4-3.1-0.8c-2.6-1.2-4.2-3.9-4.3-4.1
	c-0.1-0.2-1-1.5-1-2.7c0-1.3,0.7-1.9,1-2.1C6.1,5,6.4,4.9,6.6,4.9s0.3,0,0.5,0c0.1,0,0.4-0.1,0.6,0.5s0.7,1.8,0.7,2
	c0.1,0.1,0.1,0.3,0,0.5C8.3,8,8.3,8.2,8.1,8.3S7.8,8.6,7.7,8.7C7.6,8.9,7.4,9,7.6,9.3c0.1,0.3,0.6,1.1,1.4,1.9
	c1,0.9,1.8,1.2,2.1,1.4s0.4,0.1,0.6,0c0.2-0.2,0.7-0.7,0.9-1s0.4-0.2,0.6-0.1c0.2,0.1,1.5,0.8,1.7,0.9s0.4,0.2,0.5,0.3
	C15.3,12.7,15.3,13.2,15.1,13.8L15.1,13.8z"/>
</svg>
