<?xml version="1.0" encoding="utf-8"?>
<!-- Generator: Adobe Illustrator 16.0.4, SVG Export Plug-In . SVG Version: 6.00 Build 0)  -->
<!DOCTYPE svg PUBLIC "-//W3C//DTD SVG 1.1//EN" "http://www.w3.org/Graphics/SVG/1.1/DTD/svg11.dtd">
<svg version="1.1" id="Ebene_1" xmlns="http://www.w3.org/2000/svg" xmlns:xlink="http://www.w3.org/1999/xlink" x="0px" y="0px"
	 width="661.824px" height="141.645px" viewBox="288 359.999 661.824 141.645" enable-background="new 288 359.999 661.824 141.645"
	 xml:space="preserve">
<g>
	<path d="M913.355,501.644c12.699,0,23.139-2.635,28.545-4.551v-21.559c0-5.029,0.377-5.988,3.396-6.467l4.527-0.84v-1.316h-31.691
		v1.316l4.779,0.84c4.65,0.838,5.027,1.438,5.027,7.424v19.164c-3.018,1.797-8.049,3.354-15.092,3.354
		c-19.363,0-26.658-14.252-26.658-42.158c0-27.666,10.939-37.966,27.791-37.966c8.805,0,12.826,2.156,17.105,7.785
		c3.52,4.672,5.156,8.623,7.797,14.492h1.383l-1.258-22.037c-6.162-1.917-14.084-2.875-23.768-2.875
		c-21.252,0-44.016,9.701-44.016,43.476C871.226,487.871,886.443,501.644,913.355,501.644 M855.142,500.925h4.904v-71.859
		c0-6.707,0.754-8.145,4.904-9.223l4.527-1.078v-1.317h-23.516v1.317l5.406,1.078c4.652,1.078,5.156,2.397,5.156,9.461v48.746
		h-0.379l-41.5-60.603h-24.145v1.317l4.402,0.839c4.023,0.838,5.029,1.916,5.029,7.426v61.682c0,7.188-0.879,8.264-4.904,9.342
		l-4.779,1.078v1.316h23.391v-1.316l-4.902-1.078c-4.779-1.199-5.281-2.275-5.281-9.463v-62.398h0.377L855.142,500.925z
		 M747.183,501.644c22.135,0,30.309-11.496,30.309-26.229v-46.352c0-6.707,0.754-8.383,4.777-9.222l4.904-1.078v-1.317H762.15v1.317
		l5.783,1.078c4.902,0.958,5.154,2.755,5.154,9.462v44.914c0,14.611-6.162,22.275-21.379,22.275c-15.467,0-22.76-6.467-22.76-21.561
		v-47.906c0-6.107,0.502-6.467,5.156-7.425l4.525-0.839v-1.317h-33.828v1.317l4.779,0.839c4.525,0.838,5.029,1.317,5.029,7.425
		v47.189C714.611,494.339,726.685,501.644,747.183,501.644 M678.042,420.083c10.941,0,12.576,2.036,15.342,7.545
		c1.889,3.832,4.15,8.982,6.289,14.49h1.51l-1.26-24.671h-66.648l-1.385,24.671h1.512c2.264-5.508,4.523-10.658,6.539-14.49
		c2.641-5.391,4.398-7.545,15.342-7.545h4.148v70.782c0,6.109-0.502,6.588-5.279,7.426l-4.779,0.84v1.316h34.457v-1.316l-4.654-0.84
		c-5.029-0.957-5.406-1.438-5.406-7.426v-70.782H678.042z M593.751,500.447h33.954v-1.316l-4.654-0.84
		c-4.65-0.838-5.154-1.316-5.154-7.426v-63.836c0-6.108,0.504-6.588,5.154-7.426l4.654-0.839v-1.317h-33.954v1.317l4.778,0.839
		c4.527,0.838,5.031,1.317,5.031,7.426v63.836c0,6.109-0.504,6.588-5.031,7.426l-4.778,0.84V500.447z M572.425,442.958h-1.384
		c-0.88,3.594-1.76,6.707-3.018,8.861c-1.762,3.594-3.396,4.193-13.959,4.193h-7.295v-34.734c3.647-0.718,7.798-1.077,14.086-1.077
		c11.317,0,14.336,0.719,17.856,5.989c1.761,2.754,3.899,7.186,6.162,12.215h1.384l-1.384-20.958h-62.249v1.317l4.653,0.839
		c4.526,0.958,5.029,1.317,5.029,7.426v63.836c0,6.109-0.628,6.469-5.029,7.426l-4.653,0.84v1.316h64.764l1.762-25.15h-1.51
		c-2.389,6.107-4.778,12.215-7.671,16.287c-3.772,4.791-5.533,6.107-17.731,6.107c-14.839,0-15.469-0.479-15.469-9.58v-29.344h7.295
		c10.438,0,12.323,0.479,13.959,4.072c1.132,2.275,2.138,5.389,3.018,8.863h1.384V442.958L572.425,442.958z M452.467,500.447h61.872
		l2.264-24.912h-1.384c-2.641,5.869-5.029,11.139-7.797,15.092c-4.653,6.586-5.784,7.305-28.923,7.305h-10.062v-0.479l48.29-77.25
		v-2.755h-57.847L457.12,441.4h1.383c2.641-5.988,4.653-10.18,7.294-14.73c2.768-4.67,4.779-6.586,24.271-6.586h10.438v0.479
		l-48.039,77.012V500.447L452.467,500.447z"/>
	<path fill="none" stroke="#000000" stroke-width="0.307" stroke-miterlimit="5.592" d="M913.355,501.644
		c12.699,0,23.139-2.635,28.545-4.551v-21.559c0-5.029,0.377-5.988,3.396-6.467l4.527-0.84v-1.316h-31.691v1.316l4.779,0.84
		c4.65,0.838,5.027,1.438,5.027,7.424v19.164c-3.018,1.797-8.049,3.354-15.092,3.354c-19.363,0-26.658-14.252-26.658-42.158
		c0-27.666,10.939-37.966,27.791-37.966c8.805,0,12.826,2.156,17.105,7.785c3.52,4.672,5.156,8.623,7.797,14.492h1.383
		l-1.258-22.037c-6.162-1.917-14.084-2.875-23.768-2.875c-21.252,0-44.016,9.701-44.016,43.476
		C871.226,487.871,886.443,501.644,913.355,501.644z M855.142,500.925h4.904v-71.859c0-6.707,0.754-8.145,4.904-9.223l4.527-1.078
		v-1.317h-23.516v1.317l5.406,1.078c4.652,1.078,5.156,2.397,5.156,9.461v48.746h-0.379l-41.5-60.603h-24.145v1.317l4.402,0.839
		c4.023,0.838,5.029,1.916,5.029,7.426v61.682c0,7.188-0.879,8.264-4.904,9.342l-4.779,1.078v1.316h23.391v-1.316l-4.902-1.078
		c-4.779-1.199-5.281-2.275-5.281-9.463v-62.398h0.377L855.142,500.925z M747.183,501.644c22.135,0,30.309-11.496,30.309-26.229
		v-46.352c0-6.707,0.754-8.383,4.777-9.222l4.904-1.078v-1.317H762.15v1.317l5.783,1.078c4.902,0.958,5.154,2.755,5.154,9.462
		v44.914c0,14.611-6.162,22.275-21.379,22.275c-15.467,0-22.76-6.467-22.76-21.561v-47.906c0-6.107,0.502-6.467,5.156-7.425
		l4.525-0.839v-1.317h-33.828v1.317l4.779,0.839c4.525,0.838,5.029,1.317,5.029,7.425v47.189
		C714.611,494.339,726.685,501.644,747.183,501.644z M678.042,420.083c10.941,0,12.576,2.036,15.342,7.545
		c1.889,3.832,4.15,8.982,6.289,14.49h1.51l-1.26-24.671h-66.648l-1.385,24.671h1.512c2.264-5.508,4.523-10.658,6.539-14.49
		c2.641-5.391,4.398-7.545,15.342-7.545h4.148v70.782c0,6.109-0.502,6.588-5.279,7.426l-4.779,0.84v1.316h34.457v-1.316l-4.654-0.84
		c-5.029-0.957-5.406-1.438-5.406-7.426v-70.782H678.042z M593.751,500.447h33.954v-1.316l-4.654-0.84
		c-4.65-0.838-5.154-1.316-5.154-7.426v-63.836c0-6.108,0.504-6.588,5.154-7.426l4.654-0.839v-1.317h-33.954v1.317l4.778,0.839
		c4.527,0.838,5.031,1.317,5.031,7.426v63.836c0,6.109-0.504,6.588-5.031,7.426l-4.778,0.84V500.447z M572.425,442.958h-1.384
		c-0.88,3.594-1.76,6.707-3.018,8.861c-1.762,3.594-3.396,4.193-13.959,4.193h-7.295v-34.734c3.647-0.718,7.798-1.077,14.086-1.077
		c11.317,0,14.336,0.719,17.856,5.989c1.761,2.754,3.899,7.186,6.162,12.215h1.384l-1.384-20.958h-62.249v1.317l4.653,0.839
		c4.526,0.958,5.029,1.317,5.029,7.426v63.836c0,6.109-0.628,6.469-5.029,7.426l-4.653,0.84v1.316h64.764l1.762-25.15h-1.51
		c-2.389,6.107-4.778,12.215-7.671,16.287c-3.772,4.791-5.533,6.107-17.731,6.107c-14.839,0-15.469-0.479-15.469-9.58v-29.344h7.295
		c10.438,0,12.323,0.479,13.959,4.072c1.132,2.275,2.138,5.389,3.018,8.863h1.384V442.958L572.425,442.958z M452.467,500.447h61.872
		l2.264-24.912h-1.384c-2.641,5.869-5.029,11.139-7.797,15.092c-4.653,6.586-5.784,7.305-28.923,7.305h-10.062v-0.479l48.29-77.25
		v-2.755h-57.847L457.12,441.4h1.383c2.641-5.988,4.653-10.18,7.294-14.73c2.768-4.67,4.779-6.586,24.271-6.586h10.438v0.479
		l-48.039,77.012V500.447L452.467,500.447z"/>
	<path fill="#2A4D86" d="M414.309,500.841l0.295-2.109h-3.509l4.067-4.24l0.295-2.049h-6.756l-0.312,2.111h3.313l-4.067,4.238
		l-0.278,2.049H414.309L414.309,500.841z M406.072,500.841l1.147-8.398h-3.034l-1.147,8.398H406.072z M407.319,491.593l0.344-2.592
		h-3.034l-0.344,2.592H407.319z M399.728,495.625h-2.197c0.213-1.008,0.705-1.439,1.278-1.439
		C399.482,494.185,399.843,494.617,399.728,495.625 M402.483,496.554c0.311-2.178-0.82-4.289-3.429-4.289
		c-3.083,0-4.591,2.336-4.591,5.088c0,2.131,1.328,3.664,3.788,3.664c1.984,0,3.083-0.781,3.952-1.729l-1.361-1.311
		c-0.541,0.479-1.05,0.895-2.034,0.895c-0.95,0-1.541-0.479-1.508-1.584h5.067C402.401,497.05,402.434,496.873,402.483,496.554
		 M394.887,492.441h-2.558l-1.559,4.129h-0.032l-0.508-4.129h-2.231l-1.721,4.129h-0.033l-0.345-4.129h-3.001l1.427,8.4h2.361
		l1.656-4.207h0.033l0.442,4.207h2.378L394.887,492.441z M381.042,500.841l0.869-6.398c0.197-1.455-0.344-2.178-1.607-2.178
		c-1.032,0-1.935,0.447-2.951,1.201l0.591-4.465h-3.034l-1.59,11.84h3.032l0.756-5.615c0.377-0.318,0.819-0.561,1.196-0.561
		c0.345,0,0.508,0.207,0.459,0.576l-0.754,5.6H381.042z M372.59,498.41l-2.197-1.152c-0.46,1.199-0.869,1.553-1.427,1.553
		c-0.541,0-0.901-0.574-0.901-1.439c0-1.551,0.442-2.928,1.377-2.928c0.655,0,0.951,0.561,1.033,1.311l2.51-0.863
		c-0.23-1.52-1.247-2.625-3.493-2.625c-2.772,0-4.362,2.16-4.362,5.041c0,1.855,0.984,3.711,3.559,3.711
		C370.753,501.017,372.016,499.849,372.59,498.41 M364.446,497.833c0-1.328-0.655-1.951-3.246-2.625
		c-0.574-0.143-0.738-0.303-0.722-0.543c0.016-0.256,0.344-0.432,0.853-0.416c0.525,0,1.229,0.191,1.984,0.689l1.427-1.408
		c-1.115-0.863-2.345-1.266-3.526-1.266c-2.001,0-3.657,1.059-3.657,2.85c0,1.537,0.902,2.209,3.198,2.928
		c0.689,0.209,0.771,0.32,0.771,0.576s-0.296,0.449-0.82,0.465c-0.656,0.016-1.591-0.271-2.313-1.041l-1.622,1.232
		c0.95,1.184,2.46,1.742,3.902,1.742C362.643,501.017,364.446,499.882,364.446,497.833 M355.841,500.857l0.295-2.16
		c-0.229,0.049-0.426,0.08-0.754,0.08c-0.574,0-0.788-0.336-0.706-0.928l0.428-3.295h1.491l0.312-2.113h-1.493l0.361-2.752h-2.984
		l-0.361,2.752h-0.869l-0.312,2.113h0.869c0,0-0.426,3.008-0.492,3.439c-0.279,1.84,0.443,2.959,2.591,2.959
		C354.922,500.953,355.447,500.921,355.841,500.857 M350.316,497.833c0-1.328-0.656-1.951-3.247-2.625
		c-0.574-0.143-0.738-0.303-0.722-0.543c0.017-0.256,0.345-0.432,0.853-0.416c0.524,0,1.229,0.191,1.984,0.689l1.427-1.408
		c-1.115-0.863-2.346-1.266-3.525-1.266c-2.001,0-3.657,1.059-3.657,2.85c0,1.537,0.902,2.209,3.197,2.928
		c0.688,0.209,0.771,0.32,0.771,0.576s-0.295,0.449-0.819,0.465c-0.656,0.016-1.591-0.271-2.312-1.041l-1.624,1.232
		c0.952,1.184,2.46,1.742,3.903,1.742C348.512,501.017,350.316,499.882,350.316,497.833 M339.478,495.625h-2.196
		c0.213-1.008,0.705-1.439,1.278-1.439C339.232,494.185,339.593,494.617,339.478,495.625 M342.233,496.554
		c0.312-2.178-0.82-4.289-3.428-4.289c-3.083,0-4.592,2.336-4.592,5.088c0,2.131,1.329,3.664,3.788,3.664
		c1.985,0,3.083-0.781,3.953-1.729l-1.362-1.311c-0.541,0.479-1.049,0.895-2.033,0.895c-0.95,0-1.541-0.479-1.509-1.584h5.067
		C342.151,497.05,342.184,496.873,342.233,496.554 M334.688,492.441h-2.56l-1.557,4.129h-0.033l-0.509-4.129h-2.23l-1.722,4.129
		h-0.032l-0.345-4.129h-3.001l1.427,8.4h2.361l1.656-4.207h0.032l0.443,4.207h2.378L334.688,492.441z M317.947,498.394
		c-0.246,0.225-0.558,0.385-0.854,0.385c-0.508,0-0.983-0.354-0.983-1.439c0-1.936,0.64-2.832,1.378-2.832
		c0.36,0,0.705,0.16,0.935,0.385L317.947,498.394z M320.915,500.841c-0.131-0.416-0.098-1.184,0.017-2.062l1.312-9.775h-3.034
		l-0.558,4.225c-0.443-0.496-1.148-0.961-2.164-0.961c-1.657,0-3.329,1.76-3.329,5.184c0,2.48,1.164,3.568,2.427,3.568
		c0.852,0,1.574-0.447,2.131-0.959c0,0.287,0.05,0.543,0.132,0.783h3.066V500.841z M312.677,495.273l0.41-3.008h-0.05
		c-0.951,0-2.033,0.736-2.722,1.775h-0.033l0.214-1.6h-3.034l-1.147,8.398h3.033l0.656-4.768c0.771-0.496,1.738-0.801,2.623-0.801
		h0.05V495.273z M301.514,498.921c-0.819-0.049-1.099-0.783-0.869-2.32c0.263-1.791,0.82-2.305,1.559-2.238
		c0.787,0.062,0.951,0.734,0.738,2.318C302.695,498.474,302.17,498.953,301.514,498.921 M301.251,501.017
		c2.788,0.033,4.673-1.967,4.657-5.23c0-2.176-1.197-3.488-3.575-3.521c-3.017-0.047-4.657,2.146-4.657,5.201
		C297.677,499.609,299.168,500.986,301.251,501.017 M295.942,500.841l0.869-6.336c0.197-1.455-0.426-2.24-1.673-2.24
		c-1.033,0-1.951,0.467-2.886,1.201l0.148-1.023h-3.034l-1.148,8.398h3.034l0.754-5.615c0.41-0.318,0.869-0.561,1.197-0.561
		c0.328,0,0.509,0.225,0.46,0.641l-0.755,5.535H295.942z"/>
</g>
<g>
	<g>
		<defs>
			<rect id="SVGID_1_" x="288" y="360.479" width="127.848" height="125.194"/>
		</defs>
		<clipPath id="SVGID_2_">
			<use xlink:href="#SVGID_1_"  overflow="visible"/>
		</clipPath>
		<path clip-path="url(#SVGID_2_)" fill="#2A4D86" d="M412.427,458.804l-2.691,13.154h-43.254h-1.898H351.83l0.797-7.277
			l-0.198-0.195v0.195c-3.788,5.982-10.465,8.479-17.443,8.479c-11.163,0-17.344-4.988-17.344-15.055
			c0-12.758,12.761-19.037,28.608-19.037c3.586,0,7.173,0.299,9.666,0.5c0.199-0.697,0.199-1.396,0.199-2.098
			c0-3.686-3.687-6.676-9.565-6.676c-6.479,0-10.868,0.996-16.847,4.086l1.795-13.057c5.28-1.794,10.963-2.99,19.035-2.99
			c12.359,0,22.527,4.886,22.527,17.644c0,5.205-1.86,11.834-3.728,20.006l26.149-23.297h-22.227l2.69-13.156h39.899V360.48H288
			v125.193h127.846v-50.883l-27.143,24.014H412.427L412.427,458.804z"/>
	</g>
	<g>
		<defs>
			<rect id="SVGID_3_" x="288" y="360.479" width="127.848" height="125.194"/>
		</defs>
		<clipPath id="SVGID_4_">
			<use xlink:href="#SVGID_3_"  overflow="visible"/>
		</clipPath>
		<path clip-path="url(#SVGID_4_)" fill="#2A4D86" d="M334.587,456.011c0,2.396,2.291,5.186,6.08,5.186
			c7.675,0,12.26-5.285,13.553-12.266c-1.489-0.295-3.687-0.295-4.782-0.295C340.867,448.337,334.587,451.425,334.587,456.011"/>
	</g>
	<g>
		<defs>
			<rect id="SVGID_5_" x="288" y="360.479" width="127.848" height="125.194"/>
		</defs>
		<clipPath id="SVGID_6_">
			<use xlink:href="#SVGID_5_"  overflow="visible"/>
		</clipPath>
		<path clip-path="url(#SVGID_6_)" fill="#FFFFFF" d="M340.667,461.195c-3.788,0-6.079-2.789-6.079-5.184
			c0-4.586,6.28-7.676,14.85-7.377c1.097,0,3.294,0,4.782,0.297C352.926,455.91,348.342,461.195,340.667,461.195 M415.848,420.03
			h-39.9l-2.69,13.155h22.226l-26.148,23.297c1.867-8.17,3.727-14.799,3.727-20.006c0-12.758-10.166-17.643-22.526-17.643
			c-8.072,0-13.755,1.196-19.036,2.991l-1.796,13.057c5.98-3.09,10.367-4.086,16.844-4.086c5.884,0,9.572,2.99,9.572,6.676
			c0,0.701,0,1.398-0.201,2.096c-2.493-0.201-6.081-0.5-9.666-0.5c-15.851,0-28.608,6.281-28.608,19.037
			c0,10.068,6.183,15.055,17.344,15.055c6.978,0,13.655-2.494,17.443-8.477v-0.201l0.198,0.201l-0.797,7.279h12.754h1.898h43.253
			l2.691-13.156h-23.724l27.144-24.014V420.03L415.848,420.03z"/>
	</g>
</g>
<g>
	<path d="M741.849,380.886c-1.855,0-3.096-0.177-3.9-0.295v-18.172c1.484-0.295,3.035-0.472,5.266-0.472
		c5.018,0,7.93,2.36,7.93,9.381C751.142,378.113,747.921,380.886,741.849,380.886 M726.052,401.478h16.605v-0.649l-2.23-0.413
		c-2.293-0.472-2.479-0.648-2.479-3.658v-14.632c1.609,0.06,3.346,0.118,4.584,0.118c3.469,6.726,7.807,14.101,11.584,19.234h10.408
		v-0.649l-1.115-0.236c-1.115-0.235-1.734-0.53-3.283-2.478c-3.035-3.717-7.867-11.859-10.842-17.169v-0.118
		c5.824-1.77,9.105-4.956,9.105-10.443c0-6.549-4.459-9.794-14.125-9.794h-18.213v0.649l2.293,0.413
		c2.168,0.472,2.479,0.59,2.479,3.658v31.446c0,3.068-0.311,3.187-2.479,3.658l-2.293,0.413V401.478z M715.435,373.157h-0.682
		c-0.434,1.77-0.867,3.304-1.486,4.366c-0.865,1.77-1.672,2.064-6.877,2.064h-3.592v-17.109c1.795-0.354,3.84-0.531,6.939-0.531
		c5.574,0,7.061,0.354,8.797,2.95c0.867,1.356,1.92,3.54,3.035,6.018h0.682l-0.682-10.325h-30.666v0.649l2.293,0.413
		c2.229,0.472,2.479,0.648,2.479,3.658v31.446c0,3.01-0.311,3.187-2.479,3.658l-2.293,0.413v0.649h31.904l0.867-12.391h-0.744
		c-1.176,3.009-2.354,6.019-3.777,8.024c-1.859,2.359-2.727,3.009-8.734,3.009c-7.312,0-7.619-0.236-7.619-4.72v-14.455h3.592
		c5.143,0,6.072,0.235,6.877,2.006c0.557,1.121,1.053,2.655,1.486,4.366h0.682v-14.158H715.435z M668.906,402.067
		c10.902,0,14.93-5.664,14.93-12.921v-22.833c0-3.305,0.371-4.13,2.355-4.543l2.416-0.531v-0.649h-12.328v0.649l2.852,0.531
		c2.414,0.472,2.539,1.356,2.539,4.66v22.125c0,7.198-3.035,10.975-10.531,10.975c-7.621,0-11.213-3.187-11.213-10.62v-23.6
		c0-3.01,0.248-3.187,2.539-3.658l2.23-0.413v-0.649h-16.664v0.649l2.354,0.413c2.23,0.413,2.479,0.648,2.479,3.658v23.245
		C652.861,398.468,658.808,402.067,668.906,402.067 M628.929,368.26h0.188l5.822,16.992h-12.203L628.929,368.26z M611.955,401.478
		h11.027v-0.649l-1.672-0.354c-1.92-0.473-2.602-1.181-2.602-2.597c0-0.943,0.246-2.242,1.053-4.483l2.416-6.727h13.258l2.725,8.024
		c0.373,1.003,0.807,2.537,0.807,3.422c0,1.18-0.434,1.947-2.479,2.419l-1.426,0.295v0.649h16.418v-0.649l-1.301-0.295
		c-1.797-0.413-2.541-1.475-4.213-6.018l-12.328-33.926h-3.346l-12.699,33.218c-2.045,5.428-2.416,6.136-4.584,6.726l-1.055,0.295
		V401.478L611.955,401.478z M594.735,402.067c6.256,0,11.399-1.298,14.063-2.242v-10.62c0-2.478,0.186-2.95,1.672-3.186l2.23-0.413
		v-0.649h-15.611v0.649l2.355,0.413c2.291,0.413,2.479,0.708,2.479,3.657v9.44c-1.488,0.885-3.967,1.652-7.435,1.652
		c-9.54,0-13.133-7.021-13.133-20.769c0-13.629,5.39-18.703,13.69-18.703c4.334,0,6.319,1.062,8.424,3.835
		c1.734,2.302,2.539,4.248,3.84,7.14h0.684l-0.619-10.856c-3.035-0.944-6.939-1.416-11.709-1.416
		c-10.469,0-21.682,4.779-21.682,21.417C573.982,395.282,581.479,402.067,594.735,402.067 M553.161,380.886
		c-1.858,0-3.097-0.177-3.902-0.295v-18.172c1.486-0.295,3.035-0.472,5.266-0.472c5.018,0,7.93,2.36,7.93,9.381
		C562.454,378.113,559.233,380.886,553.161,380.886 M537.364,401.478h16.603v-0.649l-2.229-0.413
		c-2.293-0.472-2.479-0.648-2.479-3.658v-14.632c1.61,0.06,3.345,0.118,4.584,0.118c3.47,6.726,7.807,14.101,11.585,19.234h10.407
		v-0.649l-1.115-0.236c-1.114-0.235-1.734-0.53-3.282-2.478c-3.036-3.717-7.868-11.859-10.843-17.169v-0.118
		c5.824-1.77,9.107-4.956,9.107-10.443c0-6.549-4.46-9.794-14.124-9.794h-18.214v0.649l2.292,0.413
		c2.169,0.472,2.478,0.59,2.478,3.658v31.446c0,3.068-0.309,3.187-2.478,3.658l-2.292,0.413V401.478z M512.889,368.26h0.186
		l5.824,16.992h-12.204L512.889,368.26z M495.914,401.478h11.027v-0.649l-1.673-0.354c-1.921-0.473-2.602-1.181-2.602-2.597
		c0-0.943,0.248-2.242,1.053-4.483l2.416-6.727h13.257l2.727,8.024c0.372,1.003,0.805,2.537,0.805,3.422
		c0,1.18-0.433,1.947-2.478,2.419l-1.425,0.295v0.649h16.416v-0.649l-1.301-0.295c-1.796-0.413-2.54-1.475-4.212-6.018
		l-12.328-33.926h-3.346l-12.699,33.218c-2.045,5.428-2.416,6.136-4.585,6.726l-1.053,0.295V401.478L495.914,401.478z
		 M472.033,368.26h0.186l5.823,16.992h-12.204L472.033,368.26z M455.059,401.478h11.027v-0.649l-1.673-0.354
		c-1.92-0.473-2.602-1.181-2.602-2.597c0-0.943,0.247-2.242,1.054-4.483l2.416-6.727h13.257l2.726,8.024
		c0.372,1.003,0.806,2.537,0.806,3.422c0,1.18-0.434,1.947-2.479,2.419l-1.425,0.295v0.649h16.417v-0.649l-1.301-0.295
		c-1.796-0.413-2.54-1.475-4.212-6.018l-12.328-33.926h-3.347l-12.699,33.218c-2.044,5.428-2.416,6.136-4.584,6.726l-1.054,0.295
		V401.478L455.059,401.478z"/>
	<path fill="none" stroke="#000000" stroke-width="0.205" stroke-miterlimit="5.592" d="M741.849,380.886
		c-1.855,0-3.096-0.177-3.9-0.295v-18.172c1.484-0.295,3.035-0.472,5.266-0.472c5.018,0,7.93,2.36,7.93,9.381
		C751.142,378.113,747.921,380.886,741.849,380.886z M726.052,401.478h16.605v-0.649l-2.23-0.413
		c-2.293-0.472-2.479-0.648-2.479-3.658v-14.632c1.609,0.06,3.346,0.118,4.584,0.118c3.469,6.726,7.807,14.101,11.584,19.234h10.408
		v-0.649l-1.115-0.236c-1.115-0.235-1.734-0.53-3.283-2.478c-3.035-3.717-7.867-11.859-10.842-17.169v-0.118
		c5.824-1.77,9.105-4.956,9.105-10.443c0-6.549-4.459-9.794-14.125-9.794h-18.213v0.649l2.293,0.413
		c2.168,0.472,2.479,0.59,2.479,3.658v31.446c0,3.068-0.311,3.187-2.479,3.658l-2.293,0.413V401.478z M715.435,373.157h-0.682
		c-0.434,1.77-0.867,3.304-1.486,4.366c-0.865,1.77-1.672,2.064-6.877,2.064h-3.592v-17.109c1.795-0.354,3.84-0.531,6.939-0.531
		c5.574,0,7.061,0.354,8.797,2.95c0.867,1.356,1.92,3.54,3.035,6.018h0.682l-0.682-10.325h-30.666v0.649l2.293,0.413
		c2.229,0.472,2.479,0.648,2.479,3.658v31.446c0,3.01-0.311,3.187-2.479,3.658l-2.293,0.413v0.649h31.904l0.867-12.391h-0.744
		c-1.176,3.009-2.354,6.019-3.777,8.024c-1.859,2.359-2.727,3.009-8.734,3.009c-7.312,0-7.619-0.236-7.619-4.72v-14.455h3.592
		c5.143,0,6.072,0.235,6.877,2.006c0.557,1.121,1.053,2.655,1.486,4.366h0.682v-14.158H715.435z M668.906,402.067
		c10.902,0,14.93-5.664,14.93-12.921v-22.833c0-3.305,0.371-4.13,2.355-4.543l2.416-0.531v-0.649h-12.328v0.649l2.852,0.531
		c2.414,0.472,2.539,1.356,2.539,4.66v22.125c0,7.198-3.035,10.975-10.531,10.975c-7.621,0-11.213-3.187-11.213-10.62v-23.6
		c0-3.01,0.248-3.187,2.539-3.658l2.23-0.413v-0.649h-16.664v0.649l2.354,0.413c2.23,0.413,2.479,0.648,2.479,3.658v23.245
		C652.861,398.468,658.808,402.067,668.906,402.067z M628.929,368.26h0.188l5.822,16.992h-12.203L628.929,368.26z M611.955,401.478
		h11.027v-0.649l-1.672-0.354c-1.92-0.473-2.602-1.181-2.602-2.597c0-0.943,0.246-2.242,1.053-4.483l2.416-6.727h13.258l2.725,8.024
		c0.373,1.003,0.807,2.537,0.807,3.422c0,1.18-0.434,1.947-2.479,2.419l-1.426,0.295v0.649h16.418v-0.649l-1.301-0.295
		c-1.797-0.413-2.541-1.475-4.213-6.018l-12.328-33.926h-3.346l-12.699,33.218c-2.045,5.428-2.416,6.136-4.584,6.726l-1.055,0.295
		V401.478L611.955,401.478z M594.735,402.067c6.256,0,11.399-1.298,14.063-2.242v-10.62c0-2.478,0.186-2.95,1.672-3.186l2.23-0.413
		v-0.649h-15.611v0.649l2.355,0.413c2.291,0.413,2.479,0.708,2.479,3.657v9.44c-1.488,0.885-3.967,1.652-7.435,1.652
		c-9.54,0-13.133-7.021-13.133-20.769c0-13.629,5.39-18.703,13.69-18.703c4.334,0,6.319,1.062,8.424,3.835
		c1.734,2.302,2.539,4.248,3.84,7.14h0.684l-0.619-10.856c-3.035-0.944-6.939-1.416-11.709-1.416
		c-10.469,0-21.682,4.779-21.682,21.417C573.982,395.282,581.479,402.067,594.735,402.067z M553.161,380.886
		c-1.858,0-3.097-0.177-3.902-0.295v-18.172c1.486-0.295,3.035-0.472,5.266-0.472c5.018,0,7.93,2.36,7.93,9.381
		C562.454,378.113,559.233,380.886,553.161,380.886z M537.364,401.478h16.603v-0.649l-2.229-0.413
		c-2.293-0.472-2.479-0.648-2.479-3.658v-14.632c1.61,0.06,3.345,0.118,4.584,0.118c3.47,6.726,7.807,14.101,11.585,19.234h10.407
		v-0.649l-1.115-0.236c-1.114-0.235-1.734-0.53-3.282-2.478c-3.036-3.717-7.868-11.859-10.843-17.169v-0.118
		c5.824-1.77,9.107-4.956,9.107-10.443c0-6.549-4.46-9.794-14.124-9.794h-18.214v0.649l2.292,0.413
		c2.169,0.472,2.478,0.59,2.478,3.658v31.446c0,3.068-0.309,3.187-2.478,3.658l-2.292,0.413V401.478z M512.889,368.26h0.186
		l5.824,16.992h-12.204L512.889,368.26z M495.914,401.478h11.027v-0.649l-1.673-0.354c-1.921-0.473-2.602-1.181-2.602-2.597
		c0-0.943,0.248-2.242,1.053-4.483l2.416-6.727h13.257l2.727,8.024c0.372,1.003,0.805,2.537,0.805,3.422
		c0,1.18-0.433,1.947-2.478,2.419l-1.425,0.295v0.649h16.416v-0.649l-1.301-0.295c-1.796-0.413-2.54-1.475-4.212-6.018
		l-12.328-33.926h-3.346l-12.699,33.218c-2.045,5.428-2.416,6.136-4.585,6.726l-1.053,0.295V401.478L495.914,401.478z
		 M472.033,368.26h0.186l5.823,16.992h-12.204L472.033,368.26z M455.059,401.478h11.027v-0.649l-1.673-0.354
		c-1.92-0.473-2.602-1.181-2.602-2.597c0-0.943,0.247-2.242,1.054-4.483l2.416-6.727h13.257l2.726,8.024
		c0.372,1.003,0.806,2.537,0.806,3.422c0,1.18-0.434,1.947-2.479,2.419l-1.425,0.295v0.649h16.417v-0.649l-1.301-0.295
		c-1.796-0.413-2.54-1.475-4.212-6.018l-12.328-33.926h-3.347l-12.699,33.218c-2.044,5.428-2.416,6.136-4.584,6.726l-1.054,0.295
		V401.478L455.059,401.478z"/>
</g>
</svg>
