<svg width="476px" height="525px" viewBox="0 0 476 525" version="1.1" xmlns="http://www.w3.org/2000/svg" xmlns:xlink="http://www.w3.org/1999/xlink" xmlns:sketch="http://www.bohemiancoding.com/sketch/ns">
    <!-- Generator: Sketch 3.3.2 (12043) - http://www.bohemiancoding.com/sketch -->
    <title>az-nwch-logo</title>
    <desc>Created with Sketch.</desc>
    <defs></defs>
    <g id="Page-1" stroke="none" stroke-width="1" fill="none" fill-rule="evenodd" sketch:type="MSPage">
        <path d="M28.8954173,524.128548 L32.1463388,500.403372 C32.8833141,494.955119 30.5526765,492.015684 25.8876602,492.015684 C22.0232162,492.015684 18.5889861,493.756878 15.0874182,496.512833 L15.6448259,492.674716 L4.29465808,492.674716 L-1.42108547e-14,524.128548 L11.3464268,524.128548 L14.1708753,503.10316 C15.7046817,501.904918 17.4217968,501.006237 18.6488419,501.006237 C19.8758871,501.006237 20.5530065,501.845006 20.369698,503.40272 L17.5452495,524.128548 L28.8954173,524.128548 L28.8954173,524.128548 Z M48.7600814,524.787581 C59.1899653,524.91115 66.2417341,517.422142 66.1818782,505.196337 C66.1818782,497.048297 61.7039115,492.131763 52.8040931,492.015684 C41.5212631,491.839692 35.3860373,500.047644 35.3860373,511.490848 C35.3860373,519.51532 40.9675964,524.671501 48.7600814,524.787581 L48.7600814,524.787581 Z M49.7402212,516.939101 C46.6726082,516.759365 45.6288717,514.007155 46.4892997,508.251852 C47.4694394,501.545446 49.5569126,499.620771 52.3177642,499.864164 C55.2619244,500.103812 55.875447,502.620119 55.0786158,508.551413 C54.158332,515.265308 52.1943115,517.058925 49.7402212,516.939101 L49.7402212,516.939101 Z M91.5009077,503.279151 L93.0347142,492.015684 L92.8476646,492.015684 C89.2899818,492.015684 85.2422292,494.771639 82.6646861,498.665923 L82.5412334,498.665923 L83.3418056,492.674716 L71.9916378,492.674716 L67.6969797,524.128548 L79.0471475,524.128548 L81.5012378,506.278499 C84.3818012,504.421225 88.0030808,503.279151 91.3101172,503.279151 L91.5009077,503.279151 L91.5009077,503.279151 Z M122.319195,524.128548 C121.829125,522.570835 121.952577,519.6988 122.382791,516.399893 L127.290972,479.793623 L115.940804,479.793623 L113.853331,495.614152 C112.196072,493.756878 109.558673,492.015684 105.757826,492.015684 C99.5590031,492.015684 93.3040656,498.60601 93.3040656,511.427191 C93.3040656,520.713561 97.6585795,524.787581 102.383452,524.787581 C105.570776,524.787581 108.271772,523.113788 110.355504,521.196602 C110.355504,522.271274 110.542554,523.229867 110.849315,524.128548 L122.319195,524.128548 L122.319195,524.128548 Z M111.215932,514.965748 C110.295648,515.800772 109.1322,516.399893 108.024867,516.399893 C106.124443,516.399893 104.343731,515.081827 104.343731,511.007807 C104.343731,503.762192 106.737966,500.403372 109.498817,500.403372 C110.849315,500.403372 112.136216,501.006237 112.996644,501.845006 L111.215932,514.965748 L111.215932,514.965748 Z M173.840128,492.674716 L164.266931,492.674716 L158.442207,508.135773 L158.318754,508.135773 L156.41459,492.674716 L148.072179,492.674716 L141.630192,508.135773 L141.51048,508.135773 L140.219838,492.674716 L128.993123,492.674716 L134.331518,524.128548 L143.163998,524.128548 L149.362821,508.375421 L149.482533,508.375421 L151.139792,524.128548 L160.03587,524.128548 L173.840128,492.674716 L173.840128,492.674716 Z M202.069648,508.075861 C203.236838,499.920331 199.002036,492.015684 189.249271,492.015684 C177.715795,492.015684 172.070639,500.762845 172.070639,511.067719 C172.070639,519.039768 177.042416,524.787581 186.241514,524.787581 C193.667382,524.787581 197.77499,521.855635 201.029653,518.317078 L195.934423,513.408034 C193.910546,515.201651 192.010123,516.759365 188.328987,516.759365 C184.771304,516.759365 182.564119,514.965748 182.683831,510.828071 L201.639434,510.828071 C201.762887,509.933134 201.88634,509.270357 202.069648,508.075861 L202.069648,508.075861 Z M191.763217,504.597217 L183.544259,504.597217 C184.34109,500.822757 186.181658,499.205131 188.328987,499.205131 C190.842933,499.205131 192.193431,500.822757 191.763217,504.597217 L191.763217,504.597217 Z M232.308082,512.868825 C232.308082,507.89238 229.853991,505.559554 220.161083,503.039503 C218.013754,502.504039 217.400231,501.904918 217.463828,501.006237 C217.523684,500.047644 218.750729,499.388612 220.651153,499.448524 C222.615173,499.448524 225.252572,500.163724 228.07702,502.020998 L233.411674,496.748737 C229.240469,493.51723 224.639049,492.015684 220.22468,492.015684 C212.738956,492.015684 206.543874,495.973624 206.543874,502.680031 C206.543874,508.435333 209.918248,510.951639 218.503824,513.643938 C221.081367,514.426539 221.384387,514.842179 221.384387,515.800772 C221.384387,516.759365 220.284535,517.482054 218.320515,517.541966 C215.866425,517.598134 212.368598,516.523461 209.671343,513.643938 L203.595973,518.257166 C207.157397,522.690659 212.798812,524.787581 218.197062,524.787581 C225.559333,524.787581 232.308082,520.537569 232.308082,512.868825 L232.308082,512.868825 Z M252.977059,524.18846 L254.080651,516.100332 C253.220223,516.283813 252.486989,516.399893 251.259944,516.399893 C249.112615,516.399893 248.312043,515.141739 248.618804,512.924993 L250.216207,500.586853 L255.797766,500.586853 L256.964956,492.674716 L251.379656,492.674716 L252.730153,482.369842 L241.567035,482.369842 L240.216537,492.674716 L236.965616,492.674716 L235.798427,500.586853 L239.049348,500.586853 C239.049348,500.586853 237.455686,511.85032 237.205039,513.467946 C236.165044,520.357833 238.86604,524.547933 246.901689,524.547933 C249.539088,524.547933 251.503108,524.428109 252.977059,524.18846 L252.977059,524.18846 Z M285.16829,512.868825 C285.16829,507.89238 282.714199,505.559554 273.025032,503.039503 C270.873962,502.504039 270.26418,501.904918 270.320295,501.006237 C270.383892,500.047644 271.610937,499.388612 273.515102,499.448524 C275.475381,499.448524 278.11278,500.163724 280.937228,502.020998 L286.275623,496.748737 C282.100677,493.51723 277.499257,492.015684 273.084887,492.015684 C265.599164,492.015684 259.404082,495.973624 259.404082,502.680031 C259.404082,508.435333 262.778456,510.951639 271.367772,513.643938 C273.945316,514.426539 274.252077,514.842179 274.252077,515.800772 C274.252077,516.759365 273.144743,517.482054 271.180723,517.541966 C268.730374,517.598134 265.232547,516.523461 262.531551,513.643938 L256.456181,518.257166 C260.017605,522.690659 265.662761,524.787581 271.061011,524.787581 C278.423282,524.787581 285.16829,520.537569 285.16829,512.868825 L285.16829,512.868825 Z M315.634923,515.02566 L307.415965,510.708247 C305.695109,515.201651 304.157562,516.523461 302.077571,516.523461 C300.053694,516.523461 298.703196,514.366627 298.703196,511.127631 C298.703196,505.319906 300.360456,500.163724 303.854541,500.163724 C306.308632,500.163724 307.415965,502.260646 307.722727,505.076513 L317.108874,501.845006 C316.248446,496.149616 312.443858,492.015684 304.041591,492.015684 C293.671563,492.015684 287.723387,500.103812 287.723387,510.891727 C287.723387,517.841526 291.404522,524.787581 301.033834,524.787581 C308.762722,524.787581 313.487594,520.414001 315.634923,515.02566 L315.634923,515.02566 Z M347.257523,524.128548 L350.508445,500.163724 C351.24542,494.715471 349.221544,492.015684 344.496672,492.015684 C340.632228,492.015684 337.257853,493.689477 333.457006,496.512833 L335.664191,479.793623 L324.314023,479.793623 L318.365847,524.128548 L329.708533,524.128548 L332.536722,503.10316 C333.947076,501.904918 335.604335,501.006237 337.014689,501.006237 C338.30159,501.006237 338.915113,501.78135 338.731804,503.163072 L335.911096,524.128548 L347.257523,524.128548 L347.257523,524.128548 Z M399.047808,492.674716 L389.478352,492.674716 L383.649887,508.135773 L383.526435,508.135773 L381.62227,492.674716 L373.279859,492.674716 L366.841613,508.135773 L366.71816,508.135773 L365.427518,492.674716 L354.200803,492.674716 L359.539198,524.128548 L368.375419,524.128548 L374.570501,508.375421 L374.690213,508.375421 L376.347472,524.128548 L385.24355,524.128548 L399.047808,492.674716 L399.047808,492.674716 Z M427.464378,508.075861 C428.624085,499.920331 424.396765,492.015684 414.64026,492.015684 C403.106783,492.015684 397.465368,500.762845 397.465368,511.067719 C397.465368,519.039768 402.433405,524.787581 411.632503,524.787581 C419.05837,524.787581 423.165979,521.855635 426.420641,518.317078 L421.329152,513.408034 C419.305276,515.201651 417.39737,516.759365 413.719976,516.759365 C410.162293,516.759365 407.955108,514.965748 408.078561,510.828071 L427.034164,510.828071 C427.157617,509.933134 427.281069,509.270357 427.464378,508.075861 L427.464378,508.075861 Z M417.157947,504.597217 L408.935248,504.597217 C409.732079,500.822757 411.572647,499.205131 413.719976,499.205131 C416.237663,499.205131 417.588161,500.822757 417.157947,504.597217 L417.157947,504.597217 Z M445.555812,489.499377 L446.842713,479.793623 L435.492546,479.793623 L434.205644,489.499377 L445.555812,489.499377 L445.555812,489.499377 Z M440.890796,524.128548 L445.185454,492.674716 L433.835286,492.674716 L429.540628,524.128548 L440.890796,524.128548 L440.890796,524.128548 Z M471.705342,524.128548 L472.808934,516.223901 L459.681796,516.223901 L474.896408,500.347205 L476,492.674716 L450.725862,492.674716 L449.558673,500.586853 L461.952577,500.586853 L446.737966,516.459805 L445.690488,524.128548 L471.705342,524.128548 L471.705342,524.128548 Z" id="nordwestschweiz" fill="#1B4D85" sketch:type="MSShapeGroup"></path>
        <path d="M463.270179,365.987587 L453.247166,414.953432 L237.651875,414.953432 L240.619312,387.863092 L239.882107,387.129815 L239.882107,387.863092 C225.778404,410.133153 200.918206,419.416378 174.933584,419.416378 C133.370848,419.416378 110.361109,400.846207 110.361109,363.385753 C110.361109,315.897631 157.869889,292.518348 216.879815,292.518348 C230.227698,292.518348 243.583026,293.631292 252.868833,294.379459 C253.606039,291.78507 253.606039,289.186958 253.606039,286.577679 C253.606039,272.861287 239.882107,261.728118 217.99307,261.728118 C193.870077,261.728118 177.528695,265.439174 155.267332,276.937122 L161.954304,228.339777 C181.609386,221.662108 202.768665,217.21033 232.822809,217.21033 C278.842286,217.21033 316.700379,235.393389 316.700379,282.885234 C316.700379,302.259405 309.771395,326.934022 302.823794,357.344585 L400.179561,270.635398 L317.426415,270.635398 L327.441981,221.662108 L476,221.662108 L476,0 L-2.84217094e-14,0 L-2.84217094e-14,466 L476,466 L476,276.605844 L374.939591,365.987587 L463.270179,365.987587 L463.270179,365.987587 Z M174.900074,355.591418 C174.900074,364.506142 183.43006,374.887423 197.537487,374.887423 C226.113497,374.887423 243.184638,355.215474 247.998811,329.238079 C242.451156,328.140023 234.271156,328.140023 230.194188,328.140023 C198.282139,327.027078 174.900074,338.521303 174.900074,355.591418 L174.900074,355.591418 Z" id="az" fill="#1B4D85" sketch:type="MSShapeGroup"></path>
    </g>
</svg>
