<svg width="476px" height="466px" viewBox="0 0 476 466" version="1.1" xmlns="http://www.w3.org/2000/svg" xmlns:xlink="http://www.w3.org/1999/xlink" xmlns:sketch="http://www.bohemiancoding.com/sketch/ns">
    <!-- Generator: Sketch 3.3.2 (12043) - http://www.bohemiancoding.com/sketch -->
    <title>az-nwch-logo</title>
    <desc>Created with Sketch.</desc>
    <defs></defs>
    <g id="Page-1" stroke="none" stroke-width="1" fill="none" fill-rule="evenodd" sketch:type="MSPage">
        <g id="Desktop-HD-Copy-9" sketch:type="MSArtboardGroup" transform="translate(-816.000000, -1926.000000)" fill="#1B4D85">
            <g id="az-nwch-logo" sketch:type="MSLayerGroup" transform="translate(816.000000, 1926.000000)">
                <g id="Page-1" sketch:type="MSShapeGroup">
                    <path d="M463.270179,365.987587 L453.247166,414.953432 L237.651875,414.953432 L240.619312,387.863092 L239.882107,387.129815 L239.882107,387.863092 C225.778404,410.133153 200.918206,419.416378 174.933584,419.416378 C133.370848,419.416378 110.361109,400.846207 110.361109,363.385753 C110.361109,315.897631 157.869889,292.518348 216.879815,292.518348 C230.227698,292.518348 243.583026,293.631292 252.868833,294.379459 C253.606039,291.78507 253.606039,289.186958 253.606039,286.577679 C253.606039,272.861287 239.882107,261.728118 217.99307,261.728118 C193.870077,261.728118 177.528695,265.439174 155.267332,276.937122 L161.954304,228.339777 C181.609386,221.662108 202.768665,217.21033 232.822809,217.21033 C278.842286,217.21033 316.700379,235.393389 316.700379,282.885234 C316.700379,302.259405 309.771395,326.934022 302.823794,357.344585 L400.179561,270.635398 L317.426415,270.635398 L327.441981,221.662108 L476,221.662108 L476,0 L2.84217094e-14,0 L2.84217094e-14,466 L476,466 L476,276.605844 L374.939591,365.987587 L463.270179,365.987587 L463.270179,365.987587 Z M174.900074,355.591418 C174.900074,364.506142 183.43006,374.887423 197.537487,374.887423 C226.113497,374.887423 243.184638,355.215474 247.998811,329.238079 C242.451156,328.140023 234.271156,328.140023 230.194188,328.140023 C198.282139,327.027078 174.900074,338.521303 174.900074,355.591418 L174.900074,355.591418 L174.900074,355.591418 Z" id="az"></path>
                </g>
            </g>
        </g>
    </g>
</svg>
