<!-- Generator: Adobe Illustrator 16.0.4, SVG Export Plug-In . SVG Version: 6.00 Build 0)  -->
<!DOCTYPE svg PUBLIC "-//W3C//DTD SVG 1.1//EN" "http://www.w3.org/Graphics/SVG/1.1/DTD/svg11.dtd">
<svg version="1.1" id="Ebene_1" xmlns="http://www.w3.org/2000/svg" xmlns:xlink="http://www.w3.org/1999/xlink" x="0px" y="0px"
	 width="729.451px" height="141.32px" viewBox="197 378 729.451 141.32" enable-background="new 197 378 729.451 141.32"
	 xml:space="preserve">
<g>
	<g>
		<defs>
			<rect id="SVGID_1_" x="197" y="378" width="729.451" height="141.32"/>
		</defs>
		<clipPath id="SVGID_2_">
			<use xlink:href="#SVGID_1_"  overflow="visible"/>
		</clipPath>
		<path clip-path="url(#SVGID_2_)" d="M903.15,437.604c10.939,0,12.574,2.036,15.344,7.546c1.885,3.834,4.148,8.982,6.287,14.49
			h1.508l-1.256-24.671H858.38l-1.383,24.671h1.51c2.264-5.508,4.527-10.656,6.539-14.49c2.641-5.391,4.402-7.546,15.342-7.546h4.15
			v70.782c0,6.109-0.504,6.588-5.281,7.426l-4.779,0.84v1.316h34.457v-1.316l-4.652-0.84c-5.029-0.959-5.406-1.438-5.406-7.426
			v-70.782H903.15z M830.037,437.604c10.939,0,12.576,2.036,15.342,7.546c1.887,3.834,4.15,8.982,6.289,14.49h1.508l-1.258-24.671
			h-66.65l-1.383,24.671h1.508c2.266-5.508,4.529-10.656,6.541-14.49c2.643-5.391,4.4-7.546,15.344-7.546h4.148v70.782
			c0,6.109-0.504,6.588-5.283,7.426l-4.777,0.84v1.316h34.459v-1.316l-4.654-0.84c-5.031-0.959-5.408-1.438-5.408-7.426v-70.782
			H830.037z M746.423,450.539h0.377l11.822,34.494h-24.775L746.423,450.539z M711.966,517.968h22.385v-1.316l-3.395-0.721
			c-3.898-0.957-5.283-2.395-5.283-5.27c0-1.916,0.504-4.551,2.139-9.102l4.904-13.654h26.912l5.533,16.289
			c0.754,2.035,1.635,5.15,1.635,6.945c0,2.396-0.881,3.953-5.029,4.912l-2.893,0.598v1.318h33.324v-1.318l-2.643-0.598
			c-3.645-0.838-5.154-2.994-8.551-12.217l-25.025-68.867h-6.791l-25.777,67.43c-4.15,11.02-4.906,12.455-9.309,13.654l-2.137,0.598
			V517.968L711.966,517.968z M645.292,517.968h62.625l1.762-26.107h-1.635c-2.391,6.467-4.904,12.217-7.42,16.525
			c-3.521,5.869-6.037,6.947-17.984,6.947c-12.572,0-13.203-1.438-13.203-8.145V444.55c0-6.109,0.504-6.707,5.156-7.426l4.652-0.838
			v-1.318h-33.953v1.318l4.652,0.838c4.527,0.838,5.029,1.315,5.029,7.426v63.836c0,6.109-0.629,6.588-5.029,7.426l-4.652,0.838
			V517.968L645.292,517.968z M598.185,473.535v-34.854c2.139-0.6,5.785-0.958,9.309-0.958c12.324,0,17.479,4.911,17.479,17.726
			c0,12.576-6.541,18.086-17.479,18.086H598.185z M611.138,515.214c-11.191,0-12.953-1.199-12.953-9.104V476.41h10.941
			c14.211,0,19.492,5.748,19.492,19.043C628.619,508.626,622.582,515.214,611.138,515.214 M574.166,517.968h37.35
			c19.869,0,32.32-8.145,32.32-23.354c0-12.574-8.678-19.043-25.277-20.359v-0.24c13.33-2.275,20.75-8.504,20.75-19.521
			c0-14.014-11.695-19.522-30.559-19.522h-34.584v1.317l4.652,0.838c4.527,0.838,5.031,1.316,5.031,7.426v63.836
			c0,6.109-0.504,6.588-5.031,7.428l-4.652,0.838V517.968L574.166,517.968z M538.378,519.166c12.701,0,23.139-2.635,28.547-4.551
			v-21.559c0-5.031,0.377-5.988,3.396-6.467l4.525-0.838v-1.318h-31.689v1.318l4.777,0.838c4.654,0.838,5.031,1.436,5.031,7.426
			v19.162c-3.018,1.797-8.049,3.354-15.092,3.354c-19.365,0-26.66-14.252-26.66-42.158c0-27.666,10.941-37.967,27.793-37.967
			c8.803,0,12.826,2.155,17.104,7.785c3.52,4.672,5.154,8.623,7.797,14.492h1.383l-1.258-22.038
			c-6.162-1.916-14.084-2.875-23.77-2.875c-21.252,0-44.013,9.702-44.013,43.478C496.25,505.392,511.466,519.166,538.378,519.166
			 M454.979,450.539h0.377l11.821,34.494h-24.773L454.979,450.539z M420.521,517.968h22.385v-1.316l-3.396-0.721
			c-3.897-0.957-5.281-2.395-5.281-5.27c0-1.916,0.504-4.551,2.138-9.102l4.905-13.654h26.911l5.533,16.289
			c0.754,2.035,1.636,5.15,1.636,6.945c0,2.396-0.882,3.953-5.031,4.912l-2.893,0.598v1.318h33.325v-1.318l-2.64-0.598
			c-3.647-0.838-5.156-2.994-8.553-12.217l-25.024-68.867h-6.791l-25.78,67.43c-4.15,11.02-4.905,12.455-9.306,13.654l-2.139,0.598
			L420.521,517.968L420.521,517.968z M406.362,437.604c10.94,0,12.575,2.036,15.342,7.546c1.887,3.834,4.149,8.982,6.288,14.49
			h1.509l-1.257-24.671h-66.651l-1.384,24.671h1.51c2.264-5.508,4.527-10.656,6.539-14.49c2.642-5.391,4.401-7.546,15.342-7.546
			h4.15v70.782c0,6.109-0.503,6.588-5.282,7.426l-4.778,0.84v1.316h34.457v-1.316l-4.652-0.84c-5.03-0.959-5.408-1.438-5.408-7.426
			v-70.782H406.362z"/>
	</g>
	<g>
		<defs>
			<rect id="SVGID_3_" x="197" y="378" width="729.451" height="141.32"/>
		</defs>
		<clipPath id="SVGID_4_">
			<use xlink:href="#SVGID_3_"  overflow="visible"/>
		</clipPath>
		<path clip-path="url(#SVGID_4_)" fill="none" stroke="#000000" stroke-width="0.307" stroke-miterlimit="5.592" d="
			M903.15,437.604c10.939,0,12.574,2.036,15.344,7.546c1.885,3.834,4.148,8.982,6.287,14.49h1.508l-1.256-24.671H858.38
			l-1.383,24.671h1.51c2.264-5.508,4.527-10.656,6.539-14.49c2.641-5.391,4.402-7.546,15.342-7.546h4.15v70.782
			c0,6.109-0.504,6.588-5.281,7.426l-4.779,0.84v1.316h34.457v-1.316l-4.652-0.84c-5.029-0.959-5.406-1.438-5.406-7.426v-70.782
			H903.15z M830.037,437.604c10.939,0,12.576,2.036,15.342,7.546c1.887,3.834,4.15,8.982,6.289,14.49h1.508l-1.258-24.671h-66.65
			l-1.383,24.671h1.508c2.266-5.508,4.529-10.656,6.541-14.49c2.643-5.391,4.4-7.546,15.344-7.546h4.148v70.782
			c0,6.109-0.504,6.588-5.283,7.426l-4.777,0.84v1.316h34.459v-1.316l-4.654-0.84c-5.031-0.959-5.408-1.438-5.408-7.426v-70.782
			H830.037z M746.423,450.539h0.377l11.822,34.494h-24.775L746.423,450.539z M711.966,517.968h22.385v-1.316l-3.395-0.721
			c-3.898-0.957-5.283-2.395-5.283-5.27c0-1.916,0.504-4.551,2.139-9.102l4.904-13.654h26.912l5.533,16.289
			c0.754,2.035,1.635,5.15,1.635,6.945c0,2.396-0.881,3.953-5.029,4.912l-2.893,0.598v1.318h33.324v-1.318l-2.643-0.598
			c-3.645-0.838-5.154-2.994-8.551-12.217l-25.025-68.867h-6.791l-25.777,67.43c-4.15,11.02-4.906,12.455-9.309,13.654l-2.137,0.598
			V517.968L711.966,517.968z M645.292,517.968h62.625l1.762-26.107h-1.635c-2.391,6.467-4.904,12.217-7.42,16.525
			c-3.521,5.869-6.037,6.947-17.984,6.947c-12.572,0-13.203-1.438-13.203-8.145V444.55c0-6.109,0.504-6.707,5.156-7.426l4.652-0.838
			v-1.318h-33.953v1.318l4.652,0.838c4.527,0.838,5.029,1.315,5.029,7.426v63.836c0,6.109-0.629,6.588-5.029,7.426l-4.652,0.838
			V517.968L645.292,517.968z M598.185,473.535v-34.854c2.139-0.6,5.785-0.958,9.309-0.958c12.324,0,17.479,4.911,17.479,17.726
			c0,12.576-6.541,18.086-17.479,18.086H598.185z M611.138,515.214c-11.191,0-12.953-1.199-12.953-9.104V476.41h10.941
			c14.211,0,19.492,5.748,19.492,19.043C628.619,508.626,622.582,515.214,611.138,515.214z M574.166,517.968h37.35
			c19.869,0,32.32-8.145,32.32-23.354c0-12.574-8.678-19.043-25.277-20.359v-0.24c13.33-2.275,20.75-8.504,20.75-19.521
			c0-14.014-11.695-19.522-30.559-19.522h-34.584v1.317l4.652,0.838c4.527,0.838,5.031,1.316,5.031,7.426v63.836
			c0,6.109-0.504,6.588-5.031,7.428l-4.652,0.838V517.968L574.166,517.968z M538.378,519.166c12.701,0,23.139-2.635,28.547-4.551
			v-21.559c0-5.031,0.377-5.988,3.396-6.467l4.525-0.838v-1.318h-31.689v1.318l4.777,0.838c4.654,0.838,5.031,1.436,5.031,7.426
			v19.162c-3.018,1.797-8.049,3.354-15.092,3.354c-19.365,0-26.66-14.252-26.66-42.158c0-27.666,10.941-37.967,27.793-37.967
			c8.803,0,12.826,2.155,17.104,7.785c3.52,4.672,5.154,8.623,7.797,14.492h1.383l-1.258-22.038
			c-6.162-1.916-14.084-2.875-23.77-2.875c-21.252,0-44.013,9.702-44.013,43.478C496.25,505.392,511.466,519.166,538.378,519.166z
			 M454.979,450.539h0.377l11.821,34.494h-24.773L454.979,450.539z M420.521,517.968h22.385v-1.316l-3.396-0.721
			c-3.897-0.957-5.281-2.395-5.281-5.27c0-1.916,0.504-4.551,2.138-9.102l4.905-13.654h26.911l5.533,16.289
			c0.754,2.035,1.636,5.15,1.636,6.945c0,2.396-0.882,3.953-5.031,4.912l-2.893,0.598v1.318h33.325v-1.318l-2.64-0.598
			c-3.647-0.838-5.156-2.994-8.553-12.217l-25.024-68.867h-6.791l-25.78,67.43c-4.15,11.02-4.905,12.455-9.306,13.654l-2.139,0.598
			L420.521,517.968L420.521,517.968z M406.362,437.604c10.94,0,12.575,2.036,15.342,7.546c1.887,3.834,4.149,8.982,6.288,14.49
			h1.509l-1.257-24.671h-66.651l-1.384,24.671h1.51c2.264-5.508,4.527-10.656,6.539-14.49c2.642-5.391,4.401-7.546,15.342-7.546
			h4.15v70.782c0,6.109-0.503,6.588-5.282,7.426l-4.778,0.84v1.316h34.457v-1.316l-4.652-0.84c-5.03-0.959-5.408-1.438-5.408-7.426
			v-70.782H406.362z"/>
	</g>
	<g>
		<defs>
			<rect id="SVGID_5_" x="197" y="378" width="729.451" height="141.32"/>
		</defs>
		<clipPath id="SVGID_6_">
			<use xlink:href="#SVGID_5_"  overflow="visible"/>
		</clipPath>
		<path clip-path="url(#SVGID_6_)" fill="#2A4D86" d="M323.309,518.363l0.295-2.111h-3.509l4.067-4.24l0.295-2.049h-6.756
			l-0.312,2.113h3.313l-4.067,4.238l-0.278,2.049H323.309L323.309,518.363z M315.072,518.363l1.147-8.4h-3.034l-1.147,8.4H315.072z
			 M316.319,509.115l0.344-2.592h-3.034l-0.344,2.592H316.319z M308.728,513.146h-2.197c0.213-1.008,0.705-1.439,1.278-1.439
			C308.482,511.707,308.843,512.138,308.728,513.146 M311.483,514.076c0.311-2.178-0.82-4.289-3.429-4.289
			c-3.083,0-4.591,2.336-4.591,5.088c0,2.129,1.328,3.664,3.788,3.664c1.984,0,3.083-0.783,3.952-1.729l-1.361-1.311
			c-0.541,0.479-1.05,0.895-2.034,0.895c-0.95,0-1.541-0.479-1.508-1.584h5.067C311.401,514.572,311.434,514.394,311.483,514.076
			 M303.887,509.962h-2.558l-1.559,4.129h-0.032l-0.508-4.129h-2.231l-1.721,4.129h-0.033l-0.345-4.129h-3.001l1.427,8.4h2.361
			l1.656-4.207h0.033l0.442,4.207h2.378L303.887,509.962z M290.042,518.363l0.869-6.4c0.197-1.455-0.344-2.176-1.607-2.176
			c-1.032,0-1.935,0.447-2.951,1.201l0.591-4.465h-3.034l-1.59,11.84h3.032l0.756-5.615c0.377-0.32,0.819-0.561,1.196-0.561
			c0.345,0,0.508,0.207,0.459,0.576l-0.754,5.6H290.042z M281.59,515.931l-2.197-1.15c-0.46,1.197-0.869,1.553-1.427,1.553
			c-0.541,0-0.901-0.576-0.901-1.441c0-1.551,0.442-2.928,1.377-2.928c0.655,0,0.951,0.561,1.033,1.312l2.51-0.863
			c-0.23-1.521-1.247-2.625-3.493-2.625c-2.772,0-4.362,2.16-4.362,5.041c0,1.854,0.984,3.711,3.559,3.711
			C279.753,518.539,281.016,517.371,281.59,515.931 M273.446,515.355c0-1.328-0.655-1.951-3.246-2.625
			c-0.574-0.143-0.738-0.303-0.722-0.543c0.016-0.256,0.344-0.432,0.853-0.416c0.525,0,1.229,0.191,1.984,0.688l1.427-1.408
			c-1.115-0.861-2.345-1.264-3.526-1.264c-2.001,0-3.657,1.057-3.657,2.848c0,1.537,0.902,2.209,3.198,2.93
			c0.689,0.209,0.771,0.318,0.771,0.574s-0.296,0.449-0.82,0.465c-0.656,0.018-1.591-0.27-2.313-1.039l-1.622,1.23
			c0.95,1.184,2.46,1.744,3.902,1.744C271.643,518.539,273.446,517.404,273.446,515.355 M264.841,518.378l0.295-2.16
			c-0.229,0.049-0.426,0.08-0.754,0.08c-0.574,0-0.788-0.336-0.706-0.928l0.428-3.295h1.491l0.312-2.113h-1.493l0.361-2.752h-2.984
			l-0.361,2.752h-0.869l-0.312,2.113h0.869c0,0-0.426,3.008-0.492,3.439c-0.279,1.84,0.443,2.959,2.591,2.959
			C263.922,518.474,264.447,518.443,264.841,518.378 M259.316,515.355c0-1.328-0.656-1.951-3.247-2.625
			c-0.574-0.143-0.738-0.303-0.722-0.543c0.017-0.256,0.345-0.432,0.853-0.416c0.524,0,1.229,0.191,1.984,0.688l1.427-1.408
			c-1.115-0.861-2.346-1.264-3.525-1.264c-2.001,0-3.657,1.057-3.657,2.848c0,1.537,0.902,2.209,3.197,2.93
			c0.688,0.209,0.771,0.318,0.771,0.574s-0.295,0.449-0.819,0.465c-0.656,0.018-1.591-0.27-2.312-1.039l-1.624,1.23
			c0.952,1.184,2.46,1.744,3.903,1.744C257.512,518.539,259.316,517.404,259.316,515.355 M248.478,513.146h-2.196
			c0.213-1.008,0.705-1.439,1.278-1.439C248.232,511.707,248.593,512.138,248.478,513.146 M251.233,514.076
			c0.312-2.178-0.82-4.289-3.428-4.289c-3.083,0-4.592,2.336-4.592,5.088c0,2.129,1.329,3.664,3.788,3.664
			c1.985,0,3.083-0.783,3.953-1.729l-1.362-1.311c-0.541,0.479-1.049,0.895-2.033,0.895c-0.95,0-1.541-0.479-1.509-1.584h5.067
			C251.151,514.572,251.184,514.394,251.233,514.076 M243.688,509.962h-2.56l-1.557,4.129h-0.033l-0.509-4.129h-2.23l-1.722,4.129
			h-0.032l-0.345-4.129h-3.001l1.427,8.4h2.361l1.656-4.207h0.032l0.443,4.207h2.378L243.688,509.962z M226.947,515.916
			c-0.246,0.223-0.558,0.383-0.854,0.383c-0.508,0-0.983-0.352-0.983-1.438c0-1.938,0.64-2.832,1.378-2.832
			c0.36,0,0.705,0.158,0.935,0.385L226.947,515.916z M229.915,518.363c-0.131-0.416-0.098-1.184,0.017-2.064l1.312-9.773h-3.034
			l-0.558,4.225c-0.443-0.496-1.148-0.961-2.164-0.961c-1.657,0-3.329,1.76-3.329,5.184c0,2.48,1.164,3.568,2.427,3.568
			c0.852,0,1.574-0.447,2.131-0.959c0,0.287,0.05,0.543,0.132,0.783h3.066V518.363z M221.677,512.794l0.41-3.008h-0.05
			c-0.951,0-2.033,0.736-2.722,1.775h-0.033l0.214-1.6h-3.034l-1.147,8.4h3.033l0.656-4.77c0.771-0.496,1.738-0.801,2.623-0.801
			h0.05V512.794z M210.514,516.443c-0.819-0.049-1.099-0.783-0.869-2.32c0.263-1.791,0.82-2.305,1.559-2.24
			c0.787,0.064,0.951,0.736,0.738,2.32C211.695,515.996,211.17,516.474,210.514,516.443 M210.251,518.539
			c2.788,0.033,4.673-1.967,4.657-5.232c0-2.176-1.197-3.486-3.575-3.52c-3.017-0.047-4.657,2.145-4.657,5.201
			C206.677,517.13,208.168,518.507,210.251,518.539 M204.942,518.363l0.869-6.336c0.197-1.455-0.426-2.24-1.673-2.24
			c-1.033,0-1.951,0.465-2.886,1.201l0.148-1.025h-3.034l-1.148,8.4h3.034l0.754-5.615c0.41-0.32,0.869-0.561,1.197-0.561
			c0.328,0,0.509,0.225,0.46,0.641l-0.755,5.535H204.942z"/>
	</g>
</g>
<g>
	<g>
		<defs>
			<rect id="SVGID_7_" x="197" y="378" width="127.848" height="125.195"/>
		</defs>
		<clipPath id="SVGID_8_">
			<use xlink:href="#SVGID_7_"  overflow="visible"/>
		</clipPath>
		<path clip-path="url(#SVGID_8_)" fill="#2A4D86" d="M321.427,476.326l-2.691,13.154h-43.254h-1.898H260.83l0.797-7.277
			l-0.198-0.197v0.197c-3.788,5.982-10.465,8.477-17.443,8.477c-11.163,0-17.344-4.986-17.344-15.053
			c0-12.758,12.761-19.039,28.608-19.039c3.586,0,7.173,0.299,9.666,0.5c0.199-0.697,0.199-1.395,0.199-2.096
			c0-3.686-3.687-6.676-9.565-6.676c-6.479,0-10.868,0.996-16.847,4.086l1.795-13.057c5.28-1.795,10.963-2.99,19.035-2.99
			c12.359,0,22.527,4.887,22.527,17.645c0,5.205-1.86,11.834-3.728,20.004l26.149-23.295h-22.227l2.69-13.156h39.899v-59.551H197
			v125.194h127.846v-50.883l-27.143,24.014H321.427L321.427,476.326z"/>
	</g>
	<g>
		<defs>
			<rect id="SVGID_9_" x="197" y="378" width="127.848" height="125.195"/>
		</defs>
		<clipPath id="SVGID_10_">
			<use xlink:href="#SVGID_9_"  overflow="visible"/>
		</clipPath>
		<path clip-path="url(#SVGID_10_)" fill="#2A4D86" d="M243.587,473.533c0,2.395,2.291,5.184,6.08,5.184
			c7.675,0,12.26-5.285,13.553-12.264c-1.489-0.297-3.687-0.297-4.782-0.297C249.867,465.859,243.587,468.947,243.587,473.533"/>
	</g>
	<g>
		<defs>
			<rect id="SVGID_11_" x="197" y="378" width="127.848" height="125.195"/>
		</defs>
		<clipPath id="SVGID_12_">
			<use xlink:href="#SVGID_11_"  overflow="visible"/>
		</clipPath>
		<path clip-path="url(#SVGID_12_)" fill="#FFFFFF" d="M249.667,478.716c-3.788,0-6.079-2.789-6.079-5.184
			c0-4.586,6.28-7.676,14.85-7.377c1.097,0,3.294,0,4.782,0.297C261.926,473.431,257.342,478.716,249.667,478.716 M324.848,437.552
			h-39.9l-2.69,13.154h22.226l-26.148,23.297c1.867-8.17,3.727-14.799,3.727-20.006c0-12.758-10.166-17.643-22.526-17.643
			c-8.072,0-13.755,1.195-19.036,2.99l-1.796,13.057c5.98-3.09,10.367-4.086,16.844-4.086c5.884,0,9.572,2.99,9.572,6.676
			c0,0.701,0,1.398-0.201,2.096c-2.493-0.201-6.081-0.5-9.666-0.5c-15.851,0-28.608,6.281-28.608,19.037
			c0,10.068,6.183,15.055,17.344,15.055c6.978,0,13.655-2.494,17.443-8.477v-0.201l0.198,0.201l-0.797,7.279h12.754h1.898h43.253
			l2.691-13.156h-23.724l27.144-24.014V437.552L324.848,437.552z"/>
	</g>
</g>
<g>
	<g>
		<defs>
			<rect id="SVGID_13_" x="197" y="378" width="729.451" height="141.32"/>
		</defs>
		<clipPath id="SVGID_14_">
			<use xlink:href="#SVGID_13_"  overflow="visible"/>
		</clipPath>
		<path clip-path="url(#SVGID_14_)" d="M608.826,398.407c-1.859,0-3.1-0.177-3.904-0.295V379.94
			c1.488-0.295,3.035-0.472,5.266-0.472c5.02,0,7.932,2.36,7.932,9.381C618.117,395.635,614.896,398.407,608.826,398.407
			 M593.027,418.999h16.604v-0.649l-2.229-0.413c-2.293-0.472-2.48-0.648-2.48-3.658v-14.632c1.611,0.06,3.346,0.118,4.584,0.118
			c3.469,6.726,7.807,14.101,11.586,19.234h10.406v-0.649l-1.115-0.236c-1.115-0.235-1.732-0.53-3.283-2.478
			c-3.033-3.717-7.865-11.859-10.84-17.169v-0.118c5.822-1.77,9.105-4.956,9.105-10.443c0-6.549-4.459-9.794-14.123-9.794h-18.215
			v0.649l2.293,0.413c2.168,0.472,2.477,0.59,2.477,3.658v31.446c0,3.068-0.309,3.187-2.477,3.658l-2.293,0.413V418.999
			L593.027,418.999z M582.41,390.679h-0.682c-0.434,1.77-0.867,3.304-1.486,4.366c-0.867,1.77-1.672,2.064-6.877,2.064h-3.594V380
			c1.799-0.354,3.842-0.531,6.938-0.531c5.576,0,7.062,0.354,8.799,2.95c0.867,1.356,1.92,3.54,3.035,6.018h0.682l-0.682-10.325
			h-30.666v0.649l2.293,0.413c2.229,0.472,2.479,0.648,2.479,3.658v31.446c0,3.01-0.311,3.187-2.479,3.658l-2.293,0.413v0.649
			h31.904l0.865-12.391h-0.74c-1.18,3.009-2.355,6.019-3.779,8.024c-1.859,2.359-2.729,3.009-8.734,3.009
			c-7.311,0-7.621-0.236-7.621-4.72v-14.455h3.594c5.143,0,6.07,0.235,6.877,2.006c0.557,1.121,1.053,2.655,1.486,4.366h0.682
			V390.679z M548.343,419.234h2.416v-35.399c0-3.305,0.373-4.013,2.416-4.543l2.23-0.531v-0.649h-11.584v0.649l2.664,0.531
			c2.293,0.53,2.539,1.18,2.539,4.66v24.014h-0.186l-20.443-29.854h-11.895v0.649l2.168,0.413c1.982,0.413,2.479,0.943,2.479,3.658
			v30.385c0,3.54-0.436,4.071-2.416,4.602l-2.354,0.531v0.649H527.9v-0.649l-2.416-0.531c-2.354-0.59-2.602-1.121-2.602-4.661
			V382.42h0.186L548.343,419.234z M505.759,390.679h-0.68c-0.435,1.77-0.868,3.304-1.488,4.366c-0.867,1.77-1.673,2.064-6.876,2.064
			h-3.593V380c1.796-0.354,3.841-0.531,6.938-0.531c5.576,0,7.062,0.354,8.796,2.95c0.867,1.356,1.922,3.54,3.035,6.018h0.684
			l-0.684-10.325h-30.666v0.649l2.292,0.413c2.231,0.472,2.479,0.648,2.479,3.658v31.446c0,3.01-0.31,3.187-2.479,3.658
			l-2.292,0.413v0.649h31.906l0.867-12.39h-0.744c-1.176,3.009-2.354,6.019-3.779,8.024c-1.855,2.359-2.725,3.009-8.733,3.009
			c-7.311,0-7.619-0.236-7.619-4.72v-14.455h3.593c5.143,0,6.071,0.235,6.876,2.006c0.559,1.121,1.053,2.655,1.487,4.366h0.682
			v-14.159H505.759z M458.581,417.7c-5.514,0-6.195-0.767-6.195-4.483V379.94c1.424-0.354,3.47-0.472,6.071-0.472
			c10.221,0,14.186,5.959,14.186,19.824C472.643,410.09,469.484,417.7,458.581,417.7 M440.491,418.999h18.522
			c12.452,0,21.125-7.08,21.125-20.887c0-14.927-9.044-20.001-20.69-20.001h-18.957v0.649l2.292,0.413
			c2.23,0.413,2.478,0.648,2.478,3.658v31.446c0,3.01-0.247,3.245-2.478,3.658l-2.292,0.413V418.999L440.491,418.999z
			 M416.016,385.781h0.186l5.824,16.992h-12.204L416.016,385.781z M399.041,418.999h11.027v-0.649l-1.672-0.354
			c-1.922-0.473-2.603-1.181-2.603-2.597c0-0.943,0.248-2.242,1.053-4.483l2.416-6.727h13.257l2.727,8.024
			c0.372,1.003,0.805,2.537,0.805,3.422c0,1.18-0.433,1.947-2.478,2.419l-1.424,0.295v0.649h16.416v-0.649l-1.302-0.295
			c-1.796-0.413-2.54-1.475-4.212-6.018l-12.328-33.926h-3.346l-12.699,33.218c-2.045,5.428-2.416,6.136-4.585,6.726l-1.053,0.295
			V418.999z M377.254,397.109V379.94c1.054-0.295,2.85-0.472,4.585-0.472c6.071,0,8.611,2.419,8.611,8.731
			c0,6.195-3.223,8.909-8.611,8.909L377.254,397.109L377.254,397.109z M383.635,417.642c-5.513,0-6.381-0.59-6.381-4.484v-14.632
			h5.39c7,0,9.603,2.832,9.603,9.381C392.246,414.396,389.273,417.642,383.635,417.642 M365.422,418.999h18.399
			c9.788,0,15.921-4.013,15.921-11.506c0-6.194-4.274-9.381-12.452-10.029v-0.118c6.567-1.121,10.222-4.189,10.222-9.617
			c0-6.903-5.761-9.617-15.054-9.617h-17.036v0.649l2.292,0.413c2.23,0.413,2.479,0.648,2.479,3.658v31.446
			c0,3.01-0.248,3.245-2.479,3.658l-2.292,0.413V418.999L365.422,418.999z"/>
	</g>
	<g>
		<defs>
			<rect id="SVGID_15_" x="197" y="378" width="729.451" height="141.32"/>
		</defs>
		<clipPath id="SVGID_16_">
			<use xlink:href="#SVGID_15_"  overflow="visible"/>
		</clipPath>
		<path clip-path="url(#SVGID_16_)" fill="none" stroke="#000000" stroke-width="0.205" stroke-miterlimit="5.592" d="
			M608.826,398.407c-1.859,0-3.1-0.177-3.904-0.295V379.94c1.488-0.295,3.035-0.472,5.266-0.472c5.02,0,7.932,2.36,7.932,9.381
			C618.117,395.635,614.896,398.407,608.826,398.407z M593.027,418.999h16.604v-0.649l-2.229-0.413
			c-2.293-0.472-2.48-0.648-2.48-3.658v-14.632c1.611,0.06,3.346,0.118,4.584,0.118c3.469,6.726,7.807,14.101,11.586,19.234h10.406
			v-0.649l-1.115-0.236c-1.115-0.235-1.732-0.53-3.283-2.478c-3.033-3.717-7.865-11.859-10.84-17.169v-0.118
			c5.822-1.77,9.105-4.956,9.105-10.443c0-6.549-4.459-9.794-14.123-9.794h-18.215v0.649l2.293,0.413
			c2.168,0.472,2.477,0.59,2.477,3.658v31.446c0,3.068-0.309,3.187-2.477,3.658l-2.293,0.413V418.999L593.027,418.999z
			 M582.41,390.679h-0.682c-0.434,1.77-0.867,3.304-1.486,4.366c-0.867,1.77-1.672,2.064-6.877,2.064h-3.594V380
			c1.799-0.354,3.842-0.531,6.938-0.531c5.576,0,7.062,0.354,8.799,2.95c0.867,1.356,1.92,3.54,3.035,6.018h0.682l-0.682-10.325
			h-30.666v0.649l2.293,0.413c2.229,0.472,2.479,0.648,2.479,3.658v31.446c0,3.01-0.311,3.187-2.479,3.658l-2.293,0.413v0.649
			h31.904l0.865-12.391h-0.74c-1.18,3.009-2.355,6.019-3.779,8.024c-1.859,2.359-2.729,3.009-8.734,3.009
			c-7.311,0-7.621-0.236-7.621-4.72v-14.455h3.594c5.143,0,6.07,0.235,6.877,2.006c0.557,1.121,1.053,2.655,1.486,4.366h0.682
			V390.679z M548.343,419.234h2.416v-35.399c0-3.305,0.373-4.013,2.416-4.543l2.23-0.531v-0.649h-11.584v0.649l2.664,0.531
			c2.293,0.53,2.539,1.18,2.539,4.66v24.014h-0.186l-20.443-29.854h-11.895v0.649l2.168,0.413c1.982,0.413,2.479,0.943,2.479,3.658
			v30.385c0,3.54-0.436,4.071-2.416,4.602l-2.354,0.531v0.649H527.9v-0.649l-2.416-0.531c-2.354-0.59-2.602-1.121-2.602-4.661
			V382.42h0.186L548.343,419.234z M505.759,390.679h-0.68c-0.435,1.77-0.868,3.304-1.488,4.366c-0.867,1.77-1.673,2.064-6.876,2.064
			h-3.593V380c1.796-0.354,3.841-0.531,6.938-0.531c5.576,0,7.062,0.354,8.796,2.95c0.867,1.356,1.922,3.54,3.035,6.018h0.684
			l-0.684-10.325h-30.666v0.649l2.292,0.413c2.231,0.472,2.479,0.648,2.479,3.658v31.446c0,3.01-0.31,3.187-2.479,3.658
			l-2.292,0.413v0.649h31.906l0.867-12.39h-0.744c-1.176,3.009-2.354,6.019-3.779,8.024c-1.855,2.359-2.725,3.009-8.733,3.009
			c-7.311,0-7.619-0.236-7.619-4.72v-14.455h3.593c5.143,0,6.071,0.235,6.876,2.006c0.559,1.121,1.053,2.655,1.487,4.366h0.682
			v-14.159H505.759z M458.581,417.7c-5.514,0-6.195-0.767-6.195-4.483V379.94c1.424-0.354,3.47-0.472,6.071-0.472
			c10.221,0,14.186,5.959,14.186,19.824C472.643,410.09,469.484,417.7,458.581,417.7z M440.491,418.999h18.522
			c12.452,0,21.125-7.08,21.125-20.887c0-14.927-9.044-20.001-20.69-20.001h-18.957v0.649l2.292,0.413
			c2.23,0.413,2.478,0.648,2.478,3.658v31.446c0,3.01-0.247,3.245-2.478,3.658l-2.292,0.413V418.999L440.491,418.999z
			 M416.016,385.781h0.186l5.824,16.992h-12.204L416.016,385.781z M399.041,418.999h11.027v-0.649l-1.672-0.354
			c-1.922-0.473-2.603-1.181-2.603-2.597c0-0.943,0.248-2.242,1.053-4.483l2.416-6.727h13.257l2.727,8.024
			c0.372,1.003,0.805,2.537,0.805,3.422c0,1.18-0.433,1.947-2.478,2.419l-1.424,0.295v0.649h16.416v-0.649l-1.302-0.295
			c-1.796-0.413-2.54-1.475-4.212-6.018l-12.328-33.926h-3.346l-12.699,33.218c-2.045,5.428-2.416,6.136-4.585,6.726l-1.053,0.295
			V418.999z M377.254,397.109V379.94c1.054-0.295,2.85-0.472,4.585-0.472c6.071,0,8.611,2.419,8.611,8.731
			c0,6.195-3.223,8.909-8.611,8.909L377.254,397.109L377.254,397.109z M383.635,417.642c-5.513,0-6.381-0.59-6.381-4.484v-14.632
			h5.39c7,0,9.603,2.832,9.603,9.381C392.246,414.396,389.273,417.642,383.635,417.642z M365.422,418.999h18.399
			c9.788,0,15.921-4.013,15.921-11.506c0-6.194-4.274-9.381-12.452-10.029v-0.118c6.567-1.121,10.222-4.189,10.222-9.617
			c0-6.903-5.761-9.617-15.054-9.617h-17.036v0.649l2.292,0.413c2.23,0.413,2.479,0.648,2.479,3.658v31.446
			c0,3.01-0.248,3.245-2.479,3.658l-2.292,0.413V418.999L365.422,418.999z"/>
	</g>
</g>
</svg>
