<!-- Generator: Adobe Illustrator 16.0.4, SVG Export Plug-In . SVG Version: 6.00 Build 0)  -->
<!DOCTYPE svg PUBLIC "-//W3C//DTD SVG 1.1//EN" "http://www.w3.org/Graphics/SVG/1.1/DTD/svg11.dtd">
<svg version="1.1" id="Ebene_1" xmlns="http://www.w3.org/2000/svg" xmlns:xlink="http://www.w3.org/1999/xlink" x="0px" y="0px"
	 width="734.775px" height="141.319px" viewBox="288 360.571 734.775 141.319" enable-background="new 288 360.571 734.775 141.319"
	 xml:space="preserve">
<g>
	<g>
		<defs>
			<rect id="SVGID_1_" x="288" y="359.99" width="729.451" height="141.9"/>
		</defs>
		<clipPath id="SVGID_2_">
			<use xlink:href="#SVGID_1_"  overflow="visible"/>
		</clipPath>
		<path clip-path="url(#SVGID_2_)" d="M994.15,420.174c10.939,0,12.574,2.037,15.344,7.544c1.885,3.834,4.148,8.984,6.287,14.492
			h1.508l-1.256-24.671H949.38l-1.383,24.671h1.51c2.264-5.508,4.527-10.658,6.539-14.492c2.641-5.389,4.402-7.544,15.342-7.544
			h4.15v70.783c0,6.109-0.504,6.588-5.281,7.426l-4.779,0.838v1.318h34.457v-1.318l-4.652-0.838
			c-5.029-0.959-5.406-1.438-5.406-7.426v-70.783H994.15z M921.037,420.174c10.939,0,12.576,2.037,15.342,7.544
			c1.887,3.834,4.15,8.984,6.289,14.492h1.508l-1.258-24.671h-66.65l-1.383,24.671h1.508c2.266-5.508,4.529-10.658,6.541-14.492
			c2.643-5.389,4.4-7.544,15.344-7.544h4.148v70.783c0,6.109-0.504,6.588-5.283,7.426l-4.777,0.838v1.318h34.459v-1.318
			l-4.654-0.838c-5.031-0.959-5.408-1.438-5.408-7.426v-70.783H921.037z M837.423,433.109h0.377l11.822,34.494h-24.775
			L837.423,433.109z M802.966,500.539h22.385v-1.318l-3.395-0.719c-3.898-0.957-5.283-2.395-5.283-5.27
			c0-1.916,0.504-4.551,2.139-9.102l4.904-13.654h26.912l5.533,16.289c0.754,2.035,1.635,5.15,1.635,6.945
			c0,2.396-0.881,3.953-5.029,4.912l-2.893,0.598v1.318h33.324v-1.318l-2.643-0.598c-3.645-0.838-5.154-2.994-8.551-12.217
			L846.98,417.54h-6.791l-25.779,67.428c-4.15,11.021-4.904,12.455-9.307,13.654l-2.139,0.598v1.318H802.966z M736.292,500.539
			h62.625l1.762-26.109h-1.635c-2.391,6.469-4.904,12.219-7.42,16.527c-3.521,5.869-6.037,6.947-17.984,6.947
			c-12.572,0-13.203-1.438-13.203-8.145v-62.639c0-6.11,0.504-6.708,5.156-7.426l4.652-0.838v-1.318h-33.953v1.318l4.652,0.838
			c4.527,0.838,5.029,1.316,5.029,7.426v63.836c0,6.109-0.629,6.588-5.029,7.426l-4.652,0.838V500.539L736.292,500.539z
			 M689.185,456.105v-34.853c2.139-0.599,5.785-0.958,9.309-0.958c12.324,0,17.479,4.911,17.479,17.725
			c0,12.576-6.541,18.086-17.479,18.086H689.185z M702.138,497.785c-11.191,0-12.953-1.199-12.953-9.104V458.98h10.941
			c14.211,0,19.492,5.748,19.492,19.043C719.619,491.197,713.582,497.785,702.138,497.785 M665.166,500.539h37.35
			c19.869,0,32.32-8.145,32.32-23.355c0-12.572-8.678-19.043-25.277-20.357v-0.24c13.33-2.275,20.75-8.504,20.75-19.521
			c0-14.014-11.695-19.523-30.559-19.523h-34.584v1.318l4.652,0.838c4.527,0.838,5.031,1.316,5.031,7.426v63.836
			c0,6.109-0.504,6.588-5.031,7.426l-4.652,0.838V500.539L665.166,500.539z M629.378,501.736c12.701,0,23.139-2.635,28.547-4.551
			v-21.559c0-5.031,0.377-5.988,3.396-6.467l4.525-0.838v-1.318h-31.689v1.318l4.777,0.838c4.654,0.838,5.031,1.436,5.031,7.426
			v19.162c-3.018,1.797-8.049,3.354-15.092,3.354c-19.365,0-26.66-14.252-26.66-42.158c0-27.666,10.941-37.966,27.793-37.966
			c8.803,0,12.826,2.155,17.104,7.784c3.52,4.672,5.154,8.623,7.797,14.492h1.383l-1.258-22.038
			c-6.162-1.916-14.084-2.875-23.77-2.875c-21.252,0-44.013,9.702-44.013,43.477C587.25,487.962,602.466,501.736,629.378,501.736
			 M545.979,433.109h0.377l11.821,34.494h-24.773L545.979,433.109z M511.521,500.539h22.385v-1.318l-3.396-0.719
			c-3.897-0.957-5.281-2.395-5.281-5.27c0-1.916,0.504-4.551,2.138-9.102l4.905-13.654h26.911l5.533,16.289
			c0.754,2.035,1.636,5.15,1.636,6.945c0,2.396-0.882,3.953-5.031,4.912l-2.893,0.598v1.318h33.325v-1.318l-2.64-0.598
			c-3.647-0.838-5.156-2.994-8.553-12.217l-25.024-68.868h-6.791l-25.78,67.428c-4.15,11.021-4.905,12.455-9.306,13.654
			l-2.139,0.598L511.521,500.539L511.521,500.539z M497.362,420.174c10.94,0,12.575,2.037,15.342,7.544
			c1.887,3.834,4.149,8.984,6.288,14.492h1.509l-1.257-24.671h-66.651l-1.384,24.671h1.51c2.264-5.508,4.527-10.658,6.539-14.492
			c2.642-5.389,4.401-7.544,15.342-7.544h4.15v70.783c0,6.109-0.503,6.588-5.282,7.426l-4.778,0.838v1.318h34.457v-1.318
			l-4.652-0.838c-5.03-0.959-5.408-1.438-5.408-7.426v-70.783H497.362z"/>
	</g>
	<g>
		<defs>
			<rect id="SVGID_3_" x="288" y="359.99" width="729.451" height="141.9"/>
		</defs>
		<clipPath id="SVGID_4_">
			<use xlink:href="#SVGID_3_"  overflow="visible"/>
		</clipPath>
		<path clip-path="url(#SVGID_4_)" fill="none" stroke="#000000" stroke-width="0.307" stroke-miterlimit="5.592" d="
			M994.15,420.174c10.939,0,12.574,2.037,15.344,7.544c1.885,3.834,4.148,8.984,6.287,14.492h1.508l-1.256-24.671H949.38
			l-1.383,24.671h1.51c2.264-5.508,4.527-10.658,6.539-14.492c2.641-5.389,4.402-7.544,15.342-7.544h4.15v70.783
			c0,6.109-0.504,6.588-5.281,7.426l-4.779,0.838v1.318h34.457v-1.318l-4.652-0.838c-5.029-0.959-5.406-1.438-5.406-7.426v-70.783
			H994.15z M921.037,420.174c10.939,0,12.576,2.037,15.342,7.544c1.887,3.834,4.15,8.984,6.289,14.492h1.508l-1.258-24.671h-66.65
			l-1.383,24.671h1.508c2.266-5.508,4.529-10.658,6.541-14.492c2.643-5.389,4.4-7.544,15.344-7.544h4.148v70.783
			c0,6.109-0.504,6.588-5.283,7.426l-4.777,0.838v1.318h34.459v-1.318l-4.654-0.838c-5.031-0.959-5.408-1.438-5.408-7.426v-70.783
			H921.037z M837.423,433.109h0.377l11.822,34.494h-24.775L837.423,433.109z M802.966,500.539h22.385v-1.318l-3.395-0.719
			c-3.898-0.957-5.283-2.395-5.283-5.27c0-1.916,0.504-4.551,2.139-9.102l4.904-13.654h26.912l5.533,16.289
			c0.754,2.035,1.635,5.15,1.635,6.945c0,2.396-0.881,3.953-5.029,4.912l-2.893,0.598v1.318h33.324v-1.318l-2.643-0.598
			c-3.645-0.838-5.154-2.994-8.551-12.217L846.98,417.54h-6.791l-25.779,67.428c-4.15,11.021-4.904,12.455-9.307,13.654
			l-2.139,0.598v1.318H802.966z M736.292,500.539h62.625l1.762-26.109h-1.635c-2.391,6.469-4.904,12.219-7.42,16.527
			c-3.521,5.869-6.037,6.947-17.984,6.947c-12.572,0-13.203-1.438-13.203-8.145v-62.639c0-6.11,0.504-6.708,5.156-7.426l4.652-0.838
			v-1.318h-33.953v1.318l4.652,0.838c4.527,0.838,5.029,1.316,5.029,7.426v63.836c0,6.109-0.629,6.588-5.029,7.426l-4.652,0.838
			V500.539L736.292,500.539z M689.185,456.105v-34.853c2.139-0.599,5.785-0.958,9.309-0.958c12.324,0,17.479,4.911,17.479,17.725
			c0,12.576-6.541,18.086-17.479,18.086H689.185z M702.138,497.785c-11.191,0-12.953-1.199-12.953-9.104V458.98h10.941
			c14.211,0,19.492,5.748,19.492,19.043C719.619,491.197,713.582,497.785,702.138,497.785z M665.166,500.539h37.35
			c19.869,0,32.32-8.145,32.32-23.355c0-12.572-8.678-19.043-25.277-20.357v-0.24c13.33-2.275,20.75-8.504,20.75-19.521
			c0-14.014-11.695-19.523-30.559-19.523h-34.584v1.318l4.652,0.838c4.527,0.838,5.031,1.316,5.031,7.426v63.836
			c0,6.109-0.504,6.588-5.031,7.426l-4.652,0.838V500.539L665.166,500.539z M629.378,501.736c12.701,0,23.139-2.635,28.547-4.551
			v-21.559c0-5.031,0.377-5.988,3.396-6.467l4.525-0.838v-1.318h-31.689v1.318l4.777,0.838c4.654,0.838,5.031,1.436,5.031,7.426
			v19.162c-3.018,1.797-8.049,3.354-15.092,3.354c-19.365,0-26.66-14.252-26.66-42.158c0-27.666,10.941-37.966,27.793-37.966
			c8.803,0,12.826,2.155,17.104,7.784c3.52,4.672,5.154,8.623,7.797,14.492h1.383l-1.258-22.038
			c-6.162-1.916-14.084-2.875-23.77-2.875c-21.252,0-44.013,9.702-44.013,43.477C587.25,487.962,602.466,501.736,629.378,501.736z
			 M545.979,433.109h0.377l11.821,34.494h-24.773L545.979,433.109z M511.521,500.539h22.385v-1.318l-3.396-0.719
			c-3.897-0.957-5.281-2.395-5.281-5.27c0-1.916,0.504-4.551,2.138-9.102l4.905-13.654h26.911l5.533,16.289
			c0.754,2.035,1.636,5.15,1.636,6.945c0,2.396-0.882,3.953-5.031,4.912l-2.893,0.598v1.318h33.325v-1.318l-2.64-0.598
			c-3.647-0.838-5.156-2.994-8.553-12.217l-25.024-68.868h-6.791l-25.78,67.428c-4.15,11.021-4.905,12.455-9.306,13.654
			l-2.139,0.598L511.521,500.539L511.521,500.539z M497.362,420.174c10.94,0,12.575,2.037,15.342,7.544
			c1.887,3.834,4.149,8.984,6.288,14.492h1.509l-1.257-24.671h-66.651l-1.384,24.671h1.51c2.264-5.508,4.527-10.658,6.539-14.492
			c2.642-5.389,4.401-7.544,15.342-7.544h4.15v70.783c0,6.109-0.503,6.588-5.282,7.426l-4.778,0.838v1.318h34.457v-1.318
			l-4.652-0.838c-5.03-0.959-5.408-1.438-5.408-7.426v-70.783H497.362z"/>
	</g>
	<g>
		<defs>
			<rect id="SVGID_5_" x="288" y="359.99" width="729.451" height="141.9"/>
		</defs>
		<clipPath id="SVGID_6_">
			<use xlink:href="#SVGID_5_"  overflow="visible"/>
		</clipPath>
		<path clip-path="url(#SVGID_6_)" fill="#2A4D86" d="M414.309,500.933l0.295-2.109h-3.509l4.067-4.24l0.295-2.049h-6.756
			l-0.312,2.113h3.313l-4.067,4.236l-0.278,2.049H414.309L414.309,500.933z M406.072,500.933l1.147-8.398h-3.034l-1.147,8.398
			H406.072z M407.319,491.685l0.344-2.592h-3.034l-0.344,2.592H407.319z M399.728,495.716h-2.197
			c0.213-1.008,0.705-1.438,1.278-1.438C399.482,494.277,399.843,494.708,399.728,495.716 M402.483,496.646
			c0.311-2.178-0.82-4.289-3.429-4.289c-3.083,0-4.591,2.336-4.591,5.088c0,2.129,1.328,3.664,3.788,3.664
			c1.984,0,3.083-0.783,3.952-1.729l-1.361-1.311c-0.541,0.479-1.05,0.895-2.034,0.895c-0.95,0-1.541-0.479-1.508-1.584h5.067
			C402.401,497.142,402.434,496.964,402.483,496.646 M394.887,492.533h-2.558l-1.559,4.129h-0.032l-0.508-4.129h-2.231l-1.721,4.129
			h-0.033l-0.345-4.129h-3.001l1.427,8.4h2.361l1.656-4.207h0.033l0.442,4.207h2.378L394.887,492.533z M381.042,500.933l0.869-6.398
			c0.197-1.455-0.344-2.176-1.607-2.176c-1.032,0-1.935,0.445-2.951,1.199l0.591-4.465h-3.034l-1.59,11.84h3.032l0.756-5.613
			c0.377-0.32,0.819-0.562,1.196-0.562c0.345,0,0.508,0.207,0.459,0.576l-0.754,5.6H381.042z M372.59,498.501l-2.197-1.152
			c-0.46,1.199-0.869,1.555-1.427,1.555c-0.541,0-0.901-0.576-0.901-1.441c0-1.551,0.442-2.928,1.377-2.928
			c0.655,0,0.951,0.561,1.033,1.311l2.51-0.861c-0.23-1.521-1.247-2.625-3.493-2.625c-2.772,0-4.362,2.158-4.362,5.041
			c0,1.854,0.984,3.711,3.559,3.711C370.753,501.109,372.016,499.941,372.59,498.501 M364.446,497.925
			c0-1.328-0.655-1.951-3.246-2.625c-0.574-0.143-0.738-0.303-0.722-0.543c0.016-0.256,0.344-0.432,0.853-0.416
			c0.525,0,1.229,0.191,1.984,0.689l1.427-1.408c-1.115-0.863-2.345-1.264-3.526-1.264c-2.001,0-3.657,1.057-3.657,2.848
			c0,1.537,0.902,2.209,3.198,2.928c0.689,0.209,0.771,0.32,0.771,0.576s-0.296,0.449-0.82,0.465
			c-0.656,0.016-1.591-0.271-2.313-1.041l-1.622,1.232c0.95,1.184,2.46,1.744,3.902,1.744
			C362.643,501.109,364.446,499.974,364.446,497.925 M355.841,500.949l0.295-2.16c-0.229,0.049-0.426,0.08-0.754,0.08
			c-0.574,0-0.788-0.336-0.706-0.928l0.428-3.295h1.491l0.312-2.113h-1.493l0.361-2.752h-2.984l-0.361,2.752h-0.869l-0.312,2.113
			h0.869c0,0-0.426,3.008-0.492,3.439c-0.279,1.84,0.443,2.959,2.591,2.959C354.922,501.044,355.447,501.013,355.841,500.949
			 M350.316,497.925c0-1.328-0.656-1.951-3.247-2.625c-0.574-0.143-0.738-0.303-0.722-0.543c0.017-0.256,0.345-0.432,0.853-0.416
			c0.524,0,1.229,0.191,1.984,0.689l1.427-1.408c-1.115-0.863-2.346-1.264-3.525-1.264c-2.001,0-3.657,1.057-3.657,2.848
			c0,1.537,0.902,2.209,3.197,2.928c0.688,0.209,0.771,0.32,0.771,0.576s-0.295,0.449-0.819,0.465
			c-0.656,0.016-1.591-0.271-2.312-1.041l-1.624,1.232c0.952,1.184,2.46,1.744,3.903,1.744
			C348.512,501.109,350.316,499.974,350.316,497.925 M339.478,495.716h-2.196c0.213-1.008,0.705-1.438,1.278-1.438
			C339.232,494.277,339.593,494.708,339.478,495.716 M342.233,496.646c0.312-2.178-0.82-4.289-3.428-4.289
			c-3.083,0-4.592,2.336-4.592,5.088c0,2.129,1.329,3.664,3.788,3.664c1.985,0,3.083-0.783,3.953-1.729l-1.362-1.311
			c-0.541,0.479-1.049,0.895-2.033,0.895c-0.95,0-1.541-0.479-1.509-1.584h5.067C342.151,497.142,342.184,496.964,342.233,496.646
			 M334.688,492.533h-2.56l-1.557,4.129h-0.033l-0.509-4.129h-2.23l-1.722,4.129h-0.032l-0.345-4.129h-3.001l1.427,8.4h2.361
			l1.656-4.207h0.032l0.443,4.207h2.378L334.688,492.533z M317.947,498.486c-0.246,0.223-0.558,0.383-0.854,0.383
			c-0.508,0-0.983-0.352-0.983-1.439c0-1.936,0.64-2.832,1.378-2.832c0.36,0,0.705,0.16,0.935,0.387L317.947,498.486z
			 M320.915,500.933c-0.131-0.416-0.098-1.184,0.017-2.062l1.312-9.775h-3.034l-0.558,4.225c-0.443-0.496-1.148-0.961-2.164-0.961
			c-1.657,0-3.329,1.76-3.329,5.184c0,2.48,1.164,3.568,2.427,3.568c0.852,0,1.574-0.447,2.131-0.959
			c0,0.287,0.05,0.543,0.132,0.783h3.066V500.933z M312.677,495.365l0.41-3.008h-0.05c-0.951,0-2.033,0.736-2.722,1.775h-0.033
			l0.214-1.6h-3.034l-1.147,8.398h3.033l0.656-4.768c0.771-0.496,1.738-0.801,2.623-0.801h0.05V495.365z M301.514,499.013
			c-0.819-0.049-1.099-0.781-0.869-2.318c0.263-1.791,0.82-2.307,1.559-2.24c0.787,0.062,0.951,0.736,0.738,2.32
			C302.695,498.566,302.17,499.044,301.514,499.013 M301.251,501.109c2.788,0.033,4.673-1.967,4.657-5.232
			c0-2.176-1.197-3.488-3.575-3.52c-3.017-0.047-4.657,2.145-4.657,5.201C297.677,499.701,299.168,501.078,301.251,501.109
			 M295.942,500.933l0.869-6.336c0.197-1.455-0.426-2.238-1.673-2.238c-1.033,0-1.951,0.465-2.886,1.199l0.148-1.023h-3.034
			l-1.148,8.398h3.034l0.754-5.613c0.41-0.32,0.869-0.562,1.197-0.562c0.328,0,0.509,0.227,0.46,0.643l-0.755,5.533H295.942z"/>
	</g>
</g>
<g>
	<g>
		<defs>
			<rect id="SVGID_7_" x="288" y="360.571" width="127.848" height="125.194"/>
		</defs>
		<clipPath id="SVGID_8_">
			<use xlink:href="#SVGID_7_"  overflow="visible"/>
		</clipPath>
		<path clip-path="url(#SVGID_8_)" fill="#2A4D86" d="M412.427,458.896l-2.691,13.154h-43.254h-1.898H351.83l0.797-7.277
			l-0.198-0.197v0.197c-3.788,5.982-10.465,8.477-17.443,8.477c-11.163,0-17.344-4.988-17.344-15.053
			c0-12.758,12.761-19.039,28.608-19.039c3.586,0,7.173,0.299,9.666,0.5c0.199-0.697,0.199-1.395,0.199-2.096
			c0-3.686-3.687-6.676-9.565-6.676c-6.479,0-10.868,0.996-16.847,4.086l1.795-13.057c5.28-1.793,10.963-2.99,19.035-2.99
			c12.359,0,22.527,4.886,22.527,17.644c0,5.205-1.86,11.834-3.728,20.004l26.149-23.295h-22.227l2.69-13.157h39.899v-59.551H288
			v125.194h127.846v-50.883l-27.143,24.014H412.427L412.427,458.896z"/>
	</g>
	<g>
		<defs>
			<rect id="SVGID_9_" x="288" y="360.571" width="127.848" height="125.194"/>
		</defs>
		<clipPath id="SVGID_10_">
			<use xlink:href="#SVGID_9_"  overflow="visible"/>
		</clipPath>
		<path clip-path="url(#SVGID_10_)" fill="#2A4D86" d="M334.587,456.103c0,2.396,2.291,5.186,6.08,5.186
			c7.675,0,12.26-5.285,13.553-12.264c-1.489-0.297-3.687-0.297-4.782-0.297C340.867,448.429,334.587,451.517,334.587,456.103"/>
	</g>
	<g>
		<defs>
			<rect id="SVGID_11_" x="288" y="360.571" width="127.848" height="125.194"/>
		</defs>
		<clipPath id="SVGID_12_">
			<use xlink:href="#SVGID_11_"  overflow="visible"/>
		</clipPath>
		<path clip-path="url(#SVGID_12_)" fill="#FFFFFF" d="M340.667,461.287c-3.788,0-6.079-2.789-6.079-5.184
			c0-4.586,6.28-7.676,14.85-7.377c1.097,0,3.294,0,4.782,0.297C352.926,456.001,348.342,461.287,340.667,461.287 M415.848,420.123
			h-39.9l-2.69,13.156h22.226l-26.148,23.297c1.867-8.17,3.727-14.799,3.727-20.006c0-12.76-10.166-17.643-22.526-17.643
			c-8.072,0-13.755,1.196-19.036,2.991l-1.796,13.055c5.98-3.09,10.367-4.086,16.844-4.086c5.884,0,9.572,2.99,9.572,6.676
			c0,0.701,0,1.398-0.201,2.098c-2.493-0.201-6.081-0.5-9.666-0.5c-15.851,0-28.608,6.281-28.608,19.037
			c0,10.066,6.183,15.055,17.344,15.055c6.978,0,13.655-2.494,17.443-8.477v-0.201l0.198,0.201l-0.797,7.277h12.754h1.898h43.253
			l2.691-13.156h-23.724l27.144-24.014V420.123L415.848,420.123z"/>
	</g>
</g>
<g>
	<g>
		<defs>
			<rect id="SVGID_13_" x="288" y="359.99" width="729.451" height="141.9"/>
		</defs>
		<clipPath id="SVGID_14_">
			<use xlink:href="#SVGID_13_"  overflow="visible"/>
		</clipPath>
		<path clip-path="url(#SVGID_14_)" d="M784.669,380.978c-1.859,0-3.098-0.177-3.902-0.295v-18.172
			c1.486-0.295,3.035-0.472,5.268-0.472c5.018,0,7.928,2.36,7.928,9.381C793.962,378.206,790.74,380.978,784.669,380.978
			 M768.873,401.57h16.602v-0.649l-2.229-0.413c-2.291-0.472-2.479-0.648-2.479-3.658v-14.632c1.611,0.06,3.346,0.118,4.584,0.118
			c3.471,6.726,7.807,14.101,11.584,19.234h10.408v-0.649l-1.115-0.236c-1.113-0.235-1.732-0.53-3.281-2.478
			c-3.035-3.717-7.869-11.859-10.844-17.169v-0.118c5.824-1.77,9.107-4.956,9.107-10.443c0-6.549-4.461-9.794-14.125-9.794h-18.213
			v0.649l2.291,0.413c2.168,0.472,2.479,0.59,2.479,3.658v31.446c0,3.068-0.311,3.187-2.479,3.658l-2.291,0.413V401.57z
			 M758.255,373.25h-0.682c-0.436,1.77-0.869,3.304-1.486,4.366c-0.867,1.77-1.674,2.064-6.879,2.064h-3.592v-17.109
			c1.797-0.354,3.84-0.531,6.938-0.531c5.576,0,7.062,0.354,8.797,2.95c0.867,1.356,1.92,3.54,3.035,6.018h0.684l-0.684-10.325
			h-30.664v0.649l2.291,0.413c2.23,0.472,2.479,0.648,2.479,3.658v31.446c0,3.01-0.311,3.187-2.479,3.658l-2.291,0.413v0.649h31.904
			l0.867-12.391h-0.744c-1.176,3.009-2.355,6.019-3.779,8.024c-1.857,2.359-2.725,3.009-8.734,3.009
			c-7.311,0-7.619-0.236-7.619-4.72v-14.455h3.592c5.143,0,6.072,0.236,6.879,2.006c0.557,1.121,1.053,2.655,1.486,4.366h0.682
			V373.25L758.255,373.25z M724.187,401.805h2.416v-35.399c0-3.305,0.373-4.013,2.416-4.543l2.232-0.531v-0.649h-11.586v0.649
			l2.664,0.531c2.293,0.53,2.541,1.18,2.541,4.66v24.014h-0.188l-20.443-29.854h-11.895v0.649l2.168,0.413
			c1.982,0.413,2.479,0.943,2.479,3.658v30.385c0,3.54-0.434,4.071-2.416,4.602l-2.355,0.531v0.649h11.523v-0.649l-2.416-0.531
			c-2.354-0.59-2.604-1.121-2.604-4.661V364.99h0.188L724.187,401.805z M647.378,401.57h16.604v-0.649l-2.168-0.413
			c-2.355-0.472-2.541-0.648-2.541-3.658v-15.458h18.586v15.458c0,3.01-0.246,3.187-2.539,3.658l-2.23,0.413v0.649h16.664v-0.649
			l-2.354-0.413c-2.168-0.413-2.416-0.648-2.416-3.658v-31.446c0-3.01,0.248-3.245,2.416-3.658l2.354-0.413v-0.649h-16.664v0.649
			l2.23,0.413c2.293,0.472,2.539,0.648,2.539,3.658v14.572h-18.586v-14.572c0-3.01,0.188-3.188,2.541-3.658l2.168-0.413v-0.649
			h-16.604v0.649l2.293,0.413c2.229,0.413,2.479,0.648,2.479,3.658v31.446c0,3.01-0.248,3.245-2.479,3.658l-2.293,0.413V401.57z
			 M630.398,402.16c6.133,0,10.594-1.003,13.566-2.184l0.744-10.915h-0.744c-1.115,2.419-2.168,5.074-3.344,7.08
			c-2.107,3.776-4.152,4.721-9.852,4.721c-7.807,0-11.955-6.077-11.955-20.532c0-13.394,5.449-18.939,13.07-18.939
			c4.273,0,6.07,0.826,8.238,4.426c1.363,2.183,2.293,4.188,3.531,6.667h0.744l-0.807-11.033c-2.602-0.708-6.318-1.357-11.088-1.357
			c-11.027,0-21.188,5.664-21.188,21.358C611.318,396.141,619.31,402.16,630.398,402.16 M602.968,401.805h2.416v-35.399
			c0-3.305,0.371-4.013,2.416-4.543l2.23-0.531v-0.649h-11.586v0.649l2.664,0.531c2.293,0.53,2.541,1.18,2.541,4.66v24.014h-0.188
			l-20.443-29.854h-11.895v0.649l2.168,0.413c1.983,0.413,2.479,0.943,2.479,3.658v30.385c0,3.54-0.434,4.071-2.416,4.602
			l-2.354,0.531v0.649h11.523v-0.649l-2.416-0.531c-2.354-0.59-2.603-1.121-2.603-4.661V364.99h0.187L602.968,401.805z
			 M560.385,373.25h-0.682c-0.434,1.77-0.867,3.304-1.486,4.366c-0.868,1.77-1.673,2.064-6.877,2.064h-3.593v-17.109
			c1.797-0.354,3.841-0.531,6.938-0.531c5.576,0,7.063,0.354,8.798,2.95c0.867,1.356,1.921,3.54,3.035,6.018h0.682l-0.682-10.325
			h-30.665v0.649l2.292,0.413c2.23,0.472,2.479,0.648,2.479,3.658v31.446c0,3.01-0.311,3.187-2.479,3.658l-2.292,0.413v0.649h31.904
			l0.867-12.391h-0.743c-1.177,3.009-2.354,6.019-3.779,8.024c-1.858,2.359-2.726,3.009-8.734,3.009c-7.311,0-7.62-0.236-7.62-4.72
			v-14.455h3.593c5.143,0,6.071,0.236,6.877,2.006c0.558,1.121,1.053,2.655,1.486,4.366h0.682V373.25L560.385,373.25z
			 M511.594,380.978c-1.858,0-3.098-0.177-3.902-0.295v-18.172c1.486-0.295,3.035-0.472,5.266-0.472c5.018,0,7.929,2.36,7.929,9.381
			C520.886,378.206,517.665,380.978,511.594,380.978 M495.797,401.57h16.603v-0.649l-2.23-0.413
			c-2.292-0.472-2.478-0.648-2.478-3.658v-14.632c1.61,0.06,3.345,0.118,4.584,0.118c3.47,6.726,7.806,14.101,11.585,19.234h10.407
			v-0.649l-1.114-0.236c-1.116-0.235-1.735-0.53-3.284-2.478c-3.035-3.717-7.867-11.859-10.841-17.169v-0.118
			c5.822-1.77,9.106-4.956,9.106-10.443c0-6.549-4.461-9.794-14.125-9.794h-18.213v0.649l2.292,0.413
			c2.168,0.472,2.479,0.59,2.479,3.658v31.446c0,3.068-0.311,3.187-2.479,3.658l-2.292,0.413V401.57z M477.98,402.16
			c6.257,0,11.398-1.298,14.062-2.242v-10.62c0-2.478,0.186-2.95,1.672-3.186l2.23-0.413v-0.649h-15.611v0.649l2.354,0.413
			c2.292,0.413,2.478,0.708,2.478,3.657v9.44c-1.487,0.885-3.965,1.652-7.434,1.652c-9.54,0-13.134-7.021-13.134-20.769
			c0-13.629,5.39-18.703,13.691-18.703c4.336,0,6.319,1.062,8.425,3.835c1.735,2.302,2.54,4.248,3.841,7.14h0.682l-0.619-10.856
			c-3.036-0.944-6.939-1.416-11.709-1.416c-10.469,0-21.683,4.779-21.683,21.417C457.228,395.375,464.724,402.16,477.98,402.16"/>
	</g>
	<g>
		<defs>
			<rect id="SVGID_15_" x="288" y="359.99" width="729.451" height="141.9"/>
		</defs>
		<clipPath id="SVGID_16_">
			<use xlink:href="#SVGID_15_"  overflow="visible"/>
		</clipPath>
		<path clip-path="url(#SVGID_16_)" fill="none" stroke="#000000" stroke-width="0.205" stroke-miterlimit="5.592" d="
			M784.669,380.978c-1.859,0-3.098-0.177-3.902-0.295v-18.172c1.486-0.295,3.035-0.472,5.268-0.472c5.018,0,7.928,2.36,7.928,9.381
			C793.962,378.206,790.74,380.978,784.669,380.978z M768.873,401.57h16.602v-0.649l-2.229-0.413
			c-2.291-0.472-2.479-0.648-2.479-3.658v-14.632c1.611,0.06,3.346,0.118,4.584,0.118c3.471,6.726,7.807,14.101,11.584,19.234
			h10.408v-0.649l-1.115-0.236c-1.113-0.235-1.732-0.53-3.281-2.478c-3.035-3.717-7.869-11.859-10.844-17.169v-0.118
			c5.824-1.77,9.107-4.956,9.107-10.443c0-6.549-4.461-9.794-14.125-9.794h-18.213v0.649l2.291,0.413
			c2.168,0.472,2.479,0.59,2.479,3.658v31.446c0,3.068-0.311,3.187-2.479,3.658l-2.291,0.413V401.57z M758.255,373.25h-0.682
			c-0.436,1.77-0.869,3.304-1.486,4.366c-0.867,1.77-1.674,2.064-6.879,2.064h-3.592v-17.109c1.797-0.354,3.84-0.531,6.938-0.531
			c5.576,0,7.062,0.354,8.797,2.95c0.867,1.356,1.92,3.54,3.035,6.018h0.684l-0.684-10.325h-30.664v0.649l2.291,0.413
			c2.23,0.472,2.479,0.648,2.479,3.658v31.446c0,3.01-0.311,3.187-2.479,3.658l-2.291,0.413v0.649h31.904l0.867-12.391h-0.744
			c-1.176,3.009-2.355,6.019-3.779,8.024c-1.857,2.359-2.725,3.009-8.734,3.009c-7.311,0-7.619-0.236-7.619-4.72v-14.455h3.592
			c5.143,0,6.072,0.236,6.879,2.006c0.557,1.121,1.053,2.655,1.486,4.366h0.682V373.25L758.255,373.25z M724.187,401.805h2.416
			v-35.399c0-3.305,0.373-4.013,2.416-4.543l2.232-0.531v-0.649h-11.586v0.649l2.664,0.531c2.293,0.53,2.541,1.18,2.541,4.66v24.014
			h-0.188l-20.443-29.854h-11.895v0.649l2.168,0.413c1.982,0.413,2.479,0.943,2.479,3.658v30.385c0,3.54-0.434,4.071-2.416,4.602
			l-2.355,0.531v0.649h11.523v-0.649l-2.416-0.531c-2.354-0.59-2.604-1.121-2.604-4.661V364.99h0.188L724.187,401.805z
			 M647.378,401.57h16.604v-0.649l-2.168-0.413c-2.355-0.472-2.541-0.648-2.541-3.658v-15.458h18.586v15.458
			c0,3.01-0.246,3.187-2.539,3.658l-2.23,0.413v0.649h16.664v-0.649l-2.354-0.413c-2.168-0.413-2.416-0.648-2.416-3.658v-31.446
			c0-3.01,0.248-3.245,2.416-3.658l2.354-0.413v-0.649h-16.664v0.649l2.23,0.413c2.293,0.472,2.539,0.648,2.539,3.658v14.572
			h-18.586v-14.572c0-3.01,0.188-3.188,2.541-3.658l2.168-0.413v-0.649h-16.604v0.649l2.293,0.413
			c2.229,0.413,2.479,0.648,2.479,3.658v31.446c0,3.01-0.248,3.245-2.479,3.658l-2.293,0.413V401.57z M630.398,402.16
			c6.133,0,10.594-1.003,13.566-2.184l0.744-10.915h-0.744c-1.115,2.419-2.168,5.074-3.344,7.08
			c-2.107,3.776-4.152,4.721-9.852,4.721c-7.807,0-11.955-6.077-11.955-20.532c0-13.394,5.449-18.939,13.07-18.939
			c4.273,0,6.07,0.826,8.238,4.426c1.363,2.183,2.293,4.188,3.531,6.667h0.744l-0.807-11.033c-2.602-0.708-6.318-1.357-11.088-1.357
			c-11.027,0-21.188,5.664-21.188,21.358C611.318,396.141,619.31,402.16,630.398,402.16z M602.968,401.805h2.416v-35.399
			c0-3.305,0.371-4.013,2.416-4.543l2.23-0.531v-0.649h-11.586v0.649l2.664,0.531c2.293,0.53,2.541,1.18,2.541,4.66v24.014h-0.188
			l-20.443-29.854h-11.895v0.649l2.168,0.413c1.983,0.413,2.479,0.943,2.479,3.658v30.385c0,3.54-0.434,4.071-2.416,4.602
			l-2.354,0.531v0.649h11.523v-0.649l-2.416-0.531c-2.354-0.59-2.603-1.121-2.603-4.661V364.99h0.187L602.968,401.805z
			 M560.385,373.25h-0.682c-0.434,1.77-0.867,3.304-1.486,4.366c-0.868,1.77-1.673,2.064-6.877,2.064h-3.593v-17.109
			c1.797-0.354,3.841-0.531,6.938-0.531c5.576,0,7.063,0.354,8.798,2.95c0.867,1.356,1.921,3.54,3.035,6.018h0.682l-0.682-10.325
			h-30.665v0.649l2.292,0.413c2.23,0.472,2.479,0.648,2.479,3.658v31.446c0,3.01-0.311,3.187-2.479,3.658l-2.292,0.413v0.649h31.904
			l0.867-12.391h-0.743c-1.177,3.009-2.354,6.019-3.779,8.024c-1.858,2.359-2.726,3.009-8.734,3.009c-7.311,0-7.62-0.236-7.62-4.72
			v-14.455h3.593c5.143,0,6.071,0.236,6.877,2.006c0.558,1.121,1.053,2.655,1.486,4.366h0.682V373.25L560.385,373.25z
			 M511.594,380.978c-1.858,0-3.098-0.177-3.902-0.295v-18.172c1.486-0.295,3.035-0.472,5.266-0.472c5.018,0,7.929,2.36,7.929,9.381
			C520.886,378.206,517.665,380.978,511.594,380.978z M495.797,401.57h16.603v-0.649l-2.23-0.413
			c-2.292-0.472-2.478-0.648-2.478-3.658v-14.632c1.61,0.06,3.345,0.118,4.584,0.118c3.47,6.726,7.806,14.101,11.585,19.234h10.407
			v-0.649l-1.114-0.236c-1.116-0.235-1.735-0.53-3.284-2.478c-3.035-3.717-7.867-11.859-10.841-17.169v-0.118
			c5.822-1.77,9.106-4.956,9.106-10.443c0-6.549-4.461-9.794-14.125-9.794h-18.213v0.649l2.292,0.413
			c2.168,0.472,2.479,0.59,2.479,3.658v31.446c0,3.068-0.311,3.187-2.479,3.658l-2.292,0.413V401.57z M477.98,402.16
			c6.257,0,11.398-1.298,14.062-2.242v-10.62c0-2.478,0.186-2.95,1.672-3.186l2.23-0.413v-0.649h-15.611v0.649l2.354,0.413
			c2.292,0.413,2.478,0.708,2.478,3.657v9.44c-1.487,0.885-3.965,1.652-7.434,1.652c-9.54,0-13.134-7.021-13.134-20.769
			c0-13.629,5.39-18.703,13.691-18.703c4.336,0,6.319,1.062,8.425,3.835c1.735,2.302,2.54,4.248,3.841,7.14h0.682l-0.619-10.856
			c-3.036-0.944-6.939-1.416-11.709-1.416c-10.469,0-21.683,4.779-21.683,21.417C457.228,395.375,464.724,402.16,477.98,402.16z"/>
	</g>
</g>
</svg>
