<?xml version="1.0" encoding="utf-8"?>
<!-- Generator: Adobe Illustrator 18.1.1, SVG Export Plug-In . SVG Version: 6.00 Build 0)  -->
<svg version="1.1" id="Ebene_1" xmlns="http://www.w3.org/2000/svg" xmlns:xlink="http://www.w3.org/1999/xlink" x="0px" y="0px"
	 viewBox="0 0 518.5 170.1" enable-background="new 0 0 518.5 170.1" xml:space="preserve">
<g>
	<path fill="#72787A" d="M169.3,75.5l-11.1,14c-3.9,4.5-7.5,8.9-11.5,12.8v0.3H168c1.2-5.7,1.9-11.6,1.9-17.7
		C169.9,81.7,169.7,78.6,169.3,75.5z M65.8,97.8c0,5.6,3.7,8.4,8.7,8.4c5.3,0,10-3.6,11.4-8.1c0.3-1.2,0.4-2.5,0.4-3.8v-7.6
		C74.7,86.7,65.8,89.5,65.8,97.8z M119.3,107.4l22.2-27.7c4-4.6,7.2-8.2,11.3-12.4V67h-31V49.5h40.4C148.7,20.3,119.2,0,84.9,0
		C38,0,0,38,0,84.9c0,46.9,38,84.9,84.9,84.9c34.4,0,64-20.5,77.3-49.8h-43V107.4z M88.9,120l-1.3-7.1h-0.4
		c-4.6,5.6-11.8,8.7-20.2,8.7c-14.3,0-22.8-10.4-22.8-21.6c0-18.3,16.4-27,41.4-27v-0.9c0-3.8-2-9.1-12.8-9.1
		c-7.2,0-14.9,2.5-19.5,5.2l-4-14c4.9-2.7,14.6-6.3,27.4-6.3c23.5,0,30.9,13.8,30.9,30.4V103c0,6.6,0.3,13.1,1.2,17H88.9z"/>
	<g>
		<path fill="#72787A" d="M191,71.4c0-5.5-0.2-9.9-0.4-14.2h8.3l0.4,8.5h0.3c2.9-5,7.8-9.6,16.6-9.6c7,0,12.5,4.3,14.7,10.5h0.2
			c1.6-3,3.8-5.2,6-6.8c3.1-2.4,6.5-3.7,11.5-3.7c7,0,17.3,4.6,17.3,22.8v30.9h-9.3V80c0-10.2-3.8-16.1-11.4-16.1
			c-5.5,0-9.6,4-11.4,8.6c-0.4,1.4-0.8,3.1-0.8,4.8v32.5h-9.3V78.3c0-8.5-3.7-14.4-10.9-14.4c-5.9,0-10.3,4.8-11.8,9.5
			c-0.5,1.4-0.8,3-0.8,4.7v31.6H191V71.4z"/>
		<path fill="#72787A" d="M286.3,85.1c0.2,12.9,8.3,18.2,17.9,18.2c6.8,0,11.1-1.2,14.5-2.6l1.7,6.7c-3.4,1.5-9.2,3.4-17.6,3.4
			c-16,0-25.8-10.7-25.8-26.4c0-15.9,9.4-28.4,24.7-28.4c17.1,0,21.6,15.1,21.6,24.7c0,2-0.1,3.5-0.3,4.6L286.3,85.1z M314.2,78.3
			c0.1-6-2.5-15.5-13.1-15.5c-9.8,0-13.9,8.9-14.6,15.5H314.2z"/>
		<path fill="#72787A" d="M379.9,32.7v63.4c0,4.7,0.1,10,0.4,13.5h-8.6l-0.4-9.1h-0.2c-2.9,5.9-9.2,10.3-17.8,10.3
			c-12.7,0-22.5-10.7-22.5-26.7C330.7,66.7,341.7,56,354.4,56c8.1,0,13.5,3.8,15.8,7.9h0.2V32.7H379.9z M370.4,78.6
			c0-1.3-0.1-2.8-0.4-4.1c-1.4-6-6.6-10.9-13.8-10.9c-9.9,0-15.7,8.7-15.7,20.2c0,10.7,5.3,19.5,15.5,19.5c6.4,0,12.2-4.3,14-11.4
			c0.3-1.3,0.4-2.6,0.4-4.1V78.6z"/>
		<path fill="#72787A" d="M399.8,47.6c-3.6,0-6-2.8-6-6.2c0-3.4,2.5-6.1,6.2-6.1c3.7,0,6.1,2.7,6.1,6.1c0,3.4-2.4,6.2-6.2,6.2H399.8
			z M395.2,109.7V57.2h9.5v52.5H395.2z"/>
		<path fill="#72787A" d="M425.5,85.1c0.2,12.9,8.3,18.2,17.9,18.2c6.8,0,11.1-1.2,14.5-2.6l1.7,6.7c-3.4,1.5-9.2,3.4-17.6,3.4
			c-16,0-25.8-10.7-25.8-26.4c0-15.9,9.4-28.4,24.7-28.4c17.1,0,21.6,15.1,21.6,24.7c0,2-0.1,3.5-0.3,4.6L425.5,85.1z M453.3,78.3
			c0.1-6-2.5-15.5-13.1-15.5c-9.8,0-13.9,8.9-14.6,15.5H453.3z"/>
		<path fill="#72787A" d="M473.8,71.4c0-5.5-0.1-9.9-0.4-14.2h8.5l0.5,8.6h0.2c2.6-4.9,8.7-9.8,17.3-9.8c7.3,0,18.5,4.3,18.5,22.3
			v31.3h-9.5V79.5c0-8.5-3.1-15.6-12.1-15.6c-6.2,0-11.1,4.4-12.8,9.8c-0.4,1.2-0.7,2.9-0.7,4.4v31.6h-9.5V71.4z"/>
	</g>
</g>
</svg>
