<!-- Generator: Adobe Illustrator 16.0.4, SVG Export Plug-In . SVG Version: 6.00 Build 0)  -->
<!DOCTYPE svg PUBLIC "-//W3C//DTD SVG 1.1//EN" "http://www.w3.org/Graphics/SVG/1.1/DTD/svg11.dtd">
<svg version="1.1" id="Ebene_1" xmlns="http://www.w3.org/2000/svg" xmlns:xlink="http://www.w3.org/1999/xlink" x="0px" y="0px"
	 width="127.848px" height="125.194px" viewBox="288 360.571 127.848 125.194" enable-background="new 288 360.571 127.848 125.194"
	 xml:space="preserve">
<g>
	<g>
		<defs>
			<rect id="SVGID_1_" x="288" y="360.571" width="127.848" height="125.194"/>
		</defs>
		<clipPath id="SVGID_2_">
			<use xlink:href="#SVGID_1_"  overflow="visible"/>
		</clipPath>
		<path clip-path="url(#SVGID_2_)" fill="#2A4D86" d="M412.427,458.896l-2.691,13.154h-43.254h-1.898H351.83l0.797-7.277
			l-0.198-0.197v0.197c-3.788,5.982-10.465,8.477-17.443,8.477c-11.163,0-17.344-4.988-17.344-15.053
			c0-12.758,12.761-19.039,28.608-19.039c3.586,0,7.173,0.299,9.666,0.5c0.199-0.697,0.199-1.395,0.199-2.096
			c0-3.686-3.687-6.676-9.565-6.676c-6.479,0-10.868,0.996-16.847,4.086l1.795-13.057c5.28-1.793,10.963-2.99,19.035-2.99
			c12.359,0,22.527,4.886,22.527,17.644c0,5.205-1.86,11.834-3.728,20.004l26.149-23.295h-22.227l2.69-13.157h39.899v-59.551H288
			v125.194h127.846v-50.883l-27.143,24.014H412.427L412.427,458.896z"/>
	</g>
	<g>
		<defs>
			<rect id="SVGID_3_" x="288" y="360.571" width="127.848" height="125.194"/>
		</defs>
		<clipPath id="SVGID_4_">
			<use xlink:href="#SVGID_3_"  overflow="visible"/>
		</clipPath>
		<path clip-path="url(#SVGID_4_)" fill="#2A4D86" d="M334.587,456.103c0,2.396,2.291,5.186,6.08,5.186
			c7.675,0,12.26-5.285,13.553-12.264c-1.489-0.297-3.687-0.297-4.782-0.297C340.867,448.429,334.587,451.517,334.587,456.103"/>
	</g>
	<g>
		<defs>
			<rect id="SVGID_5_" x="288" y="360.571" width="127.848" height="125.194"/>
		</defs>
		<clipPath id="SVGID_6_">
			<use xlink:href="#SVGID_5_"  overflow="visible"/>
		</clipPath>
		<path clip-path="url(#SVGID_6_)" fill="#FFFFFF" d="M340.667,461.287c-3.788,0-6.079-2.789-6.079-5.184
			c0-4.586,6.28-7.676,14.85-7.377c1.097,0,3.294,0,4.782,0.297C352.926,456.001,348.342,461.287,340.667,461.287 M415.848,420.123
			h-39.9l-2.69,13.156h22.226l-26.148,23.297c1.867-8.17,3.727-14.799,3.727-20.006c0-12.76-10.166-17.643-22.526-17.643
			c-8.072,0-13.755,1.196-19.036,2.991l-1.796,13.055c5.98-3.09,10.367-4.086,16.844-4.086c5.884,0,9.572,2.99,9.572,6.676
			c0,0.701,0,1.398-0.201,2.098c-2.493-0.201-6.081-0.5-9.666-0.5c-15.851,0-28.608,6.281-28.608,19.037
			c0,10.066,6.183,15.055,17.344,15.055c6.978,0,13.655-2.494,17.443-8.477v-0.201l0.198,0.201l-0.797,7.277h12.754h1.898h43.253
			l2.691-13.156h-23.724l27.144-24.014V420.123L415.848,420.123z"/>
	</g>
</g>
</svg>
