<!-- Generator: Adobe Illustrator 16.0.4, SVG Export Plug-In . SVG Version: 6.00 Build 0)  -->
<!DOCTYPE svg PUBLIC "-//W3C//DTD SVG 1.1//EN" "http://www.w3.org/Graphics/SVG/1.1/DTD/svg11.dtd">
<svg version="1.1" id="Ebene_1" xmlns="http://www.w3.org/2000/svg" xmlns:xlink="http://www.w3.org/1999/xlink" x="0px" y="0px"
	 width="661.976px" height="146.864px" viewBox="288 360.581 661.976 146.864" enable-background="new 288 360.581 661.976 146.864"
	 xml:space="preserve">
<g>
	<g>
		<defs>
			<rect id="SVGID_1_" x="288" y="360" width="661.976" height="141.9"/>
		</defs>
		<clipPath id="SVGID_2_">
			<use xlink:href="#SVGID_1_"  overflow="visible"/>
		</clipPath>
		<path clip-path="url(#SVGID_2_)" d="M913.355,501.746c12.699,0,23.139-2.635,28.547-4.551v-21.559
			c0-5.029,0.377-5.988,3.395-6.467l4.527-0.84v-1.316h-31.691v1.316l4.779,0.84c4.652,0.838,5.031,1.438,5.031,7.424v19.164
			c-3.02,1.797-8.051,3.354-15.094,3.354c-19.363,0-26.658-14.252-26.658-42.158c0-27.666,10.939-37.966,27.793-37.966
			c8.803,0,12.824,2.156,17.102,7.784c3.521,4.672,5.156,8.623,7.797,14.492h1.383l-1.256-22.036
			c-6.162-1.917-14.086-2.875-23.768-2.875c-21.254,0-44.016,9.7-44.016,43.476C871.226,487.972,886.443,501.746,913.355,501.746
			 M855.142,501.027h4.904v-71.861c0-6.707,0.756-8.142,4.906-9.221l4.525-1.078v-1.317h-23.516v1.317l5.406,1.078
			c4.654,1.079,5.156,2.395,5.156,9.461v48.746h-0.377l-41.5-60.603h-24.146v1.317l4.402,0.839c4.023,0.838,5.029,1.916,5.029,7.425
			v61.682c0,7.186-0.879,8.264-4.902,9.342l-4.779,1.078v1.316h23.389v-1.316l-4.902-1.078c-4.779-1.199-5.281-2.277-5.281-9.463
			v-62.398h0.377L855.142,501.027z M747.183,501.746c22.135,0,30.309-11.498,30.309-26.229v-46.352c0-6.707,0.754-8.382,4.777-9.222
			l4.904-1.078v-1.317H762.15v1.317l5.783,1.078c4.904,0.958,5.156,2.755,5.156,9.462v44.914c0,14.609-6.162,22.273-21.379,22.273
			c-15.469,0-22.762-6.467-22.762-21.559v-47.906c0-6.106,0.502-6.466,5.156-7.424l4.525-0.839v-1.317h-33.828v1.317l4.779,0.839
			c4.527,0.838,5.029,1.317,5.029,7.424v47.189C714.611,494.441,726.685,501.746,747.183,501.746 M678.042,420.186
			c10.941,0,12.576,2.034,15.344,7.546c1.887,3.832,4.15,8.98,6.287,14.488h1.51l-1.258-24.67h-66.65l-1.385,24.67h1.512
			c2.264-5.508,4.525-10.656,6.539-14.488c2.641-5.393,4.4-7.546,15.342-7.546h4.148v70.78c0,6.109-0.502,6.588-5.279,7.426
			l-4.779,0.842v1.314h34.457v-1.314l-4.654-0.842c-5.029-0.957-5.406-1.438-5.406-7.426v-70.78H678.042z M593.751,500.548h33.954
			v-1.314l-4.652-0.842c-4.654-0.838-5.156-1.314-5.156-7.426V427.13c0-6.106,0.502-6.586,5.156-7.424l4.652-0.839v-1.317h-33.954
			v1.317l4.778,0.839c4.527,0.838,5.031,1.317,5.031,7.424v63.836c0,6.109-0.504,6.588-5.031,7.426l-4.778,0.842V500.548z
			 M572.425,443.06h-1.384c-0.88,3.596-1.76,6.707-3.018,8.861c-1.762,3.594-3.396,4.193-13.959,4.193h-7.295v-34.733
			c3.647-0.718,7.798-1.077,14.086-1.077c11.317,0,14.336,0.719,17.856,5.987c1.761,2.754,3.899,7.186,6.162,12.215h1.384
			l-1.384-20.958h-62.249v1.317l4.653,0.839c4.526,0.958,5.029,1.317,5.029,7.424v63.836c0,6.109-0.628,6.469-5.029,7.426
			l-4.653,0.842v1.314h64.764l1.762-25.148h-1.51c-2.389,6.105-4.778,12.215-7.671,16.285c-3.772,4.791-5.533,6.107-17.731,6.107
			c-14.839,0-15.469-0.479-15.469-9.58v-29.344h7.295c10.438,0,12.323,0.479,13.959,4.072c1.132,2.275,2.138,5.389,3.018,8.863
			h1.384V443.06L572.425,443.06z M452.467,500.548h61.872l2.264-24.912h-1.384c-2.641,5.869-5.029,11.141-7.797,15.094
			c-4.653,6.586-5.784,7.305-28.923,7.305h-10.062v-0.48l48.29-77.249v-2.755h-57.847l-1.761,23.952h1.383
			c2.641-5.988,4.653-10.18,7.294-14.729c2.768-4.672,4.779-6.587,24.271-6.587h10.438v0.479l-48.039,77.01V500.548L452.467,500.548
			z"/>
	</g>
	<g>
		<defs>
			<rect id="SVGID_3_" x="288" y="360" width="661.976" height="141.9"/>
		</defs>
		<clipPath id="SVGID_4_">
			<use xlink:href="#SVGID_3_"  overflow="visible"/>
		</clipPath>
		<path clip-path="url(#SVGID_4_)" fill="none" stroke="#000000" stroke-width="0.307" stroke-miterlimit="5.592" d="
			M913.355,501.746c12.699,0,23.139-2.635,28.547-4.551v-21.559c0-5.029,0.377-5.988,3.395-6.467l4.527-0.84v-1.316h-31.691v1.316
			l4.779,0.84c4.652,0.838,5.031,1.438,5.031,7.424v19.164c-3.02,1.797-8.051,3.354-15.094,3.354
			c-19.363,0-26.658-14.252-26.658-42.158c0-27.666,10.939-37.966,27.793-37.966c8.803,0,12.824,2.156,17.102,7.784
			c3.521,4.672,5.156,8.623,7.797,14.492h1.383l-1.256-22.036c-6.162-1.917-14.086-2.875-23.768-2.875
			c-21.254,0-44.016,9.7-44.016,43.476C871.226,487.972,886.443,501.746,913.355,501.746z M855.142,501.027h4.904v-71.861
			c0-6.707,0.756-8.142,4.906-9.221l4.525-1.078v-1.317h-23.516v1.317l5.406,1.078c4.654,1.079,5.156,2.395,5.156,9.461v48.746
			h-0.377l-41.5-60.603h-24.146v1.317l4.402,0.839c4.023,0.838,5.029,1.916,5.029,7.425v61.682c0,7.186-0.879,8.264-4.902,9.342
			l-4.779,1.078v1.316h23.389v-1.316l-4.902-1.078c-4.779-1.199-5.281-2.277-5.281-9.463v-62.398h0.377L855.142,501.027z
			 M747.183,501.746c22.135,0,30.309-11.498,30.309-26.229v-46.352c0-6.707,0.754-8.382,4.777-9.222l4.904-1.078v-1.317H762.15
			v1.317l5.783,1.078c4.904,0.958,5.156,2.755,5.156,9.462v44.914c0,14.609-6.162,22.273-21.379,22.273
			c-15.469,0-22.762-6.467-22.762-21.559v-47.906c0-6.106,0.502-6.466,5.156-7.424l4.525-0.839v-1.317h-33.828v1.317l4.779,0.839
			c4.527,0.838,5.029,1.317,5.029,7.424v47.189C714.611,494.441,726.685,501.746,747.183,501.746z M678.042,420.186
			c10.941,0,12.576,2.034,15.344,7.546c1.887,3.832,4.15,8.98,6.287,14.488h1.51l-1.258-24.67h-66.65l-1.385,24.67h1.512
			c2.264-5.508,4.525-10.656,6.539-14.488c2.641-5.393,4.4-7.546,15.342-7.546h4.148v70.78c0,6.109-0.502,6.588-5.279,7.426
			l-4.779,0.842v1.314h34.457v-1.314l-4.654-0.842c-5.029-0.957-5.406-1.438-5.406-7.426v-70.78H678.042z M593.751,500.548h33.954
			v-1.314l-4.652-0.842c-4.654-0.838-5.156-1.314-5.156-7.426V427.13c0-6.106,0.502-6.586,5.156-7.424l4.652-0.839v-1.317h-33.954
			v1.317l4.778,0.839c4.527,0.838,5.031,1.317,5.031,7.424v63.836c0,6.109-0.504,6.588-5.031,7.426l-4.778,0.842V500.548z
			 M572.425,443.06h-1.384c-0.88,3.596-1.76,6.707-3.018,8.861c-1.762,3.594-3.396,4.193-13.959,4.193h-7.295v-34.733
			c3.647-0.718,7.798-1.077,14.086-1.077c11.317,0,14.336,0.719,17.856,5.987c1.761,2.754,3.899,7.186,6.162,12.215h1.384
			l-1.384-20.958h-62.249v1.317l4.653,0.839c4.526,0.958,5.029,1.317,5.029,7.424v63.836c0,6.109-0.628,6.469-5.029,7.426
			l-4.653,0.842v1.314h64.764l1.762-25.148h-1.51c-2.389,6.105-4.778,12.215-7.671,16.285c-3.772,4.791-5.533,6.107-17.731,6.107
			c-14.839,0-15.469-0.479-15.469-9.58v-29.344h7.295c10.438,0,12.323,0.479,13.959,4.072c1.132,2.275,2.138,5.389,3.018,8.863
			h1.384V443.06L572.425,443.06z M452.467,500.548h61.872l2.264-24.912h-1.384c-2.641,5.869-5.029,11.141-7.797,15.094
			c-4.653,6.586-5.784,7.305-28.923,7.305h-10.062v-0.48l48.29-77.249v-2.755h-57.847l-1.761,23.952h1.383
			c2.641-5.988,4.653-10.18,7.294-14.729c2.768-4.672,4.779-6.587,24.271-6.587h10.438v0.479l-48.039,77.01V500.548L452.467,500.548
			z"/>
	</g>
	<g>
		<defs>
			<rect id="SVGID_5_" x="288" y="360" width="661.976" height="141.9"/>
		</defs>
		<clipPath id="SVGID_6_">
			<use xlink:href="#SVGID_5_"  overflow="visible"/>
		</clipPath>
		<path clip-path="url(#SVGID_6_)" fill="#2A4D86" d="M414.309,500.943l0.295-2.111h-3.509l4.067-4.24l0.295-2.049h-6.756
			l-0.312,2.113h3.313l-4.067,4.238l-0.278,2.049H414.309L414.309,500.943z M406.072,500.943l1.147-8.4h-3.034l-1.147,8.4H406.072z
			 M407.319,491.695l0.344-2.592h-3.034l-0.344,2.592H407.319z M399.728,495.726h-2.197c0.213-1.008,0.705-1.438,1.278-1.438
			C399.482,494.287,399.843,494.718,399.728,495.726 M402.483,496.656c0.311-2.178-0.82-4.289-3.429-4.289
			c-3.083,0-4.591,2.336-4.591,5.088c0,2.129,1.328,3.664,3.788,3.664c1.984,0,3.083-0.783,3.952-1.729l-1.361-1.311
			c-0.541,0.479-1.05,0.895-2.034,0.895c-0.95,0-1.541-0.479-1.508-1.584h5.067C402.401,497.152,402.434,496.974,402.483,496.656
			 M394.887,492.542h-2.558l-1.559,4.129h-0.032l-0.508-4.129h-2.231l-1.721,4.129h-0.033l-0.345-4.129h-3.001l1.427,8.4h2.361
			l1.656-4.207h0.033l0.442,4.207h2.378L394.887,492.542z M381.042,500.943l0.869-6.4c0.197-1.455-0.344-2.176-1.607-2.176
			c-1.032,0-1.935,0.447-2.951,1.201l0.591-4.465h-3.034l-1.59,11.84h3.032l0.756-5.615c0.377-0.32,0.819-0.561,1.196-0.561
			c0.345,0,0.508,0.207,0.459,0.576l-0.754,5.6H381.042z M372.59,498.511l-2.197-1.15c-0.46,1.197-0.869,1.553-1.427,1.553
			c-0.541,0-0.901-0.576-0.901-1.441c0-1.551,0.442-2.928,1.377-2.928c0.655,0,0.951,0.561,1.033,1.312l2.51-0.863
			c-0.23-1.521-1.247-2.625-3.493-2.625c-2.772,0-4.362,2.16-4.362,5.041c0,1.854,0.984,3.711,3.559,3.711
			C370.753,501.119,372.016,499.951,372.59,498.511 M364.446,497.935c0-1.326-0.655-1.949-3.246-2.625
			c-0.574-0.143-0.738-0.303-0.722-0.543c0.016-0.256,0.344-0.432,0.853-0.416c0.525,0,1.229,0.191,1.984,0.689l1.427-1.408
			c-1.115-0.863-2.345-1.264-3.526-1.264c-2.001,0-3.657,1.057-3.657,2.848c0,1.537,0.902,2.209,3.198,2.928
			c0.689,0.209,0.771,0.32,0.771,0.576s-0.296,0.449-0.82,0.465c-0.656,0.016-1.591-0.271-2.313-1.041l-1.622,1.232
			c0.95,1.184,2.46,1.744,3.902,1.744C362.643,501.119,364.446,499.984,364.446,497.935 M355.841,500.958l0.295-2.16
			c-0.229,0.049-0.426,0.08-0.754,0.08c-0.574,0-0.788-0.336-0.706-0.928l0.428-3.295h1.491l0.312-2.113h-1.493l0.361-2.752h-2.984
			l-0.361,2.752h-0.869l-0.312,2.113h0.869c0,0-0.426,3.008-0.492,3.439c-0.279,1.84,0.443,2.959,2.591,2.959
			C354.922,501.054,355.447,501.023,355.841,500.958 M350.316,497.935c0-1.326-0.656-1.949-3.247-2.625
			c-0.574-0.143-0.738-0.303-0.722-0.543c0.017-0.256,0.345-0.432,0.853-0.416c0.524,0,1.229,0.191,1.984,0.689l1.427-1.408
			c-1.115-0.863-2.346-1.264-3.525-1.264c-2.001,0-3.657,1.057-3.657,2.848c0,1.537,0.902,2.209,3.197,2.928
			c0.688,0.209,0.771,0.32,0.771,0.576s-0.295,0.449-0.819,0.465c-0.656,0.016-1.591-0.271-2.312-1.041l-1.624,1.232
			c0.952,1.184,2.46,1.744,3.903,1.744C348.512,501.119,350.316,499.984,350.316,497.935 M339.478,495.726h-2.196
			c0.213-1.008,0.705-1.438,1.278-1.438C339.232,494.287,339.593,494.718,339.478,495.726 M342.233,496.656
			c0.312-2.178-0.82-4.289-3.428-4.289c-3.083,0-4.592,2.336-4.592,5.088c0,2.129,1.329,3.664,3.788,3.664
			c1.985,0,3.083-0.783,3.953-1.729l-1.362-1.311c-0.541,0.479-1.049,0.895-2.033,0.895c-0.95,0-1.541-0.479-1.509-1.584h5.067
			C342.151,497.152,342.184,496.974,342.233,496.656 M334.688,492.542h-2.56l-1.557,4.129h-0.033l-0.509-4.129h-2.23l-1.722,4.129
			h-0.032l-0.345-4.129h-3.001l1.427,8.4h2.361l1.656-4.207h0.032l0.443,4.207h2.378L334.688,492.542z M317.947,498.496
			c-0.246,0.223-0.558,0.383-0.854,0.383c-0.508,0-0.983-0.352-0.983-1.438c0-1.938,0.64-2.832,1.378-2.832
			c0.36,0,0.705,0.158,0.935,0.385L317.947,498.496z M320.915,500.943c-0.131-0.416-0.098-1.184,0.017-2.064l1.312-9.775h-3.034
			l-0.558,4.227c-0.443-0.496-1.148-0.961-2.164-0.961c-1.657,0-3.329,1.76-3.329,5.184c0,2.48,1.164,3.568,2.427,3.568
			c0.852,0,1.574-0.447,2.131-0.959c0,0.287,0.05,0.543,0.132,0.783h3.066V500.943z M312.677,495.375l0.41-3.008h-0.05
			c-0.951,0-2.033,0.736-2.722,1.775h-0.033l0.214-1.6h-3.034l-1.147,8.4h3.033l0.656-4.77c0.771-0.496,1.738-0.801,2.623-0.801
			h0.05V495.375z M301.514,499.023c-0.819-0.049-1.099-0.783-0.869-2.32c0.263-1.791,0.82-2.305,1.559-2.24
			c0.787,0.064,0.951,0.736,0.738,2.32C302.695,498.576,302.17,499.054,301.514,499.023 M301.251,501.119
			c2.788,0.033,4.673-1.967,4.657-5.232c0-2.176-1.197-3.486-3.575-3.52c-3.017-0.047-4.657,2.145-4.657,5.201
			C297.677,499.71,299.168,501.087,301.251,501.119 M295.942,500.943l0.869-6.336c0.197-1.455-0.426-2.24-1.673-2.24
			c-1.033,0-1.951,0.465-2.886,1.201l0.148-1.025h-3.034l-1.148,8.4h3.034l0.754-5.615c0.41-0.32,0.869-0.561,1.197-0.561
			c0.328,0,0.509,0.225,0.46,0.641l-0.755,5.535H295.942z"/>
	</g>
</g>
<g>
	<g>
		<defs>
			<rect id="SVGID_7_" x="288" y="360.581" width="127.848" height="125.194"/>
		</defs>
		<clipPath id="SVGID_8_">
			<use xlink:href="#SVGID_7_"  overflow="visible"/>
		</clipPath>
		<path clip-path="url(#SVGID_8_)" fill="#2A4D86" d="M412.427,458.906l-2.691,13.154h-43.254h-1.898H351.83l0.797-7.277
			l-0.198-0.197v0.197c-3.788,5.982-10.465,8.477-17.443,8.477c-11.163,0-17.344-4.988-17.344-15.053
			c0-12.758,12.761-19.039,28.608-19.039c3.586,0,7.173,0.299,9.666,0.5c0.199-0.697,0.199-1.395,0.199-2.096
			c0-3.686-3.687-6.676-9.565-6.676c-6.479,0-10.868,0.996-16.847,4.086l1.795-13.057c5.28-1.793,10.963-2.989,19.035-2.989
			c12.359,0,22.527,4.886,22.527,17.644c0,5.205-1.86,11.834-3.728,20.004l26.149-23.295h-22.227l2.69-13.156h39.899v-59.551H288
			v125.193h127.846v-50.883l-27.143,24.014H412.427L412.427,458.906z"/>
	</g>
	<g>
		<defs>
			<rect id="SVGID_9_" x="288" y="360.581" width="127.848" height="125.194"/>
		</defs>
		<clipPath id="SVGID_10_">
			<use xlink:href="#SVGID_9_"  overflow="visible"/>
		</clipPath>
		<path clip-path="url(#SVGID_10_)" fill="#2A4D86" d="M334.587,456.113c0,2.395,2.291,5.184,6.08,5.184
			c7.675,0,12.26-5.285,13.553-12.264c-1.489-0.295-3.687-0.295-4.782-0.295C340.867,448.439,334.587,451.527,334.587,456.113"/>
	</g>
	<g>
		<defs>
			<rect id="SVGID_11_" x="288" y="360.581" width="127.848" height="125.194"/>
		</defs>
		<clipPath id="SVGID_12_">
			<use xlink:href="#SVGID_11_"  overflow="visible"/>
		</clipPath>
		<path clip-path="url(#SVGID_12_)" fill="#FFFFFF" d="M340.667,461.296c-3.788,0-6.079-2.789-6.079-5.184
			c0-4.586,6.28-7.676,14.85-7.377c1.097,0,3.294,0,4.782,0.297C352.926,456.011,348.342,461.296,340.667,461.296 M415.848,420.133
			h-39.9l-2.69,13.154h22.226l-26.148,23.297c1.867-8.17,3.727-14.799,3.727-20.006c0-12.758-10.166-17.642-22.526-17.642
			c-8.072,0-13.755,1.196-19.036,2.991l-1.796,13.055c5.98-3.09,10.367-4.086,16.844-4.086c5.884,0,9.572,2.99,9.572,6.676
			c0,0.701,0,1.398-0.201,2.096c-2.493-0.201-6.081-0.5-9.666-0.5c-15.851,0-28.608,6.281-28.608,19.037
			c0,10.068,6.183,15.055,17.344,15.055c6.978,0,13.655-2.494,17.443-8.477v-0.201l0.198,0.201l-0.797,7.279h12.754h1.898h43.253
			l2.691-13.156h-23.724l27.144-24.014V420.133L415.848,420.133z"/>
	</g>
</g>
<g>
	<g>
		<defs>
			<rect id="SVGID_13_" x="288" y="360" width="661.976" height="141.9"/>
		</defs>
		<clipPath id="SVGID_14_">
			<use xlink:href="#SVGID_13_"  overflow="visible"/>
		</clipPath>
		<path clip-path="url(#SVGID_14_)" d="M858.556,380.988c-1.857,0-3.098-0.177-3.9-0.295v-18.172
			c1.484-0.295,3.035-0.472,5.264-0.472c5.02,0,7.93,2.36,7.93,9.381C867.849,378.216,864.628,380.988,858.556,380.988
			 M842.759,401.58h16.604v-0.649l-2.23-0.413c-2.291-0.472-2.477-0.648-2.477-3.658v-14.632c1.607,0.06,3.344,0.118,4.584,0.118
			c3.469,6.726,7.805,14.101,11.584,19.234h10.406v-0.649l-1.113-0.236c-1.115-0.235-1.734-0.53-3.283-2.478
			c-3.037-3.717-7.869-11.859-10.842-17.169v-0.118c5.822-1.77,9.105-4.956,9.105-10.443c0-6.549-4.461-9.794-14.125-9.794h-18.213
			v0.649l2.291,0.413c2.17,0.472,2.48,0.59,2.48,3.658v31.446c0,3.068-0.311,3.187-2.48,3.658l-2.291,0.413V401.58z M832.142,373.26
			h-0.682c-0.434,1.77-0.867,3.304-1.486,4.366c-0.867,1.77-1.674,2.064-6.877,2.064h-3.594v-17.109
			c1.797-0.354,3.842-0.531,6.939-0.531c5.574,0,7.062,0.354,8.797,2.95c0.869,1.356,1.922,3.54,3.037,6.018h0.68l-0.68-10.325
			h-30.666v0.649l2.293,0.413c2.229,0.472,2.477,0.648,2.477,3.658v31.446c0,3.01-0.309,3.187-2.477,3.658l-2.293,0.413v0.649
			h31.902l0.867-12.391h-0.742c-1.178,3.009-2.354,6.019-3.777,8.024c-1.859,2.359-2.729,3.009-8.736,3.009
			c-7.311,0-7.619-0.236-7.619-4.72v-14.455h3.592c5.143,0,6.072,0.236,6.877,2.006c0.559,1.121,1.055,2.655,1.486,4.366h0.682
			V373.26L832.142,373.26z M798.076,401.815h2.416v-35.399c0-3.305,0.371-4.013,2.416-4.543l2.229-0.531v-0.649h-11.584v0.649
			l2.664,0.531c2.293,0.53,2.539,1.18,2.539,4.66v24.014h-0.184l-20.445-29.854h-11.893v0.649l2.168,0.413
			c1.98,0.413,2.477,0.943,2.477,3.658v30.385c0,3.54-0.434,4.071-2.416,4.602l-2.354,0.531v0.649h11.523v-0.649l-2.418-0.531
			c-2.354-0.59-2.6-1.121-2.6-4.661V365h0.184L798.076,401.815z M741.851,380.988c-1.857,0-3.098-0.177-3.902-0.295v-18.172
			c1.486-0.295,3.037-0.472,5.266-0.472c5.02,0,7.93,2.36,7.93,9.381C751.144,378.216,747.921,380.988,741.851,380.988
			 M726.054,401.58h16.604v-0.649l-2.23-0.413c-2.293-0.472-2.479-0.648-2.479-3.658v-14.632c1.609,0.06,3.346,0.118,4.586,0.118
			c3.469,6.726,7.805,14.101,11.584,19.234h10.408v-0.649l-1.115-0.236c-1.115-0.235-1.736-0.53-3.285-2.478
			c-3.035-3.717-7.867-11.859-10.84-17.169v-0.118c5.824-1.77,9.105-4.956,9.105-10.443c0-6.549-4.461-9.794-14.125-9.794h-18.213
			v0.649l2.291,0.413c2.168,0.472,2.48,0.59,2.48,3.658v31.446c0,3.068-0.312,3.187-2.48,3.658l-2.291,0.413V401.58L726.054,401.58z
			 M704.056,402.17c10.904,0,14.932-5.664,14.932-12.921v-22.833c0-3.305,0.371-4.13,2.354-4.543l2.416-0.531v-0.649h-12.328v0.649
			l2.85,0.531c2.416,0.472,2.541,1.356,2.541,4.66v22.126c0,7.197-3.035,10.974-10.531,10.974c-7.619,0-11.213-3.187-11.213-10.62
			v-23.6c0-3.01,0.248-3.187,2.539-3.658l2.23-0.413v-0.649h-16.666v0.649l2.355,0.413c2.229,0.413,2.477,0.648,2.477,3.658v23.246
			C688.011,398.57,693.958,402.17,704.056,402.17 M638.533,401.58h16.604v-0.649l-2.168-0.413c-2.354-0.472-2.541-0.648-2.541-3.658
			v-15.458h18.586v15.458c0,3.01-0.248,3.187-2.541,3.658l-2.229,0.413v0.649h16.664v-0.649l-2.355-0.413
			c-2.168-0.413-2.416-0.648-2.416-3.658v-31.446c0-3.01,0.248-3.245,2.416-3.658l2.355-0.413v-0.649h-16.664v0.649l2.229,0.413
			c2.293,0.472,2.541,0.648,2.541,3.658v14.572h-18.586v-14.572c0-3.01,0.188-3.187,2.541-3.658l2.168-0.413v-0.649h-16.604v0.649
			l2.291,0.413c2.23,0.413,2.479,0.648,2.479,3.658v31.446c0,3.01-0.246,3.245-2.479,3.658l-2.291,0.413V401.58z M624.992,361.99
			c5.389,0,6.195,1.004,7.557,3.718c0.93,1.888,2.045,4.425,3.1,7.139h0.742l-0.617-12.154h-32.834l-0.684,12.154H603
			c1.113-2.714,2.23-5.251,3.221-7.139c1.303-2.655,2.168-3.718,7.561-3.718h2.043v34.869c0,3.01-0.248,3.245-2.604,3.658
			l-2.354,0.413v0.649h16.975v-0.649l-2.293-0.413c-2.479-0.472-2.664-0.708-2.664-3.658V361.99H624.992z M580.37,400.872
			c-7.868,0-12.02-6.785-12.02-20.179c0-13.098,3.779-19.293,12.08-19.293c8.427,0,12.02,7.611,12.02,20.474
			C592.45,394.913,588.733,400.872,580.37,400.872 M580.246,402.17c9.912,0,19.701-5.782,19.701-21.299
			c0-13.983-8.364-20.769-19.392-20.769c-9.912,0-19.699,6.019-19.699,21.594C560.855,395.503,569.219,402.17,580.246,402.17
			 M526.61,401.58h30.851l0.868-12.862h-0.806c-1.178,3.186-2.416,6.018-3.655,8.142c-1.734,2.892-2.974,3.422-8.859,3.422
			c-6.195,0-6.504-0.708-6.504-4.012v-30.856c0-3.01,0.247-3.305,2.54-3.658l2.292-0.413v-0.649H526.61v0.649l2.292,0.413
			c2.229,0.413,2.478,0.648,2.478,3.658v31.446c0,3.01-0.309,3.245-2.478,3.658l-2.292,0.413V401.58z M505.944,400.872
			c-7.868,0-12.019-6.785-12.019-20.179c0-13.098,3.779-19.293,12.08-19.293c8.425,0,12.019,7.611,12.019,20.474
			C518.024,394.913,514.307,400.872,505.944,400.872 M505.82,402.17c9.912,0,19.699-5.782,19.699-21.299
			c0-13.983-8.362-20.769-19.39-20.769c-9.912,0-19.7,6.019-19.7,21.594C486.43,395.503,494.793,402.17,505.82,402.17
			 M469.246,402.17c9.602,0,14.249-6.136,14.249-12.036c0-6.254-3.594-8.909-12.452-12.98c-6.01-2.714-8.302-4.66-8.302-9.026
			c0-4.366,2.85-6.727,7.62-6.727c3.593,0,4.894,0.944,6.69,3.6c1.239,1.711,2.23,3.657,3.47,6.254h0.742l-0.681-9.559
			c-1.921-0.885-5.39-1.593-9.602-1.593c-8.427,0-13.383,5.016-13.383,11.328c0,6.136,4.399,9.322,10.656,12.036
			c7.187,3.363,9.54,5.369,9.54,9.794c0,4.543-2.973,7.611-8.053,7.611c-4.275,0-6.567-1.357-8.488-4.189
			c-1.486-2.124-2.478-4.188-3.778-6.903h-0.806l0.806,10.385C460.263,401.462,464.29,402.17,469.246,402.17"/>
	</g>
	<g>
		<defs>
			<rect id="SVGID_15_" x="288" y="360" width="661.976" height="141.9"/>
		</defs>
		<clipPath id="SVGID_16_">
			<use xlink:href="#SVGID_15_"  overflow="visible"/>
		</clipPath>
		<path clip-path="url(#SVGID_16_)" fill="none" stroke="#000000" stroke-width="0.205" stroke-miterlimit="5.592" d="
			M858.556,380.988c-1.857,0-3.098-0.177-3.9-0.295v-18.172c1.484-0.295,3.035-0.472,5.264-0.472c5.02,0,7.93,2.36,7.93,9.381
			C867.849,378.216,864.628,380.988,858.556,380.988z M842.759,401.58h16.604v-0.649l-2.23-0.413
			c-2.291-0.472-2.477-0.648-2.477-3.658v-14.632c1.607,0.06,3.344,0.118,4.584,0.118c3.469,6.726,7.805,14.101,11.584,19.234
			h10.406v-0.649l-1.113-0.236c-1.115-0.235-1.734-0.53-3.283-2.478c-3.037-3.717-7.869-11.859-10.842-17.169v-0.118
			c5.822-1.77,9.105-4.956,9.105-10.443c0-6.549-4.461-9.794-14.125-9.794h-18.213v0.649l2.291,0.413
			c2.17,0.472,2.48,0.59,2.48,3.658v31.446c0,3.068-0.311,3.187-2.48,3.658l-2.291,0.413V401.58z M832.142,373.26h-0.682
			c-0.434,1.77-0.867,3.304-1.486,4.366c-0.867,1.77-1.674,2.064-6.877,2.064h-3.594v-17.109c1.797-0.354,3.842-0.531,6.939-0.531
			c5.574,0,7.062,0.354,8.797,2.95c0.869,1.356,1.922,3.54,3.037,6.018h0.68l-0.68-10.325h-30.666v0.649l2.293,0.413
			c2.229,0.472,2.477,0.648,2.477,3.658v31.446c0,3.01-0.309,3.187-2.477,3.658l-2.293,0.413v0.649h31.902l0.867-12.391h-0.742
			c-1.178,3.009-2.354,6.019-3.777,8.024c-1.859,2.359-2.729,3.009-8.736,3.009c-7.311,0-7.619-0.236-7.619-4.72v-14.455h3.592
			c5.143,0,6.072,0.236,6.877,2.006c0.559,1.121,1.055,2.655,1.486,4.366h0.682V373.26L832.142,373.26z M798.076,401.815h2.416
			v-35.399c0-3.305,0.371-4.013,2.416-4.543l2.229-0.531v-0.649h-11.584v0.649l2.664,0.531c2.293,0.53,2.539,1.18,2.539,4.66v24.014
			h-0.184l-20.445-29.854h-11.893v0.649l2.168,0.413c1.98,0.413,2.477,0.943,2.477,3.658v30.385c0,3.54-0.434,4.071-2.416,4.602
			l-2.354,0.531v0.649h11.523v-0.649l-2.418-0.531c-2.354-0.59-2.6-1.121-2.6-4.661V365h0.184L798.076,401.815z M741.851,380.988
			c-1.857,0-3.098-0.177-3.902-0.295v-18.172c1.486-0.295,3.037-0.472,5.266-0.472c5.02,0,7.93,2.36,7.93,9.381
			C751.144,378.216,747.921,380.988,741.851,380.988z M726.054,401.58h16.604v-0.649l-2.23-0.413
			c-2.293-0.472-2.479-0.648-2.479-3.658v-14.632c1.609,0.06,3.346,0.118,4.586,0.118c3.469,6.726,7.805,14.101,11.584,19.234
			h10.408v-0.649l-1.115-0.236c-1.115-0.235-1.736-0.53-3.285-2.478c-3.035-3.717-7.867-11.859-10.84-17.169v-0.118
			c5.824-1.77,9.105-4.956,9.105-10.443c0-6.549-4.461-9.794-14.125-9.794h-18.213v0.649l2.291,0.413
			c2.168,0.472,2.48,0.59,2.48,3.658v31.446c0,3.068-0.312,3.187-2.48,3.658l-2.291,0.413V401.58L726.054,401.58z M704.056,402.17
			c10.904,0,14.932-5.664,14.932-12.921v-22.833c0-3.305,0.371-4.13,2.354-4.543l2.416-0.531v-0.649h-12.328v0.649l2.85,0.531
			c2.416,0.472,2.541,1.356,2.541,4.66v22.126c0,7.197-3.035,10.974-10.531,10.974c-7.619,0-11.213-3.187-11.213-10.62v-23.6
			c0-3.01,0.248-3.187,2.539-3.658l2.23-0.413v-0.649h-16.666v0.649l2.355,0.413c2.229,0.413,2.477,0.648,2.477,3.658v23.246
			C688.011,398.57,693.958,402.17,704.056,402.17z M638.533,401.58h16.604v-0.649l-2.168-0.413
			c-2.354-0.472-2.541-0.648-2.541-3.658v-15.458h18.586v15.458c0,3.01-0.248,3.187-2.541,3.658l-2.229,0.413v0.649h16.664v-0.649
			l-2.355-0.413c-2.168-0.413-2.416-0.648-2.416-3.658v-31.446c0-3.01,0.248-3.245,2.416-3.658l2.355-0.413v-0.649h-16.664v0.649
			l2.229,0.413c2.293,0.472,2.541,0.648,2.541,3.658v14.572h-18.586v-14.572c0-3.01,0.188-3.187,2.541-3.658l2.168-0.413v-0.649
			h-16.604v0.649l2.291,0.413c2.23,0.413,2.479,0.648,2.479,3.658v31.446c0,3.01-0.246,3.245-2.479,3.658l-2.291,0.413V401.58z
			 M624.992,361.99c5.389,0,6.195,1.004,7.557,3.718c0.93,1.888,2.045,4.425,3.1,7.139h0.742l-0.617-12.154h-32.834l-0.684,12.154
			H603c1.113-2.714,2.23-5.251,3.221-7.139c1.303-2.655,2.168-3.718,7.561-3.718h2.043v34.869c0,3.01-0.248,3.245-2.604,3.658
			l-2.354,0.413v0.649h16.975v-0.649l-2.293-0.413c-2.479-0.472-2.664-0.708-2.664-3.658V361.99H624.992z M580.37,400.872
			c-7.868,0-12.02-6.785-12.02-20.179c0-13.098,3.779-19.293,12.08-19.293c8.427,0,12.02,7.611,12.02,20.474
			C592.45,394.913,588.733,400.872,580.37,400.872z M580.246,402.17c9.912,0,19.701-5.782,19.701-21.299
			c0-13.983-8.364-20.769-19.392-20.769c-9.912,0-19.699,6.019-19.699,21.594C560.855,395.503,569.219,402.17,580.246,402.17z
			 M526.61,401.58h30.851l0.868-12.862h-0.806c-1.178,3.186-2.416,6.018-3.655,8.142c-1.734,2.892-2.974,3.422-8.859,3.422
			c-6.195,0-6.504-0.708-6.504-4.012v-30.856c0-3.01,0.247-3.305,2.54-3.658l2.292-0.413v-0.649H526.61v0.649l2.292,0.413
			c2.229,0.413,2.478,0.648,2.478,3.658v31.446c0,3.01-0.309,3.245-2.478,3.658l-2.292,0.413V401.58z M505.944,400.872
			c-7.868,0-12.019-6.785-12.019-20.179c0-13.098,3.779-19.293,12.08-19.293c8.425,0,12.019,7.611,12.019,20.474
			C518.024,394.913,514.307,400.872,505.944,400.872z M505.82,402.17c9.912,0,19.699-5.782,19.699-21.299
			c0-13.983-8.362-20.769-19.39-20.769c-9.912,0-19.7,6.019-19.7,21.594C486.43,395.503,494.793,402.17,505.82,402.17z
			 M469.246,402.17c9.602,0,14.249-6.136,14.249-12.036c0-6.254-3.594-8.909-12.452-12.98c-6.01-2.714-8.302-4.66-8.302-9.026
			c0-4.366,2.85-6.727,7.62-6.727c3.593,0,4.894,0.944,6.69,3.6c1.239,1.711,2.23,3.657,3.47,6.254h0.742l-0.681-9.559
			c-1.921-0.885-5.39-1.593-9.602-1.593c-8.427,0-13.383,5.016-13.383,11.328c0,6.136,4.399,9.322,10.656,12.036
			c7.187,3.363,9.54,5.369,9.54,9.794c0,4.543-2.973,7.611-8.053,7.611c-4.275,0-6.567-1.357-8.488-4.189
			c-1.486-2.124-2.478-4.188-3.778-6.903h-0.806l0.806,10.385C460.263,401.462,464.29,402.17,469.246,402.17z"/>
	</g>
</g>
</svg>
