<!-- Generator: Adobe Illustrator 16.0.4, SVG Export Plug-In . SVG Version: 6.00 Build 0)  -->
<!DOCTYPE svg PUBLIC "-//W3C//DTD SVG 1.1//EN" "http://www.w3.org/Graphics/SVG/1.1/DTD/svg11.dtd">
<svg version="1.1" id="Ebene_1" xmlns="http://www.w3.org/2000/svg" xmlns:xlink="http://www.w3.org/1999/xlink" x="0px" y="0px"
	 width="616.195px" height="140.519px" viewBox="288 360 616.195 140.519" enable-background="new 288 360 616.195 140.519"
	 xml:space="preserve">
<g>
	<path d="M452.209,484.791h49.273c26.212,0,42.637-10.744,42.637-30.812c0-16.59-11.447-25.121-33.347-26.857v-0.316
		c17.585-3.002,27.372-11.219,27.372-25.754c0-18.486-15.429-25.754-40.312-25.754h-45.623v1.737l6.14,1.106
		c5.973,1.105,6.637,1.738,6.637,9.796v84.215c0,8.059-0.664,8.688-6.637,9.797l-6.14,1.104V484.791L452.209,484.791z
		 M500.984,481.156c-14.767,0-17.088-1.58-17.088-12.008v-39.186h14.434c18.746,0,25.715,7.584,25.715,25.121
		C524.045,472.466,516.082,481.156,500.984,481.156L500.984,481.156z M483.896,426.171v-45.979c2.819-0.79,7.632-1.264,12.276-1.264
		c16.258,0,23.061,6.478,23.061,23.384c0,16.59-8.627,23.856-23.061,23.856h-12.276V426.171z M540.963,484.791h29.531v-1.738
		l-4.479-0.947c-5.144-1.266-6.968-3.16-6.968-6.953c0-2.527,0.664-6.004,2.82-12.008l6.471-18.012h35.501l7.301,21.488
		c0.994,2.686,2.154,6.793,2.154,9.164c0,3.16-1.16,5.213-6.635,6.479l-3.816,0.789v1.738h43.965v-1.738l-3.482-0.789
		c-4.812-1.107-6.803-3.951-11.281-16.117l-33.016-90.85h-8.958l-34.009,88.954c-5.476,14.537-6.472,16.434-12.277,18.014
		l-2.82,0.789L540.963,484.791L540.963,484.791z M586.42,395.835h0.498l15.595,45.504H569.83L586.42,395.835L586.42,395.835z
		 M684.464,486.371c25.715,0,38.156-16.434,38.156-32.232c0-16.748-9.621-23.857-33.346-34.76
		c-16.092-7.269-22.23-12.482-22.23-24.174s7.631-18.013,20.406-18.013c9.623,0,13.105,2.528,17.918,9.638
		c3.316,4.582,5.971,9.797,9.289,16.748h1.992l-1.826-25.596c-5.143-2.37-14.434-4.266-25.713-4.266
		c-22.564,0-35.836,13.43-35.836,30.336c0,16.432,11.779,24.964,28.535,32.232c19.244,9.006,25.549,14.377,25.549,26.229
		c0,12.166-7.965,20.381-21.566,20.381c-11.447,0-17.586-3.633-22.729-11.219c-3.98-5.688-6.637-11.217-10.119-18.482h-2.156
		l2.156,27.807C660.41,484.474,671.193,486.371,684.464,486.371L684.464,486.371z M791.285,408.949h-1.824
		c-1.162,4.74-2.324,8.849-3.982,11.692c-2.32,4.739-4.479,5.528-18.412,5.528h-9.623v-45.818
		c4.811-0.948,10.283-1.422,18.582-1.422c14.93,0,18.908,0.948,23.557,7.899c2.322,3.635,5.143,9.48,8.129,16.116h1.826
		l-1.826-27.649h-82.121v1.737l6.139,1.106c5.973,1.264,6.637,1.738,6.637,9.796v84.214c0,8.059-0.83,8.533-6.637,9.797
		l-6.139,1.105v1.738h85.439l2.322-33.18h-1.99c-3.152,8.057-6.307,16.113-10.119,21.486c-4.98,6.318-7.301,8.059-23.395,8.059
		c-19.576,0-20.404-0.633-20.404-12.641v-38.711h9.623c13.77,0,16.258,0.633,18.414,5.371c1.49,3.004,2.818,7.111,3.98,11.693h1.824
		V408.949L791.285,408.949z M819.253,484.791h82.617l2.324-34.443h-2.158c-3.152,8.531-6.469,16.115-9.787,21.803
		c-4.645,7.742-7.963,9.164-23.723,9.164c-16.592,0-17.42-1.896-17.42-10.744v-82.634c0-8.058,0.662-8.849,6.801-9.796l6.139-1.106
		v-1.737h-44.793v1.737l6.139,1.106c5.975,1.105,6.639,1.738,6.639,9.796v84.214c0,8.059-0.83,8.689-6.639,9.797l-6.139,1.105
		V484.791L819.253,484.791z"/>
	<path fill="none" stroke="#000000" stroke-width="0.4101" stroke-miterlimit="7.463" d="M452.209,484.791h49.273
		c26.212,0,42.637-10.744,42.637-30.812c0-16.59-11.447-25.121-33.347-26.857v-0.316c17.585-3.002,27.372-11.219,27.372-25.754
		c0-18.486-15.429-25.754-40.312-25.754h-45.623v1.737l6.14,1.106c5.973,1.105,6.637,1.738,6.637,9.796v84.215
		c0,8.059-0.664,8.688-6.637,9.797l-6.14,1.104V484.791L452.209,484.791z M500.984,481.156c-14.767,0-17.088-1.58-17.088-12.008
		v-39.186h14.434c18.746,0,25.715,7.584,25.715,25.121C524.045,472.466,516.082,481.156,500.984,481.156L500.984,481.156z
		 M483.896,426.171v-45.979c2.819-0.79,7.632-1.264,12.276-1.264c16.258,0,23.061,6.478,23.061,23.384
		c0,16.59-8.627,23.856-23.061,23.856h-12.276V426.171z M540.963,484.791h29.531v-1.738l-4.479-0.947
		c-5.144-1.266-6.968-3.16-6.968-6.953c0-2.527,0.664-6.004,2.82-12.008l6.471-18.012h35.501l7.301,21.488
		c0.994,2.686,2.154,6.793,2.154,9.164c0,3.16-1.16,5.213-6.635,6.479l-3.816,0.789v1.738h43.965v-1.738l-3.482-0.789
		c-4.812-1.107-6.803-3.951-11.281-16.117l-33.016-90.85h-8.958l-34.009,88.954c-5.476,14.537-6.472,16.434-12.277,18.014
		l-2.82,0.789L540.963,484.791L540.963,484.791z M586.42,395.835h0.498l15.595,45.504H569.83L586.42,395.835L586.42,395.835z
		 M684.464,486.371c25.715,0,38.156-16.434,38.156-32.232c0-16.748-9.621-23.857-33.346-34.76
		c-16.092-7.269-22.23-12.482-22.23-24.174s7.631-18.013,20.406-18.013c9.623,0,13.105,2.528,17.918,9.638
		c3.316,4.582,5.971,9.797,9.289,16.748h1.992l-1.826-25.596c-5.143-2.37-14.434-4.266-25.713-4.266
		c-22.564,0-35.836,13.43-35.836,30.336c0,16.432,11.779,24.964,28.535,32.232c19.244,9.006,25.549,14.377,25.549,26.229
		c0,12.166-7.965,20.381-21.566,20.381c-11.447,0-17.586-3.633-22.729-11.219c-3.98-5.688-6.637-11.217-10.119-18.482h-2.156
		l2.156,27.807C660.41,484.474,671.193,486.371,684.464,486.371L684.464,486.371z M791.285,408.949h-1.824
		c-1.162,4.74-2.324,8.849-3.982,11.692c-2.32,4.739-4.479,5.528-18.412,5.528h-9.623v-45.818
		c4.811-0.948,10.283-1.422,18.582-1.422c14.93,0,18.908,0.948,23.557,7.899c2.322,3.635,5.143,9.48,8.129,16.116h1.826
		l-1.826-27.649h-82.121v1.737l6.139,1.106c5.973,1.264,6.637,1.738,6.637,9.796v84.214c0,8.059-0.83,8.533-6.637,9.797
		l-6.139,1.105v1.738h85.439l2.322-33.18h-1.99c-3.152,8.057-6.307,16.113-10.119,21.486c-4.98,6.318-7.301,8.059-23.395,8.059
		c-19.576,0-20.404-0.633-20.404-12.641v-38.711h9.623c13.77,0,16.258,0.633,18.414,5.371c1.49,3.004,2.818,7.111,3.98,11.693h1.824
		V408.949L791.285,408.949z M819.253,484.791h82.617l2.324-34.443h-2.158c-3.152,8.531-6.469,16.115-9.787,21.803
		c-4.645,7.742-7.963,9.164-23.723,9.164c-16.592,0-17.42-1.896-17.42-10.744v-82.634c0-8.058,0.662-8.849,6.801-9.796l6.139-1.106
		v-1.737h-44.793v1.737l6.139,1.106c5.975,1.105,6.639,1.738,6.639,9.796v84.214c0,8.059-0.83,8.689-6.639,9.797l-6.139,1.105
		V484.791L819.253,484.791z"/>
	<path fill="#2A4D86" d="M295.928,500.343l0.869-6.336c0.197-1.457-0.426-2.24-1.673-2.24c-1.033,0-1.951,0.463-2.886,1.199
		l0.148-1.023h-3.034l-1.148,8.4h3.034l0.754-5.617c0.41-0.32,0.87-0.561,1.197-0.561c0.328,0,0.508,0.225,0.459,0.641l-0.754,5.537
		H295.928L295.928,500.343z M301.238,500.519c2.788,0.031,4.674-1.969,4.656-5.232c0-2.176-1.196-3.488-3.574-3.52
		c-3.019-0.049-4.657,2.143-4.657,5.199C297.663,499.111,299.155,500.486,301.238,500.519L301.238,500.519z M301.5,498.423
		c-0.82-0.049-1.099-0.785-0.869-2.32c0.263-1.793,0.82-2.305,1.559-2.24c0.786,0.064,0.95,0.736,0.737,2.32
		C302.681,497.974,302.156,498.455,301.5,498.423L301.5,498.423z M312.663,494.775l0.41-3.01h-0.049
		c-0.951,0-2.034,0.736-2.723,1.775h-0.033l0.214-1.6h-3.034l-1.148,8.4h3.034l0.656-4.77c0.771-0.496,1.738-0.801,2.624-0.801
		h0.049V494.775z M320.901,500.343c-0.132-0.416-0.1-1.186,0.016-2.064l1.312-9.775h-3.033l-0.559,4.223
		c-0.442-0.494-1.147-0.959-2.165-0.959c-1.655,0-3.329,1.762-3.329,5.186c0,2.479,1.164,3.566,2.428,3.566
		c0.853,0,1.573-0.447,2.132-0.961c0,0.289,0.049,0.545,0.131,0.785H320.901L320.901,500.343z M317.933,497.894
		c-0.245,0.225-0.558,0.385-0.853,0.385c-0.508,0-0.984-0.352-0.984-1.439c0-1.938,0.64-2.832,1.377-2.832
		c0.361,0,0.705,0.158,0.936,0.383L317.933,497.894L317.933,497.894z M334.673,491.943h-2.558l-1.559,4.127h-0.032l-0.509-4.127
		h-2.229l-1.722,4.127h-0.033l-0.346-4.127h-3l1.428,8.398h2.36l1.656-4.209h0.033l0.443,4.209h2.377L334.673,491.943
		L334.673,491.943z M342.219,496.054c0.312-2.176-0.819-4.287-3.427-4.287c-3.083,0-4.591,2.336-4.591,5.088
		c0,2.127,1.328,3.664,3.788,3.664c1.983,0,3.083-0.785,3.952-1.729l-1.361-1.312c-0.541,0.48-1.05,0.896-2.034,0.896
		c-0.951,0-1.542-0.48-1.508-1.584h5.067C342.137,496.55,342.17,496.375,342.219,496.054L342.219,496.054z M339.464,495.126h-2.197
		c0.214-1.008,0.705-1.439,1.279-1.439C339.218,493.687,339.579,494.119,339.464,495.126L339.464,495.126z M350.302,497.333
		c0-1.326-0.655-1.951-3.247-2.623c-0.573-0.145-0.737-0.305-0.722-0.545c0.017-0.256,0.345-0.432,0.853-0.416
		c0.525,0,1.23,0.193,1.984,0.689l1.427-1.408c-1.114-0.865-2.345-1.266-3.525-1.266c-2,0-3.657,1.057-3.657,2.85
		c0,1.535,0.902,2.207,3.198,2.928c0.688,0.207,0.771,0.32,0.771,0.576s-0.295,0.447-0.82,0.463
		c-0.655,0.018-1.591-0.271-2.312-1.039l-1.624,1.232c0.951,1.184,2.46,1.742,3.903,1.742
		C348.499,500.519,350.302,499.382,350.302,497.333L350.302,497.333z M355.827,500.359l0.295-2.16
		c-0.229,0.047-0.426,0.08-0.754,0.08c-0.574,0-0.787-0.336-0.705-0.93l0.426-3.297h1.493l0.311-2.109H355.4l0.36-2.752h-2.984
		l-0.361,2.752h-0.869l-0.311,2.109h0.868c0,0-0.427,3.008-0.491,3.439c-0.279,1.84,0.442,2.961,2.591,2.961
		C354.909,500.455,355.434,500.423,355.827,500.359L355.827,500.359z M364.433,497.333c0-1.326-0.655-1.951-3.247-2.623
		c-0.573-0.145-0.737-0.305-0.721-0.545c0.017-0.256,0.344-0.432,0.853-0.416c0.524,0,1.229,0.193,1.984,0.689l1.426-1.408
		c-1.114-0.865-2.345-1.266-3.524-1.266c-2.001,0-3.657,1.057-3.657,2.85c0,1.535,0.902,2.207,3.197,2.928
		c0.688,0.207,0.771,0.32,0.771,0.576s-0.295,0.447-0.819,0.463c-0.656,0.018-1.591-0.271-2.312-1.039l-1.623,1.232
		c0.951,1.184,2.459,1.742,3.902,1.742C362.628,500.519,364.433,499.382,364.433,497.333L364.433,497.333z M372.576,497.91
		l-2.197-1.15c-0.459,1.199-0.869,1.551-1.428,1.551c-0.541,0-0.9-0.576-0.9-1.439c0-1.553,0.441-2.928,1.377-2.928
		c0.656,0,0.951,0.561,1.033,1.312l2.508-0.865c-0.229-1.52-1.245-2.623-3.492-2.623c-2.771,0-4.361,2.16-4.361,5.039
		c0,1.855,0.983,3.713,3.559,3.713C370.739,500.519,372.002,499.351,372.576,497.91L372.576,497.91z M381.029,500.343l0.869-6.4
		c0.196-1.457-0.345-2.176-1.607-2.176c-1.033,0-1.935,0.447-2.951,1.199l0.591-4.463h-3.033l-1.592,11.84h3.034l0.754-5.617
		c0.377-0.32,0.82-0.561,1.197-0.561c0.344,0,0.508,0.209,0.459,0.576l-0.754,5.602H381.029L381.029,500.343z M394.873,491.943
		h-2.559l-1.56,4.127h-0.031l-0.51-4.127h-2.229l-1.723,4.127h-0.032l-0.345-4.127h-3.002l1.429,8.398h2.36l1.656-4.209h0.032
		l0.442,4.209h2.378L394.873,491.943L394.873,491.943z M402.469,496.054c0.312-2.176-0.819-4.287-3.428-4.287
		c-3.082,0-4.592,2.336-4.592,5.088c0,2.127,1.329,3.664,3.788,3.664c1.984,0,3.083-0.785,3.953-1.729l-1.362-1.312
		c-0.541,0.48-1.049,0.896-2.033,0.896c-0.951,0-1.541-0.48-1.508-1.584h5.066C402.387,496.55,402.42,496.375,402.469,496.054
		L402.469,496.054z M399.713,495.126h-2.196c0.214-1.008,0.705-1.439,1.278-1.439C399.467,493.687,399.828,494.119,399.713,495.126
		L399.713,495.126z M407.305,491.095l0.345-2.592h-3.033l-0.345,2.592H407.305L407.305,491.095z M406.059,500.343l1.148-8.4h-3.035
		l-1.146,8.4H406.059L406.059,500.343z M414.295,500.343l0.295-2.113h-3.508l4.065-4.24l0.296-2.047h-6.758l-0.312,2.111h3.312
		l-4.065,4.24l-0.279,2.049H414.295L414.295,500.343z"/>
	<polygon fill="#FFFFFF" points="357.547,414.943 357.547,479.658 415.84,479.658 415.84,414.943 	"/>
	<g>
		<g>
			<defs>
				<rect id="SVGID_1_" x="288" y="360.001" width="127.847" height="125.194"/>
			</defs>
			<clipPath id="SVGID_2_">
				<use xlink:href="#SVGID_1_"  overflow="visible"/>
			</clipPath>
			<polygon clip-path="url(#SVGID_2_)" fill="#2A4D86" points="388.732,458.511 412.5,458.511 409.804,471.695 364.557,471.695
				367.155,458.111 395.523,432.843 373.248,432.843 375.947,419.65 415.846,419.65 415.846,360 288,360 288,487.847
				415.846,487.847 415.847,434.527 			"/>
		</g>
	</g>
	<path fill="#FFFFFF" d="M353.49,418.454c-6.791,0-12.285,2.701-16.778,7.493h-0.204l6.494-29.167h-17.68l-13.782,61.924
		c-1.199,5.197-2.399,9.695-3.595,12.99h16.68l2.595-9.793h0.198c3.197,7.393,9.191,10.986,18.08,10.986
		c18.779,0,27.367-15.877,27.367-32.955C372.866,428.246,366.275,418.454,353.49,418.454L353.49,418.454z"/>
	<path fill="#2A4D86" d="M340.704,459.113c8.492,0,13.587-8.096,13.587-16.188c0-6.391-2.9-10.686-8.593-10.686
		c-8.491,0-13.582,9.385-13.582,16.281C332.117,453.818,334.71,459.113,340.704,459.113L340.704,459.113z"/>
</g>
</svg>
