<!-- Generator: Adobe Illustrator 16.0.4, SVG Export Plug-In . SVG Version: 6.00 Build 0)  -->
<!DOCTYPE svg PUBLIC "-//W3C//DTD SVG 1.1//EN" "http://www.w3.org/Graphics/SVG/1.1/DTD/svg11.dtd">
<svg version="1.1" id="Ebene_1" xmlns="http://www.w3.org/2000/svg" xmlns:xlink="http://www.w3.org/1999/xlink" x="0px" y="0px"
	 width="663.008px" height="140.539px" viewBox="0 0 663.008 140.539" enable-background="new 0 0 663.008 140.539"
	 xml:space="preserve">
<g>
	<path d="M165.69,124.652h61.873l2.264-24.91h-1.385c-2.641,5.867-5.028,11.137-7.797,15.09c-4.652,6.588-5.783,7.307-28.923,7.307
		H181.66v-0.479l48.291-77.25v-2.754h-57.848l-1.761,23.954h1.383c2.642-5.989,4.653-10.181,7.294-14.733
		c2.769-4.67,4.779-6.586,24.271-6.586h10.438v0.479l-48.039,77.012L165.69,124.652L165.69,124.652z M285.661,67.164h-1.383
		c-0.881,3.594-1.762,6.707-3.019,8.863c-1.761,3.594-3.396,4.193-13.959,4.193h-7.294V45.486c3.646-0.719,7.797-1.078,14.085-1.078
		c11.317,0,14.336,0.719,17.855,5.988c1.762,2.756,3.898,7.186,6.162,12.217h1.384l-1.384-20.959h-62.248v1.317l4.652,0.838
		c4.527,0.958,5.03,1.317,5.03,7.427v63.836c0,6.107-0.629,6.467-5.03,7.426l-4.652,0.838v1.316h64.765l1.761-25.15h-1.509
		c-2.392,6.107-4.779,12.217-7.672,16.289c-3.772,4.789-5.533,6.107-17.731,6.107c-14.839,0-15.468-0.479-15.468-9.582V82.974h7.294
		c10.437,0,12.323,0.479,13.959,4.07c1.131,2.277,2.138,5.391,3.019,8.863h1.383V67.164L285.661,67.164z M307.038,124.652h33.953
		v-1.316l-4.652-0.838c-4.652-0.84-5.156-1.318-5.156-7.426V51.236c0-6.109,0.504-6.588,5.156-7.427l4.652-0.838v-1.317h-33.953
		v1.317l4.779,0.838c4.525,0.839,5.029,1.317,5.029,7.427v63.836c0,6.107-0.504,6.586-5.029,7.426l-4.779,0.838V124.652
		L307.038,124.652z M391.293,44.289c10.939,0,12.574,2.035,15.342,7.545c1.885,3.832,4.148,8.982,6.287,14.492h1.51l-1.26-24.672
		h-66.65l-1.383,24.672h1.51c2.264-5.51,4.527-10.66,6.539-14.492c2.641-5.389,4.402-7.545,15.342-7.545h4.15v70.783
		c0,6.107-0.502,6.586-5.281,7.426l-4.779,0.838v1.316h34.457v-1.316l-4.652-0.838c-5.029-0.959-5.406-1.438-5.406-7.426V44.289
		H391.293L391.293,44.289z M460.432,125.851c22.133,0,30.307-11.498,30.307-26.229V53.272c0-6.707,0.754-8.384,4.779-9.223
		l4.904-1.077v-1.317h-25.025v1.317l5.785,1.077c4.902,0.959,5.154,2.755,5.154,9.462v44.913c0,14.611-6.16,22.277-21.379,22.277
		c-15.467,0-22.76-6.467-22.76-21.559V51.236c0-6.109,0.502-6.469,5.156-7.427l4.525-0.838v-1.317h-33.828v1.317l4.777,0.838
		c4.527,0.839,5.029,1.317,5.029,7.427v47.188C427.86,118.544,439.934,125.851,460.432,125.851L460.432,125.851z M568.329,125.13
		h4.904V53.272c0-6.707,0.754-8.145,4.904-9.223l4.525-1.077v-1.317h-23.516v1.317l5.408,1.077c4.652,1.078,5.154,2.396,5.154,9.462
		v48.744h-0.377l-41.5-60.602h-24.145v1.317l4.402,0.838c4.021,0.839,5.027,1.916,5.027,7.427v61.68
		c0,7.186-0.881,8.264-4.902,9.342l-4.779,1.078v1.316h23.391v-1.316l-4.904-1.078c-4.779-1.197-5.281-2.273-5.281-9.463V50.397
		h0.377L568.329,125.13L568.329,125.13z M626.54,125.851c12.701,0,23.141-2.637,28.547-4.553V99.742c0-5.031,0.377-5.99,3.396-6.469
		l4.525-0.838v-1.318h-31.689v1.318l4.779,0.838c4.652,0.84,5.029,1.438,5.029,7.426v19.164c-3.02,1.795-8.051,3.352-15.092,3.352
		c-19.365,0-26.66-14.252-26.66-42.156c0-27.666,10.939-37.966,27.793-37.966c8.803,0,12.826,2.154,17.104,7.783
		c3.521,4.672,5.156,8.625,7.797,14.492h1.383l-1.258-22.037c-6.162-1.916-14.084-2.873-23.768-2.873
		c-21.254,0-44.018,9.701-44.018,43.474C584.411,112.078,599.627,125.851,626.54,125.851L626.54,125.851z"/>
	<path fill="none" stroke="#000000" stroke-width="0.3073" stroke-miterlimit="5.5921" d="M165.69,124.652h61.873l2.264-24.91
		h-1.385c-2.641,5.867-5.028,11.137-7.797,15.09c-4.652,6.588-5.783,7.307-28.923,7.307H181.66v-0.479l48.291-77.25v-2.754h-57.848
		l-1.761,23.954h1.383c2.642-5.989,4.653-10.181,7.294-14.733c2.769-4.67,4.779-6.586,24.271-6.586h10.438v0.479l-48.039,77.012
		L165.69,124.652L165.69,124.652z M285.661,67.164h-1.383c-0.881,3.594-1.762,6.707-3.019,8.863
		c-1.761,3.594-3.396,4.193-13.959,4.193h-7.294V45.486c3.646-0.719,7.797-1.078,14.085-1.078c11.317,0,14.336,0.719,17.855,5.988
		c1.762,2.756,3.898,7.186,6.162,12.217h1.384l-1.384-20.959h-62.248v1.317l4.652,0.838c4.527,0.958,5.03,1.317,5.03,7.427v63.836
		c0,6.107-0.629,6.467-5.03,7.426l-4.652,0.838v1.316h64.765l1.761-25.15h-1.509c-2.392,6.107-4.779,12.217-7.672,16.289
		c-3.772,4.789-5.533,6.107-17.731,6.107c-14.839,0-15.468-0.479-15.468-9.582V82.974h7.294c10.437,0,12.323,0.479,13.959,4.07
		c1.131,2.277,2.138,5.391,3.019,8.863h1.383V67.164L285.661,67.164z M307.038,124.652h33.953v-1.316l-4.652-0.838
		c-4.652-0.84-5.156-1.318-5.156-7.426V51.236c0-6.109,0.504-6.588,5.156-7.427l4.652-0.838v-1.317h-33.953v1.317l4.779,0.838
		c4.525,0.839,5.029,1.317,5.029,7.427v63.836c0,6.107-0.504,6.586-5.029,7.426l-4.779,0.838V124.652L307.038,124.652z
		 M391.293,44.289c10.939,0,12.574,2.035,15.342,7.545c1.885,3.832,4.148,8.982,6.287,14.492h1.51l-1.26-24.672h-66.65
		l-1.383,24.672h1.51c2.264-5.51,4.527-10.66,6.539-14.492c2.641-5.389,4.402-7.545,15.342-7.545h4.15v70.783
		c0,6.107-0.502,6.586-5.281,7.426l-4.779,0.838v1.316h34.457v-1.316l-4.652-0.838c-5.029-0.959-5.406-1.438-5.406-7.426V44.289
		H391.293L391.293,44.289z M460.432,125.851c22.133,0,30.307-11.498,30.307-26.229V53.272c0-6.707,0.754-8.384,4.779-9.223
		l4.904-1.077v-1.317h-25.025v1.317l5.785,1.077c4.902,0.959,5.154,2.755,5.154,9.462v44.913c0,14.611-6.16,22.277-21.379,22.277
		c-15.467,0-22.76-6.467-22.76-21.559V51.236c0-6.109,0.502-6.469,5.156-7.427l4.525-0.838v-1.317h-33.828v1.317l4.777,0.838
		c4.527,0.839,5.029,1.317,5.029,7.427v47.188C427.86,118.544,439.934,125.851,460.432,125.851L460.432,125.851z M568.329,125.13
		h4.904V53.272c0-6.707,0.754-8.145,4.904-9.223l4.525-1.077v-1.317h-23.516v1.317l5.408,1.077c4.652,1.078,5.154,2.396,5.154,9.462
		v48.744h-0.377l-41.5-60.602h-24.145v1.317l4.402,0.838c4.021,0.839,5.027,1.916,5.027,7.427v61.68
		c0,7.186-0.881,8.264-4.902,9.342l-4.779,1.078v1.316h23.391v-1.316l-4.904-1.078c-4.779-1.197-5.281-2.273-5.281-9.463V50.397
		h0.377L568.329,125.13L568.329,125.13z M626.54,125.851c12.701,0,23.141-2.637,28.547-4.553V99.742c0-5.031,0.377-5.99,3.396-6.469
		l4.525-0.838v-1.318h-31.689v1.318l4.779,0.838c4.652,0.84,5.029,1.438,5.029,7.426v19.164c-3.02,1.795-8.051,3.352-15.092,3.352
		c-19.365,0-26.66-14.252-26.66-42.156c0-27.666,10.939-37.966,27.793-37.966c8.803,0,12.826,2.154,17.104,7.783
		c3.521,4.672,5.156,8.625,7.797,14.492h1.383l-1.258-22.037c-6.162-1.916-14.084-2.873-23.768-2.873
		c-21.254,0-44.018,9.701-44.018,43.474C584.411,112.078,599.627,125.851,626.54,125.851L626.54,125.851z"/>
	<path d="M168.45,29.703h12.474c6.636,0,10.794-2.721,10.794-7.801c0-4.199-2.898-6.359-8.441-6.8v-0.08
		c4.451-0.76,6.931-2.84,6.931-6.521c0-4.68-3.906-6.52-10.206-6.52H168.45V2.42l1.555,0.281c1.512,0.279,1.68,0.439,1.68,2.479
		v21.319c0,2.041-0.168,2.201-1.68,2.48l-1.555,0.28V29.703L168.45,29.703z M180.798,28.783c-3.738,0-4.326-0.4-4.326-3.041v-9.92
		h3.654c4.746,0,6.51,1.92,6.51,6.36C186.636,26.582,184.62,28.783,180.798,28.783L180.798,28.783z M176.472,14.863V3.222
		c0.714-0.2,1.932-0.32,3.107-0.32c4.116,0,5.839,1.641,5.839,5.92c0,4.2-2.186,6.041-5.839,6.041H176.472L176.472,14.863z
		 M191.423,29.703h7.477v-0.44l-1.135-0.24c-1.302-0.319-1.764-0.8-1.764-1.76c0-0.64,0.168-1.521,0.714-3.04l1.638-4.561h8.988
		l1.848,5.44c0.252,0.681,0.547,1.72,0.547,2.319c0,0.801-0.295,1.32-1.681,1.641l-0.966,0.2v0.44h11.13v-0.44l-0.882-0.2
		c-1.22-0.279-1.724-1-2.855-4.08l-8.358-23h-2.269l-8.609,22.52c-1.387,3.681-1.639,4.16-3.107,4.561l-0.714,0.2L191.423,29.703
		L191.423,29.703z M202.931,7.183h0.126l3.948,11.521h-8.273L202.931,7.183L202.931,7.183z M227.991,30.103
		c6.512,0,9.66-4.159,9.66-8.16c0-4.239-2.436-6.04-8.44-8.8c-4.074-1.84-5.629-3.16-5.629-6.12s1.933-4.56,5.166-4.56
		c2.437,0,3.317,0.64,4.536,2.439c0.841,1.16,1.513,2.48,2.353,4.24h0.504l-0.462-6.48c-1.302-0.6-3.653-1.08-6.51-1.08
		c-5.712,0-9.072,3.4-9.072,7.681c0,4.159,2.98,6.319,7.224,8.159c4.873,2.281,6.47,3.641,6.47,6.641c0,3.08-2.017,5.16-5.461,5.16
		c-2.897,0-4.451-0.92-5.755-2.84c-1.008-1.44-1.68-2.84-2.562-4.68h-0.546l0.546,7.039
		C221.901,29.623,224.632,30.103,227.991,30.103L227.991,30.103z M255.354,10.502h-0.462c-0.294,1.201-0.588,2.24-1.008,2.961
		c-0.588,1.199-1.134,1.4-4.662,1.4h-2.437V3.262c1.219-0.24,2.604-0.36,4.704-0.36c3.779,0,4.787,0.24,5.964,2
		c0.589,0.92,1.303,2.4,2.059,4.08h0.462l-0.462-7h-20.79v0.439l1.554,0.281c1.513,0.319,1.681,0.439,1.681,2.479V26.5
		c0,2.041-0.209,2.16-1.681,2.48l-1.554,0.28v0.44h21.63l0.588-8.4h-0.504c-0.798,2.04-1.596,4.08-2.562,5.439
		c-1.261,1.6-1.849,2.041-5.922,2.041c-4.955,0-5.166-0.16-5.166-3.201V15.78h2.437c3.486,0,4.116,0.159,4.662,1.359
		c0.378,0.76,0.714,1.8,1.008,2.96h0.462L255.354,10.502L255.354,10.502z M262.708,29.703h20.916l0.588-8.721h-0.546
		c-0.798,2.16-1.639,4.08-2.479,5.52c-1.177,1.961-2.017,2.32-6.007,2.32c-4.2,0-4.409-0.48-4.409-2.72V5.182
		c0-2.04,0.168-2.239,1.721-2.479l1.556-0.281V1.983h-11.34v0.439l1.554,0.281c1.513,0.279,1.681,0.439,1.681,2.479v21.319
		c0,2.041-0.211,2.201-1.681,2.48l-1.554,0.28V29.703L262.708,29.703z M285.799,29.703h20.916l0.588-8.721h-0.546
		c-0.798,2.16-1.639,4.08-2.479,5.52c-1.176,1.961-2.016,2.32-6.006,2.32c-4.199,0-4.41-0.48-4.41-2.72V5.182
		c0-2.04,0.168-2.239,1.724-2.479l1.554-0.281V1.983h-11.34v0.439l1.554,0.281c1.512,0.279,1.68,0.439,1.68,2.479v21.319
		c0,2.041-0.209,2.201-1.68,2.48l-1.554,0.28V29.703L285.799,29.703z M308.353,29.703h7.478v-0.44l-1.137-0.24
		c-1.301-0.319-1.764-0.8-1.764-1.76c0-0.64,0.168-1.521,0.715-3.04l1.637-4.561h8.988l1.85,5.44
		c0.252,0.681,0.547,1.72,0.547,2.319c0,0.801-0.295,1.32-1.682,1.641l-0.967,0.2v0.44h11.131v-0.44l-0.883-0.2
		c-1.217-0.279-1.721-1-2.854-4.08l-8.359-23h-2.268l-8.609,22.52c-1.387,3.681-1.639,4.16-3.107,4.561l-0.715,0.2L308.353,29.703
		L308.353,29.703z M319.86,7.183h0.127l3.947,11.521h-8.271L319.86,7.183L319.86,7.183z M358.079,29.863h1.639v-24
		c0-2.24,0.252-2.721,1.639-3.08l1.512-0.361V1.983h-7.854v0.439l1.807,0.361c1.555,0.359,1.723,0.799,1.723,3.16v16.279h-0.127
		l-13.859-20.24h-8.064v0.439l1.473,0.281c1.344,0.279,1.68,0.639,1.68,2.479v20.601c0,2.399-0.295,2.76-1.639,3.119l-1.598,0.36
		v0.44h7.812v-0.44l-1.639-0.36c-1.596-0.4-1.764-0.76-1.764-3.16V4.901h0.127L358.079,29.863L358.079,29.863z M364.682,29.703
		h12.557c8.443,0,14.322-4.801,14.322-14.16c0-10.121-6.131-13.561-14.027-13.561h-12.852v0.439l1.553,0.281
		c1.514,0.279,1.682,0.439,1.682,2.479V26.5c0,2.041-0.168,2.201-1.682,2.48l-1.553,0.28V29.703L364.682,29.703z M376.946,28.822
		c-3.736,0-4.199-0.52-4.199-3.039V3.222c0.967-0.24,2.352-0.32,4.115-0.32c6.932,0,9.617,4.04,9.617,13.439
		C386.479,23.662,384.338,28.822,376.946,28.822L376.946,28.822z M401.905,30.103c6.512,0,9.66-4.159,9.66-8.16
		c0-4.239-2.436-6.04-8.439-8.8c-4.074-1.84-5.631-3.16-5.631-6.12s1.934-4.56,5.166-4.56c2.438,0,3.318,0.64,4.537,2.439
		c0.842,1.16,1.514,2.48,2.354,4.24h0.504l-0.463-6.48c-1.301-0.6-3.652-1.08-6.51-1.08c-5.711,0-9.072,3.4-9.072,7.681
		c0,4.159,2.98,6.319,7.225,8.159c4.873,2.281,6.469,3.641,6.469,6.641c0,3.08-2.016,5.16-5.461,5.16
		c-2.896,0-4.451-0.92-5.754-2.84c-1.008-1.44-1.68-2.84-2.562-4.68h-0.545l0.545,7.039
		C395.815,29.623,398.545,30.103,401.905,30.103L401.905,30.103z M426.516,30.103c4.158,0,7.182-0.681,9.197-1.479l0.506-7.4h-0.506
		c-0.756,1.641-1.469,3.439-2.268,4.8c-1.428,2.56-2.814,3.2-6.678,3.2c-5.291,0-8.105-4.12-8.105-13.92
		c0-9.08,3.695-12.84,8.861-12.84c2.898,0,4.117,0.56,5.586,3c0.924,1.479,1.555,2.84,2.395,4.52h0.504l-0.547-7.48
		c-1.764-0.479-4.283-0.92-7.518-0.92c-7.475,0-14.363,3.84-14.363,14.48C413.581,26.022,418.999,30.103,426.516,30.103
		L426.516,30.103z M438.184,29.703h11.256v-0.44l-1.471-0.28c-1.596-0.32-1.723-0.439-1.723-2.48V16.024h12.602v10.479
		c0,2.041-0.168,2.16-1.723,2.48l-1.512,0.28v0.44h11.297v-0.44l-1.596-0.28c-1.469-0.279-1.637-0.439-1.637-2.48V5.184
		c0-2.04,0.168-2.2,1.637-2.479l1.596-0.281V1.985h-11.297v0.439l1.512,0.281c1.555,0.319,1.723,0.439,1.723,2.479v9.88h-12.602
		v-9.88c0-2.04,0.127-2.16,1.723-2.479l1.471-0.281V1.985h-11.256v0.439l1.553,0.281c1.514,0.279,1.682,0.439,1.682,2.479v21.319
		c0,2.041-0.168,2.201-1.682,2.48l-1.553,0.28V29.703L438.184,29.703z M468.305,29.703h7.477v-0.44l-1.135-0.24
		c-1.301-0.319-1.764-0.8-1.764-1.76c0-0.64,0.168-1.521,0.715-3.04l1.637-4.561h8.988l1.848,5.44
		c0.252,0.681,0.547,1.72,0.547,2.319c0,0.801-0.295,1.32-1.68,1.641l-0.967,0.2v0.44h11.131v-0.44l-0.883-0.2
		c-1.219-0.279-1.723-1-2.855-4.08l-8.357-23h-2.27l-8.607,22.52c-1.389,3.681-1.641,4.16-3.107,4.561l-0.715,0.2v0.44H468.305z
		 M479.813,7.183h0.127l3.947,11.521h-8.273L479.813,7.183L479.813,7.183z M506.696,16.223c3.697,0,4.158,0.24,4.746,1.68
		c0.379,0.84,0.631,1.801,0.967,3h0.461v-10.24h-0.461c-0.336,1.201-0.588,2.32-1.008,3.24c-0.504,1.2-1.176,1.4-4.705,1.4h-2.1
		V3.223c1.092-0.24,2.268-0.359,4.494-0.359c4.031,0,4.746,0.359,5.838,2.359c0.588,1.04,1.176,2.439,1.975,4.359h0.545l-0.42-7.6
		h-20.496v0.439l1.557,0.281c1.512,0.279,1.68,0.439,1.68,2.479V26.5c0,2.041-0.209,2.201-1.68,2.48l-1.557,0.28v0.44h11.805v-0.44
		l-2.018-0.28c-1.555-0.24-1.723-0.439-1.723-2.48V16.221h2.1V16.223z M534.774,2.863c3.654,0,4.199,0.68,5.123,2.52
		c0.631,1.279,1.387,3,2.102,4.84h0.504l-0.42-8.24h-22.262l-0.461,8.24h0.504c0.758-1.84,1.514-3.561,2.186-4.84
		c0.883-1.801,1.471-2.52,5.123-2.52h1.387v23.639c0,2.041-0.168,2.201-1.764,2.48l-1.598,0.28v0.44h11.51v-0.44l-1.557-0.28
		c-1.68-0.32-1.805-0.48-1.805-2.48V2.863H534.774L534.774,2.863z M544.096,29.703h20.916l0.588-8.721h-0.545
		c-0.799,2.16-1.639,4.08-2.479,5.52c-1.176,1.961-2.016,2.32-6.006,2.32c-4.201,0-4.41-0.48-4.41-2.72V5.182
		c0-2.04,0.168-2.239,1.721-2.479l1.555-0.281V1.983h-11.34v0.439l1.555,0.281c1.514,0.279,1.682,0.439,1.682,2.479v21.319
		c0,2.041-0.211,2.201-1.682,2.48l-1.555,0.28V29.703L544.096,29.703z M567.188,29.703h11.34v-0.44l-1.555-0.28
		c-1.555-0.279-1.723-0.439-1.723-2.48V5.184c0-2.04,0.168-2.2,1.723-2.479l1.555-0.281V1.985h-11.34v0.439l1.596,0.281
		c1.514,0.279,1.682,0.439,1.682,2.479v21.319c0,2.041-0.168,2.201-1.682,2.48l-1.596,0.28V29.703L567.188,29.703z M592.471,30.103
		c4.158,0,7.182-0.681,9.197-1.479l0.504-7.4h-0.504c-0.756,1.641-1.469,3.439-2.268,4.8c-1.428,2.56-2.814,3.2-6.678,3.2
		c-5.291,0-8.105-4.12-8.105-13.92c0-9.08,3.695-12.84,8.861-12.84c2.898,0,4.117,0.56,5.586,3c0.924,1.479,1.555,2.84,2.395,4.52
		h0.504l-0.547-7.48c-1.764-0.479-4.283-0.92-7.518-0.92c-7.477,0-14.363,3.84-14.363,14.48
		C579.536,26.022,584.954,30.103,592.471,30.103L592.471,30.103z M604.139,29.703h11.256v-0.44l-1.471-0.28
		c-1.596-0.32-1.723-0.439-1.723-2.48V16.024h12.602v10.479c0,2.041-0.168,2.16-1.723,2.48l-1.512,0.28v0.44h11.297v-0.44
		l-1.596-0.28c-1.471-0.279-1.639-0.439-1.639-2.48V5.184c0-2.04,0.168-2.2,1.639-2.479l1.596-0.281V1.985h-11.297v0.439
		l1.512,0.281c1.555,0.319,1.723,0.439,1.723,2.479v9.88h-12.602v-9.88c0-2.04,0.127-2.16,1.723-2.479l1.471-0.281V1.985h-11.256
		v0.439l1.553,0.281c1.514,0.279,1.682,0.439,1.682,2.479v21.319c0,2.041-0.17,2.201-1.682,2.48l-1.553,0.28V29.703L604.139,29.703z
		 M651.311,10.502h-0.461c-0.295,1.201-0.588,2.24-1.01,2.961c-0.588,1.199-1.133,1.4-4.66,1.4h-2.438V3.262
		c1.219-0.24,2.605-0.36,4.705-0.36c3.779,0,4.787,0.24,5.963,2c0.588,0.92,1.303,2.4,2.059,4.08h0.463l-0.463-7H634.68v0.439
		l1.553,0.281c1.514,0.319,1.682,0.439,1.682,2.479V26.5c0,2.041-0.209,2.16-1.682,2.48l-1.553,0.28v0.44h21.629l0.588-8.4h-0.504
		c-0.797,2.04-1.596,4.08-2.561,5.439c-1.262,1.6-1.85,2.041-5.922,2.041c-4.955,0-5.166-0.16-5.166-3.201V15.78h2.438
		c3.484,0,4.115,0.159,4.66,1.359c0.379,0.76,0.715,1.8,1.01,2.96h0.461v-9.597H651.311z"/>
	<path fill="none" stroke="#000000" stroke-width="0.2049" stroke-miterlimit="5.5921" d="M168.45,29.703h12.474
		c6.636,0,10.794-2.721,10.794-7.801c0-4.199-2.898-6.359-8.441-6.8v-0.08c4.451-0.76,6.931-2.84,6.931-6.521
		c0-4.68-3.906-6.52-10.206-6.52H168.45V2.42l1.555,0.281c1.512,0.279,1.68,0.439,1.68,2.479v21.319c0,2.041-0.168,2.201-1.68,2.48
		l-1.555,0.28V29.703L168.45,29.703z M180.798,28.783c-3.738,0-4.326-0.4-4.326-3.041v-9.92h3.654c4.746,0,6.51,1.92,6.51,6.36
		C186.636,26.582,184.62,28.783,180.798,28.783L180.798,28.783z M176.472,14.863V3.222c0.714-0.2,1.932-0.32,3.107-0.32
		c4.116,0,5.839,1.641,5.839,5.92c0,4.2-2.186,6.041-5.839,6.041H176.472L176.472,14.863z M191.423,29.703h7.477v-0.44l-1.135-0.24
		c-1.302-0.319-1.764-0.8-1.764-1.76c0-0.64,0.168-1.521,0.714-3.04l1.638-4.561h8.988l1.848,5.44
		c0.252,0.681,0.547,1.72,0.547,2.319c0,0.801-0.295,1.32-1.681,1.641l-0.966,0.2v0.44h11.13v-0.44l-0.882-0.2
		c-1.22-0.279-1.724-1-2.855-4.08l-8.358-23h-2.269l-8.609,22.52c-1.387,3.681-1.639,4.16-3.107,4.561l-0.714,0.2L191.423,29.703
		L191.423,29.703z M202.931,7.183h0.126l3.948,11.521h-8.273L202.931,7.183L202.931,7.183z M227.991,30.103
		c6.512,0,9.66-4.159,9.66-8.16c0-4.239-2.436-6.04-8.44-8.8c-4.074-1.84-5.629-3.16-5.629-6.12s1.933-4.56,5.166-4.56
		c2.437,0,3.317,0.64,4.536,2.439c0.841,1.16,1.513,2.48,2.353,4.24h0.504l-0.462-6.48c-1.302-0.6-3.653-1.08-6.51-1.08
		c-5.712,0-9.072,3.4-9.072,7.681c0,4.159,2.98,6.319,7.224,8.159c4.873,2.281,6.47,3.641,6.47,6.641c0,3.08-2.017,5.16-5.461,5.16
		c-2.897,0-4.451-0.92-5.755-2.84c-1.008-1.44-1.68-2.84-2.562-4.68h-0.546l0.546,7.039
		C221.901,29.623,224.632,30.103,227.991,30.103L227.991,30.103z M255.354,10.502h-0.462c-0.294,1.201-0.588,2.24-1.008,2.961
		c-0.588,1.199-1.134,1.4-4.662,1.4h-2.437V3.262c1.219-0.24,2.604-0.36,4.704-0.36c3.779,0,4.787,0.24,5.964,2
		c0.589,0.92,1.303,2.4,2.059,4.08h0.462l-0.462-7h-20.79v0.439l1.554,0.281c1.513,0.319,1.681,0.439,1.681,2.479V26.5
		c0,2.041-0.209,2.16-1.681,2.48l-1.554,0.28v0.44h21.63l0.588-8.4h-0.504c-0.798,2.04-1.596,4.08-2.562,5.439
		c-1.261,1.6-1.849,2.041-5.922,2.041c-4.955,0-5.166-0.16-5.166-3.201V15.78h2.437c3.486,0,4.116,0.159,4.662,1.359
		c0.378,0.76,0.714,1.8,1.008,2.96h0.462L255.354,10.502L255.354,10.502z M262.708,29.703h20.916l0.588-8.721h-0.546
		c-0.798,2.16-1.639,4.08-2.479,5.52c-1.177,1.961-2.017,2.32-6.007,2.32c-4.2,0-4.409-0.48-4.409-2.72V5.182
		c0-2.04,0.168-2.239,1.721-2.479l1.556-0.281V1.983h-11.34v0.439l1.554,0.281c1.513,0.279,1.681,0.439,1.681,2.479v21.319
		c0,2.041-0.211,2.201-1.681,2.48l-1.554,0.28V29.703L262.708,29.703z M285.799,29.703h20.916l0.588-8.721h-0.546
		c-0.798,2.16-1.639,4.08-2.479,5.52c-1.176,1.961-2.016,2.32-6.006,2.32c-4.199,0-4.41-0.48-4.41-2.72V5.182
		c0-2.04,0.168-2.239,1.724-2.479l1.554-0.281V1.983h-11.34v0.439l1.554,0.281c1.512,0.279,1.68,0.439,1.68,2.479v21.319
		c0,2.041-0.209,2.201-1.68,2.48l-1.554,0.28V29.703L285.799,29.703z M308.353,29.703h7.478v-0.44l-1.137-0.24
		c-1.301-0.319-1.764-0.8-1.764-1.76c0-0.64,0.168-1.521,0.715-3.04l1.637-4.561h8.988l1.85,5.44
		c0.252,0.681,0.547,1.72,0.547,2.319c0,0.801-0.295,1.32-1.682,1.641l-0.967,0.2v0.44h11.131v-0.44l-0.883-0.2
		c-1.217-0.279-1.721-1-2.854-4.08l-8.359-23h-2.268l-8.609,22.52c-1.387,3.681-1.639,4.16-3.107,4.561l-0.715,0.2L308.353,29.703
		L308.353,29.703z M319.86,7.183h0.127l3.947,11.521h-8.271L319.86,7.183L319.86,7.183z M358.079,29.863h1.639v-24
		c0-2.24,0.252-2.721,1.639-3.08l1.512-0.361V1.983h-7.854v0.439l1.807,0.361c1.555,0.359,1.723,0.799,1.723,3.16v16.279h-0.127
		l-13.859-20.24h-8.064v0.439l1.473,0.281c1.344,0.279,1.68,0.639,1.68,2.479v20.601c0,2.399-0.295,2.76-1.639,3.119l-1.598,0.36
		v0.44h7.812v-0.44l-1.639-0.36c-1.596-0.4-1.764-0.76-1.764-3.16V4.901h0.127L358.079,29.863L358.079,29.863z M364.682,29.703
		h12.557c8.443,0,14.322-4.801,14.322-14.16c0-10.121-6.131-13.561-14.027-13.561h-12.852v0.439l1.553,0.281
		c1.514,0.279,1.682,0.439,1.682,2.479V26.5c0,2.041-0.168,2.201-1.682,2.48l-1.553,0.28V29.703L364.682,29.703z M376.946,28.822
		c-3.736,0-4.199-0.52-4.199-3.039V3.222c0.967-0.24,2.352-0.32,4.115-0.32c6.932,0,9.617,4.04,9.617,13.439
		C386.479,23.662,384.338,28.822,376.946,28.822L376.946,28.822z M401.905,30.103c6.512,0,9.66-4.159,9.66-8.16
		c0-4.239-2.436-6.04-8.439-8.8c-4.074-1.84-5.631-3.16-5.631-6.12s1.934-4.56,5.166-4.56c2.438,0,3.318,0.64,4.537,2.439
		c0.842,1.16,1.514,2.48,2.354,4.24h0.504l-0.463-6.48c-1.301-0.6-3.652-1.08-6.51-1.08c-5.711,0-9.072,3.4-9.072,7.681
		c0,4.159,2.98,6.319,7.225,8.159c4.873,2.281,6.469,3.641,6.469,6.641c0,3.08-2.016,5.16-5.461,5.16
		c-2.896,0-4.451-0.92-5.754-2.84c-1.008-1.44-1.68-2.84-2.562-4.68h-0.545l0.545,7.039
		C395.815,29.623,398.545,30.103,401.905,30.103L401.905,30.103z M426.516,30.103c4.158,0,7.182-0.681,9.197-1.479l0.506-7.4h-0.506
		c-0.756,1.641-1.469,3.439-2.268,4.8c-1.428,2.56-2.814,3.2-6.678,3.2c-5.291,0-8.105-4.12-8.105-13.92
		c0-9.08,3.695-12.84,8.861-12.84c2.898,0,4.117,0.56,5.586,3c0.924,1.479,1.555,2.84,2.395,4.52h0.504l-0.547-7.48
		c-1.764-0.479-4.283-0.92-7.518-0.92c-7.475,0-14.363,3.84-14.363,14.48C413.581,26.022,418.999,30.103,426.516,30.103
		L426.516,30.103z M438.184,29.703h11.256v-0.44l-1.471-0.28c-1.596-0.32-1.723-0.439-1.723-2.48V16.024h12.602v10.479
		c0,2.041-0.168,2.16-1.723,2.48l-1.512,0.28v0.44h11.297v-0.44l-1.596-0.28c-1.469-0.279-1.637-0.439-1.637-2.48V5.184
		c0-2.04,0.168-2.2,1.637-2.479l1.596-0.281V1.985h-11.297v0.439l1.512,0.281c1.555,0.319,1.723,0.439,1.723,2.479v9.88h-12.602
		v-9.88c0-2.04,0.127-2.16,1.723-2.479l1.471-0.281V1.985h-11.256v0.439l1.553,0.281c1.514,0.279,1.682,0.439,1.682,2.479v21.319
		c0,2.041-0.168,2.201-1.682,2.48l-1.553,0.28V29.703L438.184,29.703z M468.305,29.703h7.477v-0.44l-1.135-0.24
		c-1.301-0.319-1.764-0.8-1.764-1.76c0-0.64,0.168-1.521,0.715-3.04l1.637-4.561h8.988l1.848,5.44
		c0.252,0.681,0.547,1.72,0.547,2.319c0,0.801-0.295,1.32-1.68,1.641l-0.967,0.2v0.44h11.131v-0.44l-0.883-0.2
		c-1.219-0.279-1.723-1-2.855-4.08l-8.357-23h-2.27l-8.607,22.52c-1.389,3.681-1.641,4.16-3.107,4.561l-0.715,0.2v0.44H468.305z
		 M479.813,7.183h0.127l3.947,11.521h-8.273L479.813,7.183L479.813,7.183z M506.696,16.223c3.697,0,4.158,0.24,4.746,1.68
		c0.379,0.84,0.631,1.801,0.967,3h0.461v-10.24h-0.461c-0.336,1.201-0.588,2.32-1.008,3.24c-0.504,1.2-1.176,1.4-4.705,1.4h-2.1
		V3.223c1.092-0.24,2.268-0.359,4.494-0.359c4.031,0,4.746,0.359,5.838,2.359c0.588,1.04,1.176,2.439,1.975,4.359h0.545l-0.42-7.6
		h-20.496v0.439l1.557,0.281c1.512,0.279,1.68,0.439,1.68,2.479V26.5c0,2.041-0.209,2.201-1.68,2.48l-1.557,0.28v0.44h11.805v-0.44
		l-2.018-0.28c-1.555-0.24-1.723-0.439-1.723-2.48V16.221h2.1V16.223z M534.774,2.863c3.654,0,4.199,0.68,5.123,2.52
		c0.631,1.279,1.387,3,2.102,4.84h0.504l-0.42-8.24h-22.262l-0.461,8.24h0.504c0.758-1.84,1.514-3.561,2.186-4.84
		c0.883-1.801,1.471-2.52,5.123-2.52h1.387v23.639c0,2.041-0.168,2.201-1.764,2.48l-1.598,0.28v0.44h11.51v-0.44l-1.557-0.28
		c-1.68-0.32-1.805-0.48-1.805-2.48V2.863H534.774L534.774,2.863z M544.096,29.703h20.916l0.588-8.721h-0.545
		c-0.799,2.16-1.639,4.08-2.479,5.52c-1.176,1.961-2.016,2.32-6.006,2.32c-4.201,0-4.41-0.48-4.41-2.72V5.182
		c0-2.04,0.168-2.239,1.721-2.479l1.555-0.281V1.983h-11.34v0.439l1.555,0.281c1.514,0.279,1.682,0.439,1.682,2.479v21.319
		c0,2.041-0.211,2.201-1.682,2.48l-1.555,0.28V29.703L544.096,29.703z M567.188,29.703h11.34v-0.44l-1.555-0.28
		c-1.555-0.279-1.723-0.439-1.723-2.48V5.184c0-2.04,0.168-2.2,1.723-2.479l1.555-0.281V1.985h-11.34v0.439l1.596,0.281
		c1.514,0.279,1.682,0.439,1.682,2.479v21.319c0,2.041-0.168,2.201-1.682,2.48l-1.596,0.28V29.703L567.188,29.703z M592.471,30.103
		c4.158,0,7.182-0.681,9.197-1.479l0.504-7.4h-0.504c-0.756,1.641-1.469,3.439-2.268,4.8c-1.428,2.56-2.814,3.2-6.678,3.2
		c-5.291,0-8.105-4.12-8.105-13.92c0-9.08,3.695-12.84,8.861-12.84c2.898,0,4.117,0.56,5.586,3c0.924,1.479,1.555,2.84,2.395,4.52
		h0.504l-0.547-7.48c-1.764-0.479-4.283-0.92-7.518-0.92c-7.477,0-14.363,3.84-14.363,14.48
		C579.536,26.022,584.954,30.103,592.471,30.103L592.471,30.103z M604.139,29.703h11.256v-0.44l-1.471-0.28
		c-1.596-0.32-1.723-0.439-1.723-2.48V16.024h12.602v10.479c0,2.041-0.168,2.16-1.723,2.48l-1.512,0.28v0.44h11.297v-0.44
		l-1.596-0.28c-1.471-0.279-1.639-0.439-1.639-2.48V5.184c0-2.04,0.168-2.2,1.639-2.479l1.596-0.281V1.985h-11.297v0.439
		l1.512,0.281c1.555,0.319,1.723,0.439,1.723,2.479v9.88h-12.602v-9.88c0-2.04,0.127-2.16,1.723-2.479l1.471-0.281V1.985h-11.256
		v0.439l1.553,0.281c1.514,0.279,1.682,0.439,1.682,2.479v21.319c0,2.041-0.17,2.201-1.682,2.48l-1.553,0.28V29.703L604.139,29.703z
		 M651.311,10.502h-0.461c-0.295,1.201-0.588,2.24-1.01,2.961c-0.588,1.199-1.133,1.4-4.66,1.4h-2.438V3.262
		c1.219-0.24,2.605-0.36,4.705-0.36c3.779,0,4.787,0.24,5.963,2c0.588,0.92,1.303,2.4,2.059,4.08h0.463l-0.463-7H634.68v0.439
		l1.553,0.281c1.514,0.319,1.682,0.439,1.682,2.479V26.5c0,2.041-0.209,2.16-1.682,2.48l-1.553,0.28v0.44h21.629l0.588-8.4h-0.504
		c-0.797,2.04-1.596,4.08-2.561,5.439c-1.262,1.6-1.85,2.041-5.922,2.041c-4.955,0-5.166-0.16-5.166-3.201V15.78h2.438
		c3.484,0,4.115,0.159,4.66,1.359c0.379,0.76,0.715,1.8,1.01,2.96h0.461v-9.597H651.311z"/>
	<path fill="#2A4D86" d="M9.166,140.361l0.869-6.336c0.197-1.455-0.426-2.24-1.673-2.24c-1.033,0-1.951,0.465-2.886,1.201
		l0.148-1.025H2.59l-1.148,8.4h3.034l0.754-5.615c0.41-0.32,0.87-0.561,1.197-0.561c0.328,0,0.508,0.225,0.459,0.641l-0.754,5.535
		H9.166L9.166,140.361z M14.475,140.537c2.788,0.033,4.674-1.967,4.657-5.23c0-2.178-1.197-3.486-3.575-3.52
		c-3.018-0.047-4.657,2.145-4.657,5.201C10.9,139.128,12.393,140.505,14.475,140.537L14.475,140.537z M14.737,138.441
		c-0.819-0.047-1.099-0.783-0.869-2.32c0.264-1.791,0.82-2.303,1.559-2.24c0.787,0.064,0.951,0.736,0.738,2.32
		C15.919,137.994,15.394,138.474,14.737,138.441L14.737,138.441z M25.899,134.792l0.41-3.008h-0.049
		c-0.951,0-2.034,0.736-2.722,1.777h-0.033l0.213-1.602h-3.034l-1.147,8.4h3.033l0.656-4.77c0.771-0.496,1.738-0.801,2.624-0.801
		h0.049V134.792z M34.139,140.361c-0.131-0.416-0.099-1.184,0.016-2.064l1.312-9.773h-3.034l-0.558,4.225
		c-0.443-0.496-1.148-0.961-2.165-0.961c-1.656,0-3.329,1.76-3.329,5.186c0,2.479,1.164,3.566,2.427,3.566
		c0.853,0,1.574-0.447,2.132-0.959c0,0.287,0.049,0.543,0.131,0.783h3.068V140.361z M31.171,137.914
		c-0.246,0.225-0.559,0.383-0.854,0.383c-0.508,0-0.983-0.352-0.983-1.438c0-1.938,0.639-2.832,1.377-2.832
		c0.36,0,0.705,0.158,0.935,0.385L31.171,137.914L31.171,137.914z M47.911,131.96h-2.559l-1.558,4.129h-0.033l-0.508-4.129h-2.23
		l-1.722,4.129h-0.033l-0.345-4.129h-3l1.427,8.4h2.361l1.655-4.207H41.4l0.443,4.207h2.377L47.911,131.96L47.911,131.96z
		 M55.457,136.074c0.312-2.176-0.82-4.289-3.428-4.289c-3.083,0-4.591,2.336-4.591,5.088c0,2.129,1.328,3.664,3.788,3.664
		c1.984,0,3.083-0.783,3.952-1.727l-1.361-1.312c-0.541,0.48-1.05,0.896-2.034,0.896c-0.95,0-1.542-0.48-1.508-1.584h5.067
		C55.375,136.57,55.407,136.394,55.457,136.074L55.457,136.074z M52.701,135.146h-2.196c0.213-1.008,0.705-1.441,1.278-1.441
		C52.456,133.705,52.816,134.138,52.701,135.146L52.701,135.146z M63.54,137.353c0-1.326-0.656-1.949-3.247-2.621
		c-0.574-0.146-0.738-0.307-0.723-0.547c0.018-0.256,0.346-0.432,0.854-0.416c0.524,0,1.229,0.191,1.983,0.689l1.428-1.408
		c-1.115-0.863-2.346-1.264-3.526-1.264c-2,0-3.657,1.057-3.657,2.848c0,1.537,0.902,2.209,3.198,2.93
		c0.689,0.207,0.771,0.318,0.771,0.576c0,0.256-0.296,0.447-0.82,0.463c-0.656,0.016-1.591-0.271-2.312-1.039l-1.624,1.23
		c0.951,1.186,2.46,1.744,3.903,1.744C61.735,140.537,63.54,139.402,63.54,137.353L63.54,137.353z M69.063,140.376l0.295-2.158
		c-0.229,0.047-0.426,0.078-0.754,0.078c-0.574,0-0.787-0.336-0.705-0.928l0.426-3.295h1.493l0.312-2.113h-1.492l0.361-2.752h-2.985
		l-0.361,2.752h-0.868l-0.312,2.113h0.869c0,0-0.427,3.008-0.492,3.439c-0.279,1.84,0.443,2.961,2.591,2.961
		C68.146,140.474,68.671,140.441,69.063,140.376L69.063,140.376z M77.67,137.353c0-1.326-0.656-1.949-3.247-2.621
		c-0.574-0.146-0.738-0.307-0.722-0.547c0.017-0.256,0.345-0.432,0.853-0.416c0.525,0,1.229,0.191,1.985,0.689l1.426-1.408
		c-1.115-0.863-2.346-1.264-3.525-1.264c-2.001,0-3.657,1.057-3.657,2.848c0,1.537,0.902,2.209,3.197,2.93
		c0.689,0.207,0.771,0.318,0.771,0.576c0,0.256-0.295,0.447-0.82,0.463c-0.656,0.016-1.59-0.271-2.312-1.039l-1.623,1.23
		c0.951,1.186,2.459,1.744,3.902,1.744C75.865,140.537,77.67,139.402,77.67,137.353L77.67,137.353z M85.813,137.929l-2.197-1.15
		c-0.459,1.199-0.868,1.553-1.428,1.553c-0.541,0-0.899-0.576-0.899-1.439c0-1.553,0.44-2.93,1.377-2.93
		c0.655,0,0.95,0.561,1.032,1.312l2.509-0.863c-0.229-1.521-1.245-2.625-3.492-2.625c-2.771,0-4.361,2.16-4.361,5.041
		c0,1.854,0.983,3.711,3.56,3.711C83.977,140.537,85.239,139.369,85.813,137.929L85.813,137.929z M94.267,140.361l0.869-6.4
		c0.197-1.455-0.344-2.176-1.607-2.176c-1.032,0-1.935,0.449-2.951,1.201l0.592-4.465h-3.034l-1.591,11.84h3.033l0.755-5.615
		c0.377-0.32,0.819-0.561,1.196-0.561c0.345,0,0.508,0.209,0.459,0.576l-0.754,5.6H94.267L94.267,140.361z M108.11,131.96h-2.559
		l-1.56,4.129h-0.03l-0.511-4.129h-2.229l-1.722,4.129h-0.033l-0.344-4.129h-3.002l1.428,8.4h2.361l1.655-4.207h0.032l0.443,4.207
		h2.378L108.11,131.96L108.11,131.96z M115.706,136.074c0.312-2.176-0.82-4.289-3.429-4.289c-3.082,0-4.592,2.336-4.592,5.088
		c0,2.129,1.329,3.664,3.788,3.664c1.985,0,3.083-0.783,3.953-1.727l-1.362-1.312c-0.541,0.48-1.049,0.896-2.033,0.896
		c-0.95,0-1.541-0.48-1.508-1.584h5.067C115.624,136.57,115.657,136.394,115.706,136.074L115.706,136.074z M112.95,135.146h-2.195
		c0.213-1.008,0.705-1.441,1.277-1.441C112.704,133.705,113.065,134.138,112.95,135.146L112.95,135.146z M120.542,131.113
		l0.344-2.592h-3.033l-0.345,2.592H120.542L120.542,131.113z M119.296,140.361l1.147-8.4h-3.035l-1.146,8.4H119.296L119.296,140.361
		z M127.532,140.361l0.295-2.111h-3.508l4.065-4.24l0.296-2.049h-6.757l-0.312,2.113h3.312l-4.066,4.24l-0.278,2.047H127.532
		L127.532,140.361z"/>
	<polygon fill="#FFFFFF" points="70.771,54.942 70.771,119.656 129.065,119.656 129.065,54.942 	"/>
	<g>
		<g>
			<defs>
				<rect id="SVGID_1_" x="1.224" width="127.848" height="125.193"/>
			</defs>
			<clipPath id="SVGID_2_">
				<use xlink:href="#SVGID_1_"  overflow="visible"/>
			</clipPath>
			<polygon clip-path="url(#SVGID_2_)" fill="#2A4D86" points="101.956,98.509 125.725,98.509 123.028,111.693 77.78,111.693
				80.38,98.109 108.747,72.841 86.472,72.841 89.171,59.649 129.069,59.649 129.069,0 1.224,0 1.224,127.845 129.069,127.845
				129.071,74.525 			"/>
		</g>
	</g>
	<path fill="#FFFFFF" d="M66.714,58.453c-6.791,0-12.285,2.701-16.778,7.492h-0.204l6.494-29.166h-17.68L24.764,98.703
		c-1.199,5.197-2.399,9.695-3.594,12.99h16.68l2.595-9.793h0.198c3.197,7.393,9.19,10.988,18.08,10.988
		c18.78,0,27.367-15.877,27.367-32.955C86.09,68.246,79.499,58.453,66.714,58.453L66.714,58.453z"/>
	<path fill="#2A4D86" d="M53.929,99.111c8.491,0,13.586-8.094,13.586-16.186c0-6.391-2.899-10.686-8.593-10.686
		c-8.49,0-13.582,9.385-13.582,16.279C45.341,93.816,47.935,99.111,53.929,99.111L53.929,99.111z"/>
</g>
</svg>
