<!-- Generator: Adobe Illustrator 16.0.4, SVG Export Plug-In . SVG Version: 6.00 Build 0)  -->
<!DOCTYPE svg PUBLIC "-//W3C//DTD SVG 1.1//EN" "http://www.w3.org/Graphics/SVG/1.1/DTD/svg11.dtd">
<svg version="1.1" id="Ebene_1" xmlns="http://www.w3.org/2000/svg" xmlns:xlink="http://www.w3.org/1999/xlink" x="0px" y="0px"
	 width="127.848px" height="127.845px" viewBox="1.224 0 127.848 127.845" enable-background="new 1.224 0 127.848 127.845"
	 xml:space="preserve">
<g>
	<polygon fill="#FFFFFF" points="70.771,54.942 70.771,119.656 129.065,119.656 129.065,54.942 	"/>
	<g>
		<g>
			<defs>
				<rect id="SVGID_1_" x="1.224" width="127.848" height="125.193"/>
			</defs>
			<clipPath id="SVGID_2_">
				<use xlink:href="#SVGID_1_"  overflow="visible"/>
			</clipPath>
			<polygon clip-path="url(#SVGID_2_)" fill="#2A4D86" points="101.956,98.509 125.725,98.509 123.028,111.693 77.78,111.693
				80.38,98.109 108.747,72.841 86.472,72.841 89.171,59.649 129.069,59.649 129.069,0 1.224,0 1.224,127.845 129.069,127.845
				129.071,74.525 			"/>
		</g>
	</g>
	<path fill="#FFFFFF" d="M66.714,58.453c-6.791,0-12.285,2.701-16.778,7.492h-0.204l6.494-29.166h-17.68L24.764,98.703
		c-1.199,5.197-2.399,9.695-3.594,12.99h16.68l2.595-9.793h0.198c3.197,7.393,9.19,10.988,18.08,10.988
		c18.78,0,27.367-15.877,27.367-32.955C86.09,68.246,79.499,58.453,66.714,58.453L66.714,58.453z"/>
	<path fill="#2A4D86" d="M53.929,99.111c8.491,0,13.586-8.094,13.586-16.186c0-6.391-2.899-10.686-8.593-10.686
		c-8.49,0-13.582,9.385-13.582,16.279C45.341,93.816,47.935,99.111,53.929,99.111L53.929,99.111z"/>
</g>
</svg>
