<!-- Generator: Adobe Illustrator 16.0.4, SVG Export Plug-In . SVG Version: 6.00 Build 0)  -->
<!DOCTYPE svg PUBLIC "-//W3C//DTD SVG 1.1//EN" "http://www.w3.org/Graphics/SVG/1.1/DTD/svg11.dtd">
<svg version="1.1" id="Layer_1" xmlns="http://www.w3.org/2000/svg" xmlns:xlink="http://www.w3.org/1999/xlink" x="0px" y="0px"
	 width="130.39px" height="130.39px" viewBox="0 0 130.39 130.39" enable-background="new 0 0 130.39 130.39" xml:space="preserve">
<g>
	<polygon fill="#E30613" points="0,0 0,125.262 127.914,125.262 127.914,0 0,0 	"/>
	<path fill="#FFFFFF" d="M95.654,73.647L92.621,91.22c-0.627,3.835-0.837,7.023-0.627,9.568c0.209,2.547,0.975,4.621,2.301,6.225
		c1.324,1.604,3.311,2.788,5.961,3.555c2.649,0.768,6.101,1.15,10.354,1.15h8.785l2.511-14.225h-5.439
		c-1.463,0-2.598-0.156-3.398-0.47c-0.802-0.313-1.378-0.767-1.727-1.36c-0.348-0.592-0.522-1.342-0.522-2.248
		c0-0.905,0.14-2.056,0.419-3.451l2.824-16.316h11.609l2.51-12.968h-11.924l2.72-15.479H100.57l-2.72,15.479h-9.412l-2.511,12.968
		H95.654L95.654,73.647z"/>
	<path fill="#FFFFFF" d="M57.121,113.314c20.551,0,32.069-13.8,32.069-34.253c0-11.221-7.445-21.247-24.025-21.247
		C44.71,57.814,33.59,73.7,33.59,91.969C33.59,103.188,40.54,113.314,57.121,113.314 M59.207,99.612
		c-2.781,0-4.767-1.687-4.767-6.552c0-2.382,0.298-5.263,0.993-8.539c1.788-9.53,4.469-13.105,8.341-13.105
		c2.68,0,4.666,1.688,4.666,6.554c0,2.184-0.396,4.965-0.993,8.537C65.659,96.436,63.079,99.612,59.207,99.612L59.207,99.612
		L59.207,99.612z"/>
</g>
</svg>
