<!-- Generator: Adobe Illustrator 16.0.4, SVG Export Plug-In . SVG Version: 6.00 Build 0)  -->
<!DOCTYPE svg PUBLIC "-//W3C//DTD SVG 1.1//EN" "http://www.w3.org/Graphics/SVG/1.1/DTD/svg11.dtd">
<svg version="1.1" id="Layer_1" xmlns="http://www.w3.org/2000/svg" xmlns:xlink="http://www.w3.org/1999/xlink" x="0px" y="0px"
	 width="731.34px" height="141.73px" viewBox="0 0 731.34 141.73" enable-background="new 0 0 731.34 141.73" xml:space="preserve">
<g>
	<path d="M209.495,59.839c10.941,0,12.576,2.036,15.342,7.545c1.887,3.833,4.15,8.983,6.288,14.492h1.509l-1.257-24.672h-66.651
		l-1.383,24.672h1.509c2.263-5.509,4.527-10.659,6.539-14.492c2.641-5.39,4.401-7.545,15.342-7.545h4.15v70.782
		c0,6.108-0.503,6.588-5.282,7.426l-4.778,0.838v1.318h34.457v-1.318l-4.653-0.838c-5.03-0.958-5.408-1.437-5.408-7.426V59.839
		H209.495L209.495,59.839z M223.653,140.203h22.385v-1.318l-3.396-0.718c-3.898-0.958-5.281-2.396-5.281-5.27
		c0-1.916,0.503-4.551,2.137-9.103l4.905-13.653h26.912l5.533,16.288c0.755,2.035,1.635,5.149,1.635,6.946
		c0,2.396-0.88,3.952-5.03,4.91l-2.893,0.599v1.318h33.326v-1.318l-2.641-0.599c-3.647-0.838-5.156-2.994-8.552-12.216
		l-25.025-68.866h-6.791l-25.78,67.429c-4.15,11.02-4.905,12.456-9.306,13.653l-2.138,0.599V140.203L223.653,140.203z
		 M258.11,72.773h0.378l11.821,34.494h-24.774L258.11,72.773L258.11,72.773z M341.51,141.4c12.702,0,23.139-2.634,28.547-4.551
		v-21.559c0-5.029,0.377-5.987,3.396-6.467l4.526-0.839v-1.317h-31.69v1.317l4.779,0.839c4.653,0.838,5.03,1.438,5.03,7.425v19.163
		c-3.018,1.797-8.048,3.354-15.091,3.354c-19.366,0-26.66-14.253-26.66-42.159c0-27.666,10.941-37.966,27.792-37.966
		c8.803,0,12.827,2.156,17.103,7.785c3.521,4.671,5.156,8.623,7.797,14.492h1.383l-1.258-22.038
		c-6.162-1.916-14.083-2.874-23.767-2.874c-21.253,0-44.015,9.701-44.015,43.476C299.382,127.627,314.599,141.4,341.51,141.4
		L341.51,141.4z M377.299,140.203h37.35c19.869,0,32.319-8.144,32.319-23.354c0-12.576-8.678-19.043-25.277-20.361v-0.239
		c13.33-2.275,20.75-8.504,20.75-19.521c0-14.013-11.695-19.522-30.559-19.522h-34.583v1.317l4.652,0.838
		c4.527,0.839,5.03,1.318,5.03,7.426v63.836c0,6.108-0.503,6.588-5.03,7.426l-4.652,0.838V140.203L377.299,140.203z
		 M414.271,137.448c-11.193,0-12.953-1.198-12.953-9.102V98.644h10.94c14.211,0,19.492,5.749,19.492,19.043
		C431.751,130.861,425.715,137.448,414.271,137.448L414.271,137.448z M401.318,95.77V60.916c2.137-0.598,5.784-0.958,9.306-0.958
		c12.324,0,17.48,4.911,17.48,17.727c0,12.575-6.54,18.085-17.48,18.085H401.318L401.318,95.77z M448.425,140.203h62.626
		l1.761-26.11h-1.635c-2.39,6.469-4.904,12.218-7.419,16.528c-3.522,5.869-6.037,6.947-17.984,6.947
		c-12.575,0-13.204-1.438-13.204-8.145V66.785c0-6.108,0.503-6.707,5.156-7.426l4.652-0.838v-1.317h-33.953v1.317l4.652,0.838
		c4.527,0.839,5.03,1.318,5.03,7.426v63.836c0,6.108-0.629,6.588-5.03,7.426l-4.652,0.838V140.203L448.425,140.203z
		 M515.099,140.203h22.385v-1.318l-3.396-0.718c-3.897-0.958-5.281-2.396-5.281-5.27c0-1.916,0.503-4.551,2.138-9.103l4.905-13.653
		h26.912l5.533,16.288c0.754,2.035,1.635,5.149,1.635,6.946c0,2.396-0.881,3.952-5.031,4.91l-2.892,0.599v1.318h33.324v-1.318
		l-2.64-0.599c-3.646-0.838-5.156-2.994-8.552-12.216l-25.025-68.866h-6.791l-25.78,67.429c-4.149,11.02-4.904,12.456-9.306,13.653
		l-2.138,0.599V140.203L515.099,140.203z M549.556,72.773h0.377l11.822,34.494H536.98L549.556,72.773L549.556,72.773z
		 M633.169,59.839c10.941,0,12.576,2.036,15.343,7.545c1.886,3.833,4.149,8.983,6.288,14.492h1.509l-1.258-24.672H588.4
		l-1.384,24.672h1.509c2.264-5.509,4.528-10.659,6.54-14.492c2.641-5.39,4.401-7.545,15.342-7.545h4.15v70.782
		c0,6.108-0.503,6.588-5.282,7.426l-4.779,0.838v1.318h34.458v-1.318l-4.652-0.838c-5.031-0.958-5.408-1.437-5.408-7.426V59.839
		H633.169L633.169,59.839z M706.282,59.839c10.941,0,12.576,2.036,15.343,7.545c1.887,3.833,4.15,8.983,6.288,14.492h1.51
		l-1.259-24.672h-66.65l-1.383,24.672h1.509c2.264-5.509,4.526-10.659,6.539-14.492c2.641-5.39,4.401-7.545,15.343-7.545h4.15
		v70.782c0,6.108-0.503,6.588-5.282,7.426l-4.779,0.838v1.318h34.457v-1.318l-4.653-0.838c-5.029-0.958-5.406-1.437-5.406-7.426
		V59.839H706.282L706.282,59.839z"/>
	<path fill="none" stroke="#000000" stroke-width="0.3073" stroke-miterlimit="5.5921" d="M209.495,59.839
		c10.941,0,12.576,2.036,15.342,7.545c1.887,3.833,4.15,8.983,6.288,14.492h1.509l-1.257-24.672h-66.651l-1.383,24.672h1.509
		c2.263-5.509,4.527-10.659,6.539-14.492c2.641-5.39,4.401-7.545,15.342-7.545h4.15v70.782c0,6.108-0.503,6.588-5.282,7.426
		l-4.778,0.838v1.318h34.457v-1.318l-4.653-0.838c-5.03-0.958-5.408-1.437-5.408-7.426V59.839H209.495L209.495,59.839z
		 M223.653,140.203h22.385v-1.318l-3.396-0.718c-3.898-0.958-5.281-2.396-5.281-5.27c0-1.916,0.503-4.551,2.137-9.103l4.905-13.653
		h26.912l5.533,16.288c0.755,2.035,1.635,5.149,1.635,6.946c0,2.396-0.88,3.952-5.03,4.91l-2.893,0.599v1.318h33.326v-1.318
		l-2.641-0.599c-3.647-0.838-5.156-2.994-8.552-12.216l-25.025-68.866h-6.791l-25.78,67.429c-4.15,11.02-4.905,12.456-9.306,13.653
		l-2.138,0.599V140.203L223.653,140.203z M258.11,72.773h0.378l11.821,34.494h-24.774L258.11,72.773L258.11,72.773z M341.51,141.4
		c12.702,0,23.139-2.634,28.547-4.551v-21.559c0-5.029,0.377-5.987,3.396-6.467l4.526-0.839v-1.317h-31.69v1.317l4.779,0.839
		c4.653,0.838,5.03,1.438,5.03,7.425v19.163c-3.018,1.797-8.048,3.354-15.091,3.354c-19.366,0-26.66-14.253-26.66-42.159
		c0-27.666,10.941-37.966,27.792-37.966c8.803,0,12.827,2.156,17.103,7.785c3.521,4.671,5.156,8.623,7.797,14.492h1.383
		l-1.258-22.038c-6.162-1.916-14.083-2.874-23.767-2.874c-21.253,0-44.015,9.701-44.015,43.476
		C299.382,127.627,314.599,141.4,341.51,141.4L341.51,141.4z M377.299,140.203h37.35c19.869,0,32.319-8.144,32.319-23.354
		c0-12.576-8.678-19.043-25.277-20.361v-0.239c13.33-2.275,20.75-8.504,20.75-19.521c0-14.013-11.695-19.522-30.559-19.522h-34.583
		v1.317l4.652,0.838c4.527,0.839,5.03,1.318,5.03,7.426v63.836c0,6.108-0.503,6.588-5.03,7.426l-4.652,0.838V140.203
		L377.299,140.203z M414.271,137.448c-11.193,0-12.953-1.198-12.953-9.102V98.644h10.94c14.211,0,19.492,5.749,19.492,19.043
		C431.751,130.861,425.715,137.448,414.271,137.448L414.271,137.448z M401.318,95.77V60.916c2.137-0.598,5.784-0.958,9.306-0.958
		c12.324,0,17.48,4.911,17.48,17.727c0,12.575-6.54,18.085-17.48,18.085H401.318L401.318,95.77z M448.425,140.203h62.626
		l1.761-26.11h-1.635c-2.39,6.469-4.904,12.218-7.419,16.528c-3.522,5.869-6.037,6.947-17.984,6.947
		c-12.575,0-13.204-1.438-13.204-8.145V66.785c0-6.108,0.503-6.707,5.156-7.426l4.652-0.838v-1.317h-33.953v1.317l4.652,0.838
		c4.527,0.839,5.03,1.318,5.03,7.426v63.836c0,6.108-0.629,6.588-5.03,7.426l-4.652,0.838V140.203L448.425,140.203z
		 M515.099,140.203h22.385v-1.318l-3.396-0.718c-3.897-0.958-5.281-2.396-5.281-5.27c0-1.916,0.503-4.551,2.138-9.103l4.905-13.653
		h26.912l5.533,16.288c0.754,2.035,1.635,5.149,1.635,6.946c0,2.396-0.881,3.952-5.031,4.91l-2.892,0.599v1.318h33.324v-1.318
		l-2.64-0.599c-3.646-0.838-5.156-2.994-8.552-12.216l-25.025-68.866h-6.791l-25.78,67.429c-4.149,11.02-4.904,12.456-9.306,13.653
		l-2.138,0.599V140.203L515.099,140.203z M549.556,72.773h0.377l11.822,34.494H536.98L549.556,72.773L549.556,72.773z
		 M633.169,59.839c10.941,0,12.576,2.036,15.343,7.545c1.886,3.833,4.149,8.983,6.288,14.492h1.509l-1.258-24.672H588.4
		l-1.384,24.672h1.509c2.264-5.509,4.528-10.659,6.54-14.492c2.641-5.39,4.401-7.545,15.342-7.545h4.15v70.782
		c0,6.108-0.503,6.588-5.282,7.426l-4.779,0.838v1.318h34.458v-1.318l-4.652-0.838c-5.031-0.958-5.408-1.437-5.408-7.426V59.839
		H633.169L633.169,59.839z M706.282,59.839c10.941,0,12.576,2.036,15.343,7.545c1.887,3.833,4.15,8.983,6.288,14.492h1.51
		l-1.259-24.672h-66.65l-1.383,24.672h1.509c2.264-5.509,4.526-10.659,6.539-14.492c2.641-5.39,4.401-7.545,15.343-7.545h4.15
		v70.782c0,6.108-0.503,6.588-5.282,7.426l-4.779,0.838v1.318h34.457v-1.318l-4.653-0.838c-5.029-0.958-5.406-1.437-5.406-7.426
		V59.839H706.282L706.282,59.839z"/>
	<path d="M188.75,42.067c9.912,0,19.7-5.782,19.7-21.299C208.45,6.785,200.087,0,189.061,0c-9.912,0-19.7,6.018-19.7,21.594
		C169.36,35.4,177.724,42.067,188.75,42.067L188.75,42.067z M188.875,40.769c-7.868,0-12.019-6.785-12.019-20.178
		c0-13.098,3.779-19.293,12.081-19.293c8.425,0,12.018,7.611,12.018,20.473C200.955,34.81,197.237,40.769,188.875,40.769
		L188.875,40.769z M209.541,41.477h30.851l0.867-12.862h-0.805c-1.177,3.186-2.416,6.018-3.655,8.142
		c-1.735,2.891-2.974,3.422-8.859,3.422c-6.195,0-6.505-0.708-6.505-4.012V5.31c0-3.009,0.248-3.304,2.54-3.658l2.292-0.413V0.59
		h-16.726v0.649l2.292,0.413c2.23,0.413,2.478,0.649,2.478,3.658v31.447c0,3.009-0.31,3.245-2.478,3.658l-2.292,0.413V41.477
		L209.541,41.477z M261.379,1.888c5.389,0,6.195,1.003,7.558,3.717c0.929,1.888,2.044,4.425,3.097,7.139h0.744l-0.62-12.154h-32.833
		l-0.682,12.154h0.743c1.116-2.714,2.231-5.251,3.222-7.139c1.301-2.655,2.168-3.717,7.558-3.717h2.044v34.869
		c0,3.009-0.248,3.245-2.602,3.658l-2.354,0.413v0.649h16.974v-0.649l-2.292-0.413c-2.478-0.472-2.664-0.708-2.664-3.658V1.888
		H261.379L261.379,1.888z M306.819,41.713h2.416v-35.4c0-3.304,0.371-4.012,2.416-4.543l2.23-0.531V0.59h-11.585v0.649l2.664,0.531
		c2.292,0.531,2.54,1.18,2.54,4.661v24.013h-0.186L286.872,0.59h-11.895v0.649l2.168,0.413c1.983,0.413,2.478,0.944,2.478,3.658
		v30.385c0,3.54-0.433,4.071-2.416,4.602l-2.354,0.531v0.649h11.523v-0.649l-2.416-0.531c-2.354-0.59-2.602-1.121-2.602-4.661V4.897
		h0.186L306.819,41.713L306.819,41.713z M340.884,13.157h-0.681c-0.434,1.77-0.867,3.304-1.487,4.366
		c-0.867,1.77-1.673,2.065-6.876,2.065h-3.593V2.478c1.796-0.354,3.84-0.531,6.938-0.531c5.575,0,7.062,0.354,8.797,2.95
		c0.867,1.357,1.92,3.54,3.035,6.018h0.682L347.018,0.59h-30.665v0.649l2.292,0.413c2.23,0.472,2.478,0.649,2.478,3.658v31.447
		c0,3.009-0.309,3.186-2.478,3.658l-2.292,0.413v0.649h31.904l0.868-12.39h-0.744c-1.177,3.009-2.354,6.018-3.779,8.024
		c-1.858,2.36-2.725,3.009-8.735,3.009c-7.31,0-7.619-0.236-7.619-4.72V20.945h3.593c5.141,0,6.071,0.236,6.876,2.006
		c0.558,1.121,1.053,2.655,1.487,4.366h0.681V13.157L340.884,13.157z M351.502,41.477h16.602v-0.649l-2.229-0.413
		c-2.292-0.472-2.479-0.649-2.479-3.658V22.125c1.611,0.059,3.345,0.118,4.584,0.118c3.47,6.726,7.807,14.101,11.585,19.234h10.408
		v-0.649l-1.115-0.236c-1.115-0.236-1.735-0.531-3.284-2.478c-3.035-3.717-7.867-11.859-10.841-17.169v-0.118
		c5.823-1.77,9.107-4.956,9.107-10.443c0-6.549-4.461-9.794-14.126-9.794h-18.212v0.649l2.292,0.413
		c2.168,0.472,2.478,0.59,2.478,3.658v31.447c0,3.068-0.31,3.186-2.478,3.658l-2.292,0.413V41.477L351.502,41.477z M367.299,20.886
		c-1.857,0-3.096-0.177-3.902-0.295V2.419c1.487-0.295,3.036-0.472,5.266-0.472c5.019,0,7.931,2.36,7.931,9.381
		C376.593,18.113,373.371,20.886,367.299,20.886L367.299,20.886z"/>
	<path fill="none" stroke="#000000" stroke-width="0.2049" stroke-miterlimit="5.5921" d="M188.75,42.067
		c9.912,0,19.7-5.782,19.7-21.299C208.45,6.785,200.087,0,189.061,0c-9.912,0-19.7,6.018-19.7,21.594
		C169.36,35.4,177.724,42.067,188.75,42.067L188.75,42.067z M188.875,40.769c-7.868,0-12.019-6.785-12.019-20.178
		c0-13.098,3.779-19.293,12.081-19.293c8.425,0,12.018,7.611,12.018,20.473C200.955,34.81,197.237,40.769,188.875,40.769
		L188.875,40.769z M209.541,41.477h30.851l0.867-12.862h-0.805c-1.177,3.186-2.416,6.018-3.655,8.142
		c-1.735,2.891-2.974,3.422-8.859,3.422c-6.195,0-6.505-0.708-6.505-4.012V5.31c0-3.009,0.248-3.304,2.54-3.658l2.292-0.413V0.59
		h-16.726v0.649l2.292,0.413c2.23,0.413,2.478,0.649,2.478,3.658v31.447c0,3.009-0.31,3.245-2.478,3.658l-2.292,0.413V41.477
		L209.541,41.477z M261.379,1.888c5.389,0,6.195,1.003,7.558,3.717c0.929,1.888,2.044,4.425,3.097,7.139h0.744l-0.62-12.154h-32.833
		l-0.682,12.154h0.743c1.116-2.714,2.231-5.251,3.222-7.139c1.301-2.655,2.168-3.717,7.558-3.717h2.044v34.869
		c0,3.009-0.248,3.245-2.602,3.658l-2.354,0.413v0.649h16.974v-0.649l-2.292-0.413c-2.478-0.472-2.664-0.708-2.664-3.658V1.888
		H261.379L261.379,1.888z M306.819,41.713h2.416v-35.4c0-3.304,0.371-4.012,2.416-4.543l2.23-0.531V0.59h-11.585v0.649l2.664,0.531
		c2.292,0.531,2.54,1.18,2.54,4.661v24.013h-0.186L286.872,0.59h-11.895v0.649l2.168,0.413c1.983,0.413,2.478,0.944,2.478,3.658
		v30.385c0,3.54-0.433,4.071-2.416,4.602l-2.354,0.531v0.649h11.523v-0.649l-2.416-0.531c-2.354-0.59-2.602-1.121-2.602-4.661V4.897
		h0.186L306.819,41.713L306.819,41.713z M340.884,13.157h-0.681c-0.434,1.77-0.867,3.304-1.487,4.366
		c-0.867,1.77-1.673,2.065-6.876,2.065h-3.593V2.478c1.796-0.354,3.84-0.531,6.938-0.531c5.575,0,7.062,0.354,8.797,2.95
		c0.867,1.357,1.92,3.54,3.035,6.018h0.682L347.018,0.59h-30.665v0.649l2.292,0.413c2.23,0.472,2.478,0.649,2.478,3.658v31.447
		c0,3.009-0.309,3.186-2.478,3.658l-2.292,0.413v0.649h31.904l0.868-12.39h-0.744c-1.177,3.009-2.354,6.018-3.779,8.024
		c-1.858,2.36-2.725,3.009-8.735,3.009c-7.31,0-7.619-0.236-7.619-4.72V20.945h3.593c5.141,0,6.071,0.236,6.876,2.006
		c0.558,1.121,1.053,2.655,1.487,4.366h0.681V13.157L340.884,13.157z M351.502,41.477h16.602v-0.649l-2.229-0.413
		c-2.292-0.472-2.479-0.649-2.479-3.658V22.125c1.611,0.059,3.345,0.118,4.584,0.118c3.47,6.726,7.807,14.101,11.585,19.234h10.408
		v-0.649l-1.115-0.236c-1.115-0.236-1.735-0.531-3.284-2.478c-3.035-3.717-7.867-11.859-10.841-17.169v-0.118
		c5.823-1.77,9.107-4.956,9.107-10.443c0-6.549-4.461-9.794-14.126-9.794h-18.212v0.649l2.292,0.413
		c2.168,0.472,2.478,0.59,2.478,3.658v31.447c0,3.068-0.31,3.186-2.478,3.658l-2.292,0.413V41.477L351.502,41.477z M367.299,20.886
		c-1.857,0-3.096-0.177-3.902-0.295V2.419c1.487-0.295,3.036-0.472,5.266-0.472c5.019,0,7.931,2.36,7.931,9.381
		C376.593,18.113,373.371,20.886,367.299,20.886L367.299,20.886z"/>
	<polygon fill="#E30613" points="0,0.376 0,125.638 127.914,125.638 127.914,0.376 0,0.376 	"/>
	<path fill="#FFFFFF" d="M95.654,74.023l-3.033,17.572c-0.627,3.835-0.837,7.023-0.627,9.568c0.209,2.547,0.975,4.621,2.3,6.225
		c1.324,1.604,3.311,2.788,5.962,3.555c2.649,0.768,6.1,1.15,10.354,1.15h8.785l2.511-14.225h-5.439
		c-1.464,0-2.598-0.156-3.399-0.47c-0.802-0.313-1.378-0.767-1.726-1.36c-0.349-0.592-0.523-1.342-0.523-2.248
		c0-0.905,0.139-2.056,0.419-3.451l2.824-16.316h11.609l2.51-12.968h-11.923l2.719-15.479H100.57l-2.72,15.479h-9.412l-2.511,12.968
		H95.654L95.654,74.023z"/>
	<path fill="#FFFFFF" d="M57.121,113.69c20.552,0,32.069-13.8,32.069-34.253c0-11.22-7.446-21.247-24.026-21.247
		c-20.453,0-31.573,15.886-31.573,34.154C33.59,103.563,40.54,113.69,57.121,113.69 M59.207,99.988
		c-2.781,0-4.767-1.687-4.767-6.552c0-2.382,0.298-5.263,0.993-8.539c1.788-9.53,4.469-13.105,8.341-13.105
		c2.68,0,4.666,1.688,4.666,6.554c0,2.184-0.397,4.965-0.993,8.537C65.659,96.812,63.079,99.988,59.207,99.988L59.207,99.988
		L59.207,99.988z"/>
	<path fill="#E30613" d="M126.402,140.909l0.295-2.111h-3.509l4.067-4.239l0.295-2.05h-6.756l-0.312,2.113h3.313l-4.067,4.238
		l-0.279,2.049H126.402L126.402,140.909z M118.166,140.909l1.148-8.4h-3.034l-1.148,8.4H118.166L118.166,140.909z M119.413,131.661
		l0.344-2.592h-3.033l-0.345,2.592H119.413L119.413,131.661z M111.821,135.692h-2.198c0.213-1.007,0.706-1.439,1.279-1.439
		C111.577,134.253,111.937,134.686,111.821,135.692 M114.578,136.622c0.31-2.178-0.821-4.289-3.429-4.289
		c-3.083,0-4.59,2.336-4.59,5.088c0,2.129,1.327,3.664,3.787,3.664c1.984,0,3.083-0.782,3.952-1.729l-1.361-1.311
		c-0.541,0.479-1.05,0.895-2.034,0.895c-0.95,0-1.541-0.479-1.508-1.584h5.067C114.496,137.118,114.527,136.94,114.578,136.622
		 M106.98,132.509h-2.558l-1.558,4.13h-0.033l-0.508-4.13h-2.231l-1.721,4.13h-0.033l-0.344-4.13h-3.001l1.426,8.4h2.362
		l1.656-4.207h0.033l0.442,4.207h2.378L106.98,132.509L106.98,132.509z M93.136,140.909l0.869-6.4
		c0.198-1.454-0.343-2.176-1.607-2.176c-1.033,0-1.935,0.447-2.951,1.201l0.59-4.465h-3.034l-1.59,11.84h3.033l0.756-5.615
		c0.377-0.319,0.819-0.561,1.196-0.561c0.345,0,0.508,0.207,0.459,0.577l-0.754,5.599H93.136L93.136,140.909z M84.684,138.479
		l-2.197-1.153c-0.46,1.199-0.87,1.553-1.427,1.553c-0.541,0-0.902-0.576-0.902-1.44c0-1.552,0.443-2.929,1.378-2.929
		c0.655,0,0.951,0.561,1.033,1.312l2.51-0.863c-0.23-1.521-1.248-2.625-3.494-2.625c-2.772,0-4.361,2.16-4.361,5.041
		c0,1.856,0.983,3.711,3.557,3.711C82.848,141.085,84.109,139.917,84.684,138.479 M76.54,137.901c0-1.328-0.655-1.951-3.246-2.625
		c-0.574-0.143-0.737-0.302-0.722-0.543c0.016-0.255,0.344-0.431,0.853-0.416c0.525,0,1.23,0.191,1.984,0.688l1.427-1.407
		c-1.115-0.864-2.345-1.265-3.526-1.265c-2.001,0-3.657,1.058-3.657,2.849c0,1.536,0.903,2.209,3.198,2.927
		c0.689,0.209,0.771,0.321,0.771,0.577c0,0.255-0.295,0.448-0.82,0.464c-0.656,0.016-1.591-0.271-2.313-1.041l-1.623,1.232
		c0.951,1.184,2.461,1.744,3.903,1.744C74.736,141.085,76.54,139.95,76.54,137.901 M67.935,140.925l0.295-2.159
		c-0.23,0.049-0.426,0.08-0.754,0.08c-0.574,0-0.788-0.337-0.706-0.929l0.427-3.295h1.492L69,132.509h-1.493l0.362-2.752h-2.985
		l-0.361,2.752h-0.869l-0.312,2.113h0.869c0,0-0.425,3.008-0.492,3.44c-0.279,1.839,0.443,2.959,2.591,2.959
		C67.017,141.021,67.541,140.989,67.935,140.925 M62.411,137.901c0-1.328-0.657-1.951-3.248-2.625
		c-0.574-0.143-0.738-0.302-0.721-0.543c0.016-0.255,0.345-0.431,0.852-0.416c0.525,0,1.23,0.191,1.985,0.688l1.426-1.407
		c-1.115-0.864-2.345-1.265-3.524-1.265c-2.002,0-3.658,1.058-3.658,2.849c0,1.536,0.902,2.209,3.197,2.927
		c0.69,0.209,0.771,0.321,0.771,0.577c0,0.255-0.295,0.448-0.82,0.464c-0.655,0.016-1.591-0.271-2.312-1.041l-1.624,1.232
		c0.952,1.184,2.459,1.744,3.904,1.744C60.605,141.085,62.411,139.95,62.411,137.901 M51.572,135.692h-2.197
		c0.213-1.007,0.705-1.439,1.279-1.439C51.326,134.253,51.687,134.686,51.572,135.692 M54.327,136.622
		c0.312-2.178-0.82-4.289-3.427-4.289c-3.083,0-4.592,2.336-4.592,5.088c0,2.129,1.329,3.664,3.788,3.664
		c1.985,0,3.083-0.782,3.953-1.729l-1.362-1.311c-0.541,0.479-1.049,0.895-2.033,0.895c-0.951,0-1.541-0.479-1.509-1.584h5.067
		C54.245,137.118,54.278,136.94,54.327,136.622 M46.781,132.509h-2.559l-1.557,4.13h-0.033l-0.509-4.13h-2.23l-1.722,4.13h-0.032
		l-0.345-4.13h-3.001l1.427,8.4h2.361l1.657-4.207h0.032l0.443,4.207h2.378L46.781,132.509L46.781,132.509z M30.041,138.462
		c-0.246,0.224-0.557,0.384-0.853,0.384c-0.508,0-0.984-0.353-0.984-1.44c0-1.935,0.64-2.832,1.378-2.832
		c0.361,0,0.705,0.16,0.935,0.385L30.041,138.462L30.041,138.462z M33.009,140.909c-0.131-0.416-0.098-1.183,0.017-2.063
		l1.312-9.776h-3.034l-0.558,4.225c-0.443-0.496-1.148-0.961-2.164-0.961c-1.657,0-3.329,1.76-3.329,5.185
		c0,2.479,1.164,3.567,2.427,3.567c0.852,0,1.574-0.446,2.131-0.959c0,0.287,0.05,0.543,0.132,0.783H33.009L33.009,140.909z
		 M24.771,135.341l0.41-3.008h-0.05c-0.951,0-2.033,0.736-2.722,1.775h-0.033l0.214-1.6h-3.034l-1.148,8.4h3.034l0.656-4.767
		c0.77-0.496,1.738-0.802,2.623-0.802H24.771L24.771,135.341z M13.608,138.989c-0.82-0.049-1.099-0.783-0.869-2.32
		c0.262-1.791,0.82-2.305,1.558-2.239c0.787,0.063,0.951,0.735,0.738,2.319C14.789,138.542,14.264,139.021,13.608,138.989
		 M13.346,141.085c2.788,0.033,4.673-1.967,4.657-5.231c0-2.177-1.197-3.489-3.575-3.521c-3.017-0.047-4.657,2.146-4.657,5.201
		C9.771,139.677,11.263,141.055,13.346,141.085 M8.036,140.909l0.869-6.336c0.197-1.455-0.426-2.24-1.673-2.24
		c-1.033,0-1.951,0.465-2.886,1.201l0.148-1.025H1.46l-1.148,8.4h3.034l0.754-5.615c0.41-0.319,0.869-0.561,1.197-0.561
		s0.509,0.225,0.46,0.641l-0.755,5.535H8.036L8.036,140.909z"/>
</g>
</svg>
