<?xml version="1.0" encoding="utf-8"?>
<!-- Generator: Adobe Illustrator 15.0.0, SVG Export Plug-In . SVG Version: 6.00 Build 0)  -->
<!DOCTYPE svg PUBLIC "-//W3C//DTD SVG 1.1//EN" "http://www.w3.org/Graphics/SVG/1.1/DTD/svg11.dtd">
<svg version="1.1" id="Layer_1" xmlns="http://www.w3.org/2000/svg" xmlns:xlink="http://www.w3.org/1999/xlink" x="0px" y="0px"
	 width="25px" height="25px" viewBox="0 0 25 25" enable-background="new 0 0 25 25" xml:space="preserve">
<path fill="#444444" d="M18.95,17.535L13.915,12.5l0.793-0.793l4.243-4.242c0.389-0.391,0.391-1.023,0-1.414
	c-0.393-0.392-1.025-0.391-1.416,0l-5.034,5.034L10.466,9.05c-0.001-0.001-0.003-0.001-0.004-0.003L7.465,6.05
	c-0.391-0.39-1.023-0.391-1.414,0c-0.392,0.392-0.391,1.024,0,1.415l5.035,5.035l-0.793,0.793L6.05,17.535
	c-0.389,0.391-0.391,1.023,0,1.414c0.393,0.392,1.025,0.391,1.416,0l5.034-5.034l2.035,2.035c0.001,0.001,0.003,0.001,0.004,0.003
	l2.997,2.997c0.391,0.39,1.023,0.391,1.414,0C19.342,18.559,19.341,17.926,18.95,17.535z"/>
</svg>
